<?xml version="1.0" encoding="UTF-8"?>
<svg id="Layer_1" data-name="Layer 1" xmlns="http://www.w3.org/2000/svg" viewBox="0 0 584 584">
  <defs>
    <style>
      .cls-1 {
        fill: #c1272d;
      }

      .cls-1, .cls-2, .cls-3, .cls-4, .cls-5, .cls-6, .cls-7 {
        stroke-width: 0px;
      }

      .cls-2 {
        fill: #ed1c24;
      }

      .cls-3 {
        fill: #fcee21;
      }

      .cls-4 {
        fill: #a67c52;
      }

      .cls-5 {
        fill: #ff0;
      }

      .cls-6 {
        fill: #d9e021;
      }

      .cls-7 {
        fill: #c69c6d;
      }
    </style>
  </defs>
  <circle class="cls-2" cx="292" cy="292" r="292"/>
  <circle class="cls-1" cx="292.71" cy="291.79" r="260.64"/>
  <path class="cls-6" d="m197.05,109.11h195v299h-195V109.11Z"/>
  <polygon class="cls-7" points="329.12 422.02 256.1 422.02 229.33 312.95 358.33 312.95 329.12 422.02"/>
  <path class="cls-7" d="m406.33,205.95c0,77.32-50.08,169-112.48,169s-113.52-91.68-113.52-169,50.59-140,113-140,113,62.68,113,140Z"/>
  <polygon class="cls-7" points="254.56 381.31 331.54 381.69 365.36 485.45 220.39 485.97 254.56 381.31"/>
  <polygon class="cls-7" points="438.83 504.53 149.33 504.95 247.33 433.95 340.33 433.95 438.83 504.53"/>
  <path class="cls-7" d="m438.33,505.95c-6.79,9.05-66.19,32-146,32s-137-22-143-32c-4.55-7.58,64.69-16,144.5-16s150.5,8,144.5,16Z"/>
  <path class="cls-4" d="m342.21,354.95c-2.56,2.54-21.06,22-46.42,22s-47.89-18.46-51.46-22c-7.06-7,25.09,10,50.45,10s49.45-12,47.43-10Z"/>
  <path class="cls-4" d="m439.33,504.95c-5,8-70.71,40-145,40s-132.68-29.55-143-37c-18-13,67.71,25,142,25s149.31-33.29,146-28Z"/>
  <path class="cls-4" d="m225.03,123.31h0c6.6.18-4.85,66.17-5.04,73l.4,21.42c-.19,6.82,8.4,78.73,1.8,78.54h0c-6.6-.18-27.04-70.33-24.52-88.99l.42-15.15c2.45-15.99,20.34-69,26.94-68.82Z"/>
  <rect class="cls-3" x="221.05" y="100.11" width="144" height="68"/>
  <ellipse class="cls-3" cx="252.35" cy="99.86" rx="56.5" ry="42.38" transform="translate(-18.87 109.56) rotate(-23.64)"/>
  <ellipse class="cls-3" cx="334.34" cy="99.86" rx="42.38" ry="56.5" transform="translate(108.81 366.11) rotate(-66.36)"/>
  <rect class="cls-5" x="186.05" y="253.11" width="11" height="0"/>
  <path class="cls-3" d="m388.07,310.8l-4.01,123.31c7.78,0,80-184.86,80-191l-43-116c1-18-58.22-61-66-61l33.01,43.59c-7.78,0-14.15,5.03-14.15,11.17v178.76c0,6.14,6.37,11.17,14.15,11.17Z"/>
  <path class="cls-3" d="m195.05,395.11l7.45,39c-5.52,0-70.45-112.88-70.45-121l32-162c-1.19-32.86,48-74,56-74l-23.4,43.09c5.52,0,10.03,6.65,10.03,14.77v236.36c0,8.12-6.11,23.78-11.63,23.78Z"/>
  <path class="cls-3" d="m418.8,274.11s3.85-26.05,31.16-26.05c27.31,0,31.19,26.05,31.19,26.05,0-21.91-13.96-39.67-31.17-39.67-17.22,0-31.17,17.76-31.17,39.67Z"/>
  <path class="cls-3" d="m141.47,151s11.73-17.21,36.75-6.26c25.02,10.95,20.36,31.26,20.36,31.26,6.9-15.77-.29-34.15-16.06-41.06-15.77-6.9-34.15.29-41.06,16.06Z"/>
  <path class="cls-3" d="m127.99,356.43s-8.07-31.23,18.26-41.65c26.34-10.43,41.86,17.85,41.86,17.85-9.91-25.03-31.4-39.99-48-33.42-16.6,6.57-22.03,32.19-12.12,57.22Z"/>
  <path class="cls-3" d="m387.05,354.84s3.11-20.47,25.19-20.47c22.08,0,25.21,20.47,25.21,20.47,0-17.22-11.28-31.17-25.2-31.17-13.92,0-25.2,13.96-25.2,31.17Z"/>
  <path class="cls-3" d="m403.66,218.29s-8.61-21.24,14.62-35.6c23.23-14.37,38.41,2.81,38.41,2.81-9.99-16.16-29.96-21.91-44.61-12.86-14.64,9.06-18.41,29.5-8.42,45.65Z"/>
  <path class="cls-3" d="m122.04,235.39s23.36-13.79,40.43,7.53c17.08,21.31-1.45,41.13-1.45,41.13,17.62-14.12,23.18-36.46,12.41-49.89-10.77-13.44-33.78-12.88-51.4,1.24Z"/>
  <path class="cls-6" d="m389.05,291.11h0c-3.3,0-7-9.44-7-12.11v-108.17c0-2.66,2.7-13.72,6-13.72h0c3.3,0,6,11.06,6,13.72v108.17c0,2.66-1.7,12.11-5,12.11Z"/>
  <path class="cls-3" d="m232.36,42.22s29.73-6.43,42.46,25.94c12.73,32.37-13.4,47.95-13.4,47.95,23.49-9.24,36.03-33.27,28.01-53.67-8.02-20.4-33.57-29.45-57.07-20.21Z"/>
  <path class="cls-3" d="m327.84,102.06s-22.59-3.85-22.59-31.16c0-27.31,22.59-31.19,22.59-31.19-19,0-34.4,13.96-34.4,31.17s15.4,31.17,34.4,31.17Z"/>
  <polygon class="cls-3" points="199.05 419.11 188.05 411.11 188.05 349.11 205.05 349.11 199.05 419.11"/>
  <path class="cls-3" d="m368.05,390.94s2.32-20.47,18.78-20.47c16.46,0,18.8,20.47,18.8,20.47,0-17.22-8.41-31.17-18.79-31.17-10.38,0-18.79,13.96-18.79,31.17Z"/>
  <path class="cls-3" d="m177.63,373.49s.94-20.62,19.84-22.22c18.9-1.6,23.31,18.57,23.31,18.57-1.45-17.16-12.28-30.25-24.2-29.24-11.91,1.01-20.4,15.73-18.95,32.89Z"/>
</svg>