<?xml version="1.0" encoding="UTF-8"?>
<svg id="Layer_1" data-name="Layer 1" xmlns="http://www.w3.org/2000/svg" xmlns:xlink="http://www.w3.org/1999/xlink" viewBox="0 0 584 584">
  <defs>
    <style>
      .cls-1 {
        fill: #c9afdb;
      }

      .cls-1, .cls-2, .cls-3, .cls-4, .cls-5, .cls-6, .cls-7, .cls-8, .cls-9, .cls-10, .cls-11, .cls-12, .cls-13, .cls-14, .cls-15, .cls-16, .cls-17, .cls-18, .cls-19, .cls-20 {
        stroke-width: 0px;
      }

      .cls-2 {
        fill: #c1272d;
      }

      .cls-3, .cls-12 {
        fill: #0071bc;
      }

      .cls-4 {
        fill: #ed1c24;
      }

      .cls-5 {
        opacity: .7;
      }

      .cls-5, .cls-8, .cls-11 {
        fill: #613f4d;
      }

      .cls-6 {
        fill: #684e9e;
      }

      .cls-7 {
        fill: #2e3192;
        filter: url(#drop-shadow-3);
      }

      .cls-8 {
        opacity: .75;
      }

      .cls-9 {
        fill: #333;
      }

      .cls-10 {
        fill: url(#linear-gradient);
      }

      .cls-10, .cls-11 {
        opacity: .9;
      }

      .cls-12 {
        filter: url(#drop-shadow-1);
      }

      .cls-13 {
        fill: url(#linear-gradient-2);
      }

      .cls-14 {
        fill: url(#radial-gradient-2);
      }

      .cls-15 {
        filter: url(#drop-shadow-2);
      }

      .cls-15, .cls-19 {
        fill: #8c69d4;
      }

      .cls-16 {
        fill: url(#linear-gradient-3);
      }

      .cls-17 {
        fill: #6c7d85;
        opacity: .6;
      }

      .cls-18 {
        fill: url(#radial-gradient);
      }

      .cls-20 {
        fill: url(#linear-gradient-4);
      }
    </style>
    <filter id="drop-shadow-1" filterUnits="userSpaceOnUse">
      <feOffset dx="6" dy="6"/>
      <feGaussianBlur result="blur" stdDeviation="15"/>
      <feFlood flood-color="#000" flood-opacity=".4"/>
      <feComposite in2="blur" operator="in"/>
      <feComposite in="SourceGraphic"/>
    </filter>
    <filter id="drop-shadow-2" filterUnits="userSpaceOnUse">
      <feOffset dx="6" dy="6"/>
      <feGaussianBlur result="blur-2" stdDeviation="15"/>
      <feFlood flood-color="#000" flood-opacity=".4"/>
      <feComposite in2="blur-2" operator="in"/>
      <feComposite in="SourceGraphic"/>
    </filter>
    <linearGradient id="linear-gradient" x1="134.73" y1="321.6" x2="335.34" y2="321.6" gradientUnits="userSpaceOnUse">
      <stop offset=".1" stop-color="#ad5c78"/>
      <stop offset="1" stop-color="#856167"/>
    </linearGradient>
    <linearGradient id="linear-gradient-2" x1="215.57" y1="117.49" x2="76.8" y2="21.6" gradientUnits="userSpaceOnUse">
      <stop offset=".12" stop-color="#dde9f0"/>
      <stop offset="1" stop-color="#cfe5f0"/>
    </linearGradient>
    <radialGradient id="radial-gradient" cx="320.39" cy="173.62" fx="320.39" fy="173.62" r="62.59" gradientTransform="translate(-.02 3.49) rotate(-.76) scale(.95 1) skewX(-.08)" gradientUnits="userSpaceOnUse">
      <stop offset=".61" stop-color="#bddbe9"/>
      <stop offset="1" stop-color="#b6d0db"/>
    </radialGradient>
    <radialGradient id="radial-gradient-2" cx="274.26" cy="185.87" fx="274.26" fy="185.87" r="54.02" gradientTransform="translate(2.16 -10.95) rotate(-1.11) scale(1.15 1.13) skewX(.04)" gradientUnits="userSpaceOnUse">
      <stop offset=".72" stop-color="#bfdce9"/>
      <stop offset="1" stop-color="#b4d1db"/>
    </radialGradient>
    <linearGradient id="linear-gradient-3" x1="166.84" y1="242.59" x2="286.76" y2="224.61" gradientTransform="translate(44.92 124.91) rotate(19.52)" gradientUnits="userSpaceOnUse">
      <stop offset="0" stop-color="#2b2b2b"/>
      <stop offset="1" stop-color="#000"/>
    </linearGradient>
    <linearGradient id="linear-gradient-4" x1="245.58" y1="458.46" x2="303.23" y2="458.46" gradientUnits="userSpaceOnUse">
      <stop offset="0" stop-color="#0071bc"/>
      <stop offset="1" stop-color="#005a96"/>
    </linearGradient>
    <filter id="drop-shadow-3" filterUnits="userSpaceOnUse">
      <feOffset dx="4" dy="9"/>
      <feGaussianBlur result="blur-3" stdDeviation="12"/>
      <feFlood flood-color="#000" flood-opacity=".7"/>
      <feComposite in2="blur-3" operator="in"/>
      <feComposite in="SourceGraphic"/>
    </filter>
  </defs>
  <ellipse class="cls-12" cx="279" cy="459.72" rx="24.23" ry="11.4"/>
  <circle class="cls-4" cx="292" cy="292" r="292"/>
  <circle class="cls-2" cx="292.71" cy="291.79" r="260.64"/>
  <ellipse class="cls-6" cx="312.27" cy="190.55" rx="102.39" ry="114.79"/>
  <ellipse class="cls-19" cx="312.71" cy="190.22" rx="95.03" ry="106.53"/>
  <path class="cls-6" d="m240,398.69c-85.08,0-143.38-27.35-143.38-64.21,0-48.75,58.3-64.21,143.38-64.21s131.54,22.59,132.71,64.21c1,35.45-47.63,64.21-132.71,64.21Z"/>
  <path class="cls-15" d="m239.04,392.75c-80.12,0-135.02-25.34-135.02-59.49,0-45.17,54.9-59.49,135.02-59.49s123.87,20.93,124.97,59.49c.94,32.84-44.85,59.49-124.97,59.49Z"/>
  <path class="cls-10" d="m237.63,361.17c-59,0-102.9-16.48-102.9-37.22,0-27.42,40.61-41.93,99.61-41.93,77.47,0,100.18,19.66,100.99,43.07.69,19.94-38.71,36.08-97.7,36.08Z"/>
  <ellipse class="cls-13" cx="312.27" cy="184.31" rx="70.66" ry="77.96"/>
  <path class="cls-6" d="m369.38,327.44s-16.21,46.81-134.9,44.45c-118.7-2.36-136.07-49.85-136.07-49.85-.61,30.62,60.15,54.71,134.97,56.2,74.83,1.49,135.38-20.18,135.99-50.8Z"/>
  <path class="cls-18" d="m358.54,132.03l1.68-1.6,1.28-1.16c-.52-.42-1.03-.85-1.53-1.3-.69-.4-1.25-.94-1.67-1.58-.71-.7-1.41-1.41-2.11-2.12-1.87-1.9-3.96-3.56-5.89-5.4h-3.01l-.04-.05-.05.05-97.34,92.68c.48.59.86,1.26,1.11,1.98.52,1.48.7,3.05,1.13,4.55.56.97.97,2.02,1.36,3.07.07.19.22.51.28.64.13.21.32.5.4.62.17.2.47.55.51.6.51.62,1.04,1.25,1.48,1.92.19.29.36.59.51.91.39.53.67,1.14.87,1.79h.87s.05-.3.05-.3l.08.09,100.09-95.3-.06-.07v.1h-.12l.11-.11h0Z"/>
  <path class="cls-14" d="m265.38,238.12c1.11.98,1.85,2.23,2.79,3.34.03.04.05.06.08.09.06.05.14.11.23.18.67.54,1.38,1.03,2.05,1.56,1.08.84,2.07,1.72,3.01,2.64l101.46-94.17c-.17-.24-.34-.5-.48-.79-.95-1.85-1.67-3.79-2.35-5.75-.43-1.25-.83-2.84-1.71-3.88-.27-.32-.49-.64-.69-.97l-100.72,93.47-.02-.02-4.36,3.75c.24.18.48.35.72.56Z"/>
  <path class="cls-11" d="m137.12,317.22c-1.36,1.15.05,3.33,1.63,2.53,4.16-2.11,10.08-3.85,18.33-3.85,5.3,0,9.55.81,12.95,2.01,2.33.83,3.77-2.56,1.5-3.54-3.99-1.72-8.86-2.41-14.4-2.41-8.62,0-15.02,1.05-20.01,5.26Z"/>
  <path class="cls-11" d="m210.46,300.96s-4.57,11.95-25.57,14.29c-5.54.62-10.02.22-13.62-.7-2.37-.6-3.4,2.88-1.08,3.65,4.27,1.42,9.36,1.6,15.1.96,13.23-1.48,20.94-4.87,25.17-18.2Z"/>
  <path class="cls-11" d="m172.17,339.8s-6.04-4.16-4.53-16.17c.4-3.17,1.22-5.62,2.22-7.5.66-1.24-1.15-2.28-1.89-1.09-1.37,2.19-2.15,5-2.57,8.29-.96,7.58-.1,12.33,6.76,16.48Z"/>
  <path class="cls-11" d="m192.79,336.73s5.87-2.67,6.39-13.31c.14-2.81-.2-5.05-.78-6.83-.38-1.17,1.34-1.8,1.8-.66.85,2.1,1.1,4.66.96,7.57-.33,6.7-1.79,10.69-8.37,13.23Z"/>
  <path class="cls-11" d="m217.47,332.59s-4.56,3.29-12.83-.91c-2.18-1.11-3.74-2.33-4.84-3.54-.73-.79-1.94.24-1.28,1.08,1.22,1.55,3.05,2.84,5.32,3.99,5.22,2.65,8.86,3.26,13.63-.62Z"/>
  <path class="cls-11" d="m238.07,320.2s-4.85-9.39-22.31-9.39c-4.61,0-8.25.74-11.13,1.82-1.89.71-3.06-2.05-1.22-2.9,3.37-1.56,7.54-2.17,12.32-2.17,11.01,0,17.64,2.08,22.34,12.65Z"/>
  <path class="cls-11" d="m249.92,293.01s-.95,8.56-14.23,13.65c-3.5,1.34-6.49,1.85-8.99,1.86-1.65,0-1.73,2.45-.08,2.56,3.02.2,6.37-.55,10-1.94,8.37-3.21,12.81-6.73,13.3-16.14Z"/>
  <path class="cls-5" d="m328.74,307.98c1.65.66,1.01,3.18-.75,2.91-4.61-.69-10.78-.46-18.61,2.15-5.03,1.68-8.81,3.79-11.64,6.01-1.95,1.52-4.39-1.24-2.54-2.89,3.24-2.9,7.64-5.09,12.9-6.84,8.17-2.73,14.58-3.75,20.64-1.34Z"/>
  <path class="cls-5" d="m254.02,315.76s8.12,9.88,28.77,5.46c5.45-1.17,9.58-2.96,12.7-4.97,2.06-1.32,4.14,1.65,2.18,3.12-3.6,2.7-8.37,4.48-14.02,5.69-13.02,2.79-21.4,2.01-29.64-9.3Z"/>
  <path class="cls-5" d="m302.64,340.49s4.42-5.86-.83-16.78c-1.38-2.88-2.94-4.94-4.48-6.41-1.01-.97.36-2.53,1.45-1.64,1.99,1.64,3.62,4.06,5.06,7.05,3.31,6.88,4,11.66-1.2,17.77Z"/>
  <path class="cls-5" d="m282.11,344.1s-6.41-.68-10.27-10.6c-1.02-2.62-1.41-4.85-1.43-6.73-.01-1.23-1.84-1.29-1.92-.05-.14,2.26.43,4.77,1.49,7.48,2.43,6.26,5.08,9.57,12.13,9.9Z"/>
  <path class="cls-5" d="m257.39,347.98s5.36,1.67,11.88-4.93c1.72-1.74,2.8-3.4,3.47-4.89.44-.98,1.92-.39,1.55.62-.67,1.86-1.99,3.66-3.78,5.47-4.11,4.16-7.38,5.9-13.13,3.72Z"/>
  <path class="cls-5" d="m233.93,342.76s1.63-10.44,18.19-15.97c4.37-1.46,8.06-1.91,11.13-1.8,2.02.08,2.25-2.92.24-3.14-3.69-.41-7.84.33-12.37,1.84-10.44,3.48-16.08,7.56-17.19,19.07Z"/>
  <path class="cls-5" d="m214.08,320.72s3.61,7.82,17.82,8.45c3.75.17,6.74-.3,9.12-1.08,1.57-.51,2.42,1.78.89,2.4-2.8,1.15-6.21,1.5-10.1,1.32-8.96-.4-14.29-2.33-17.73-11.1Z"/>
  <path class="cls-8" d="m208.41,285.22c-1.35.52-.85,2.57.58,2.37,3.75-.51,8.75-.26,15.07,1.93,4.06,1.41,7.1,3.16,9.38,4.99,1.56,1.25,3.57-.96,2.09-2.31-2.6-2.38-6.14-4.2-10.39-5.68-6.6-2.29-11.79-3.19-16.73-1.3Z"/>
  <path class="cls-8" d="m268.92,292.3s-6.69,7.93-23.39,4.13c-4.41-1-7.74-2.5-10.25-4.16-1.66-1.09-3.37,1.3-1.8,2.51,2.89,2.23,6.74,3.72,11.31,4.76,10.53,2.4,17.34,1.85,24.13-7.24Z"/>
  <path class="cls-8" d="m229.24,311.85s-3.52-4.79.84-13.6c1.15-2.32,2.43-3.98,3.7-5.16.83-.78-.27-2.06-1.16-1.34-1.63,1.31-2.98,3.26-4.17,5.67-2.75,5.55-3.36,9.42.79,14.43Z"/>
  <path class="cls-8" d="m245.85,314.99s5.21-.49,8.44-8.49c.85-2.11,1.19-3.92,1.22-5.44.02-1,1.51-1.02,1.56-.02.09,1.84-.4,3.86-1.28,6.05-2.04,5.05-4.22,7.71-9.94,7.91Z"/>
  <path class="cls-8" d="m265.86,318.39s-4.37,1.3-9.59-4.12c-1.38-1.43-2.24-2.78-2.76-4-.34-.8-1.55-.34-1.27.49.53,1.51,1.58,2.99,3.01,4.47,3.29,3.42,5.92,4.86,10.61,3.15Z"/>
  <path class="cls-8" d="m284.94,314.39s-1.21-8.49-14.59-13.14c-3.53-1.23-6.52-1.63-9.01-1.57-1.64.04-1.8-2.39-.16-2.55,3-.3,6.35.34,10.01,1.62,8.43,2.93,12.96,6.29,13.74,15.64Z"/>
  <path class="cls-8" d="m301.26,296.72s-3.01,6.3-14.53,6.67c-3.04.1-5.47-.31-7.39-.97-1.26-.43-1.98,1.42-.75,1.94,2.26.96,5.02,1.28,8.18,1.18,7.27-.23,11.61-1.74,14.49-8.82Z"/>
  <path class="cls-8" d="m214.08,356.49c.95.47,1.81-.83.99-1.5-2.15-1.76-4.52-4.58-6.51-9.08-1.27-2.89-1.86-5.41-2.01-7.55-.11-1.47-2.3-1.44-2.29.03.02,2.59.81,5.41,2.15,8.44,2.07,4.7,4.18,7.95,7.68,9.66Z"/>
  <path class="cls-8" d="m187.58,320.36s7.62-.37,13.94,10.53c1.67,2.88,2.53,5.42,2.89,7.6.24,1.44,2.39,1.17,2.25-.29-.25-2.67-1.37-5.49-3.1-8.48-3.99-6.87-7.69-10.26-15.98-9.37Z"/>
  <path class="cls-8" d="m217.99,331.94s-.82,4.3-7.74,6.36c-1.83.54-3.36.68-4.63.59-.83-.06-.97,1.17-.14,1.29,1.52.22,3.25-.03,5.14-.59,4.37-1.3,6.75-2.91,7.37-7.65Z"/>
  <path class="cls-8" d="m211.36,321.42s-2.87-2.56-8.8-.29c-1.56.6-2.71,1.32-3.54,2.07-.55.49-1.31-.3-.79-.83.94-.97,2.28-1.72,3.9-2.34,3.74-1.43,6.26-1.59,9.23,1.39Z"/>
  <path class="cls-8" d="m203.16,308.94s2.89,1.7,2.58,7.22c-.08,1.46-.38,2.6-.77,3.49-.26.59.6,1,.9.44.55-1.04.82-2.35.9-3.86.19-3.48-.35-5.62-3.61-7.29Z"/>
  <path class="cls-8" d="m191.46,300.67s-3.96,4.9.23,14.43c1.11,2.51,2.38,4.33,3.67,5.64.84.86-.39,2.16-1.29,1.36-1.66-1.47-3-3.59-4.15-6.2-2.64-6.01-3.1-10.13,1.54-15.23Z"/>
  <path class="cls-8" d="m173.76,300.73s4.9-1.54,10.87,4.49c1.58,1.59,2.57,3.1,3.18,4.46.4.9,1.75.35,1.42-.57-.62-1.7-1.83-3.34-3.46-4.99-3.76-3.8-6.75-5.38-12.01-3.38Z"/>
  <path class="cls-17" d="m241.96,179.81c-1.54,1.3.05,3.77,1.85,2.86,4.7-2.39,11.4-4.35,20.74-4.35,6,0,10.81.91,14.65,2.28,2.64.94,4.26-2.9,1.7-4.01-4.52-1.95-10.02-2.72-16.3-2.72-9.75,0-16.99,1.19-22.63,5.95Z"/>
  <path class="cls-17" d="m324.94,161.42s-5.17,13.51-28.93,16.16c-6.27.7-11.34.25-15.41-.79-2.68-.68-3.85,3.26-1.22,4.13,4.83,1.61,10.59,1.81,17.09,1.09,14.97-1.67,23.69-5.51,28.48-20.59Z"/>
  <path class="cls-17" d="m281.61,205.36s-6.84-4.7-5.12-18.3c.45-3.59,1.39-6.36,2.51-8.49.74-1.4-1.3-2.58-2.14-1.24-1.55,2.48-2.43,5.66-2.9,9.38-1.08,8.57-.12,13.95,7.65,18.65Z"/>
  <path class="cls-17" d="m304.94,201.89s6.64-3.03,7.22-15.06c.16-3.17-.23-5.71-.88-7.73-.43-1.33,1.52-2.04,2.04-.75.96,2.38,1.24,5.27,1.08,8.56-.37,7.58-2.03,12.09-9.47,14.97Z"/>
  <path class="cls-17" d="m332.87,197.2s-5.16,3.72-14.52-1.03c-2.47-1.25-4.23-2.64-5.47-4-.82-.9-2.2.27-1.45,1.22,1.39,1.75,3.45,3.22,6.01,4.52,5.9,2.99,10.03,3.69,15.42-.7Z"/>
  <path class="cls-17" d="m356.17,183.19s-5.49-10.63-25.24-10.63c-5.21,0-9.34.83-12.59,2.06-2.14.81-3.46-2.32-1.38-3.28,3.82-1.76,8.53-2.46,13.94-2.46,12.45,0,19.96,2.35,25.28,14.31Z"/>
  <path class="cls-17" d="m369.58,152.43s-1.07,9.68-16.1,15.45c-3.96,1.52-7.35,2.09-10.18,2.11-1.86.01-1.95,2.78-.1,2.9,3.42.23,7.21-.62,11.32-2.2,9.47-3.63,14.5-7.62,15.05-18.26Z"/>
  <path class="cls-9" d="m275.9,432.14c-1.84,13.44-8.31,11.25-16.73,10.21s-23.09-8.35-22.27-15.03c.83-6.68,16.84-10.19,25.26-9.15,8.41,1.04,15.31,2.5,13.74,13.97Z"/>
  <path class="cls-16" d="m208.48,430.13l-2.07,16.68-18.24-2.26h-.02c-1.64.23-3.33.25-5.04.04l-46.06-5.69c-10.6-1.32-18.17-11.06-16.87-21.64l.98-7.85c1.26-10.29,10.5-17.75,20.73-16.96l.08-.67,70.17,8.68-2.2,17.81,31.38,3.87-1.47,11.88-31.37-3.88Z"/>
  <ellipse class="cls-3" cx="298.95" cy="439.06" rx="12.83" ry="7.84" transform="translate(-221.41 332.44) rotate(-44.17)"/>
  <ellipse class="cls-20" cx="274.4" cy="458.46" rx="28.83" ry="14.41"/>
  <ellipse class="cls-3" cx="312.73" cy="421.34" rx="14.57" ry="9.55" transform="translate(-205.17 337.03) rotate(-44.17)"/>
  <path class="cls-7" d="m441.62,450.84l-81.45,6.76c-12.54,1.03-23.65-8.36-24.68-20.9l-.16-1.96h-.08c-9.31.78-17.56-6.2-18.33-15.51l-.92-11.1c-.78-9.31,6.21-17.58,15.52-18.33h.08s-.16-1.82-.16-1.82c-1.05-12.54,8.36-23.65,20.88-24.68l81.47-6.76c12.52-1.05,23.63,8.35,24.66,20.88l4.04,48.74c1.05,12.52-8.35,23.63-20.88,24.68Z"/>
  <rect class="cls-1" x="387.69" y="349.19" width="5.84" height="46.75" rx="1.5" ry="1.5" transform="translate(59.58 798.95) rotate(-95.82)"/>
</svg>