<?xml version="1.0" encoding="UTF-8"?>
<svg xmlns="http://www.w3.org/2000/svg" xmlns:xlink="http://www.w3.org/1999/xlink" viewBox="0 0 584 584">
  <defs>
    <style>
      .cls-1 {
        fill: #4d4d4d;
      }

      .cls-1, .cls-2, .cls-3, .cls-4, .cls-5, .cls-6 {
        stroke-width: 0px;
      }

      .cls-2 {
        fill: url(#linear-gradient);
      }

      .cls-3 {
        fill: #c1272d;
      }

      .cls-4 {
        fill: #ed1c24;
      }

      .cls-5 {
        fill: #e6e6e6;
      }

      .cls-6 {
        fill: url(#linear-gradient-2);
      }
    </style>
    <linearGradient id="linear-gradient" x1="91.49" y1="335.46" x2="385.14" y2="335.46" gradientUnits="userSpaceOnUse">
      <stop offset=".06" stop-color="#008c42"/>
      <stop offset=".78" stop-color="#17bf74"/>
    </linearGradient>
    <linearGradient id="linear-gradient-2" x1="195.38" y1="426.64" x2="489.03" y2="426.64" gradientTransform="translate(211.48 -287.54) rotate(20.44)" xlink:href="#linear-gradient"/>
  </defs>
  <g id="Layer_1" data-name="Layer 1">
    <circle class="cls-4" cx="292" cy="292" r="292"/>
    <circle class="cls-3" cx="292.71" cy="291.79" r="260.64"/>
  </g>
  <g id="Layer_2" data-name="Layer 2">
    <ellipse class="cls-1" cx="384.58" cy="460.36" rx="5" ry="17"/>
    <path class="cls-1" d="m348.17,426.52c-57.61-32.66-62.49-66.9-81.52-120.12-5.55-15.53-4.4-9.95-7.95-20.66-2.07-6.24-.22-.59-1.67-5.28-4.99-10.38-10.08-20.08-12.44-32.33-.74-3.84-1.52-7.93-2.76-11.73-2.83.24-5.7.28-8.57.2-.22.05-.44.09-.66.13-5.44,1.03-10.98,1.04-16.5,1.12-10.66.15-21.41.39-32.06-.1-2.97-.14-5.84-.42-8.66-.83-2.81.82-5.52.49-8.34-.09-6.02,1.23-12.7-1.2-18.3-3.43-3.81-.47-7.5-1.18-10.79-2.32-6.46-1.02-11.24-4.51-16.73-7.86-.5-.3-1.01-.59-1.51-.88-2.35,2.1-6.6,6.1-8.37,7.92-11.54,11.94-21.77,23-30.4,36.7,0,0-.01-.01-.01-.01-.36.88-.76,1.76-1.14,2.63-.1.23-.24.44-.39.63-7.71,28.3-13.65,34.67,10.02,61.04,44.42,49.49,57.42,30.56,95.98,107.73,50.11,100.31,299.34,64.92,162.79-12.5Z"/>
    <path class="cls-5" d="m349.19,410.29c-56.15-32.22-60.91-65.99-79.45-118.48-5.41-15.32-4.29-9.82-7.75-20.37-2.02-6.16-.21-.58-1.63-5.21-4.86-10.24-9.83-19.81-12.13-31.88-.52-2.71-1.06-5.54-1.76-8.31-.93,1.52-2.54,2.59-4.54,3.35-1.92,2.29-4.42,3.71-7.17,4.6-.16,2.38-1.76,4.74-4.8,4.92-19.47,1.16-38.21.29-57.18-4.28-7.86-1.89-26.67-6.32-27.61-16.81-.29-.09-.6-.17-.88-.27-6.29-1.01-10.96-4.45-16.3-7.75-.49-.3-.98-.58-1.47-.87-2.29,2.08-6.43,6.01-8.16,7.81-10.78,11.28-20.37,21.77-28.56,34.51-.43,1.32-1.16,2.47-2.21,3.56,0,0-.02.01-.03.02-7.69,29.05-14.02,35.11,9.41,61.53,43.3,48.82,55.97,30.15,93.55,106.27,48.84,98.94,291.76,64.03,158.67-12.33Z"/>
    <path class="cls-2" d="m347.59,401.39c-53.53-31.23-58.06-63.97-75.75-114.86-5.16-14.86-4.09-9.52-7.39-19.76-.74-2.31-.94-2.92-.98-3.05.01,0-.04-.25-.57-2-4.64-9.93-9.37-19.21-11.57-30.91-.33-1.77-.67-3.61-1.07-5.44-1.35,1.1-2.77,2.11-4.31,2.98-4.63,2.62-9.85,3.9-14.86,5.54-12.97,4.26-26.32,5.12-39.92,4.16-12.59-.89-25.02-4.15-35.28-11.77-2.64-1.96-5.24-3.97-7.8-6.04-7.04-4.5-13.28-10.27-18.55-17.26-2.43-1.28-4.86-2.54-7.23-3.93-5.03-.77-8.74-1.8-8.74,12.3l-.53,1.41c-3.72,5.08-8.22,14.99-11.85,26.78-.93,3.03-1.75,5.99-2.44,8.82h-.01c-7.57,30.18-14.56,35.65,8.38,61.95,41.28,47.33,53.36,29.23,89.19,103.03,46.57,95.92,278.17,62.08,151.27-11.96Z"/>
    <path class="cls-5" d="m251.38,228.09c-43.55,16.31-72.8,24.28-137.8-22.72.26-4.62-.47-6.56,2.32-10.65,53.31,29.45,68.03,51.7,134.68,24.65,1,4-.68,5.33.8,8.72Z"/>
    <path class="cls-1" d="m273.71,287.58c-22.69,13.4-46.8,20.54-73.17,21.39-4.7.15-6.22-2.14-6.45-5.45-.49-.02,0,0,0,0-.23-3.31,1.42-6.27,5.8-6.4,24.58-.72,47.02-7.31,67.99-20.13,3.74-2.29,6.81-.47,8.33,2.38.33-.23,0,0,0,0,1.52,2.85,1.55,5.82-2.49,8.21Z"/>
    <path class="cls-1" d="m281.69,310.18c-22.69,13.4-46.8,20.54-73.17,21.39-4.7.15-6.22-2.14-6.45-5.45-.49-.02,0,0,0,0-.23-3.31,1.42-6.27,5.8-6.4,24.58-.72,47.02-7.31,67.99-20.13,3.74-2.29,6.81-.47,8.33,2.38.33-.23,0,0,0,0,1.52,2.85,1.55,5.82-2.49,8.21Z"/>
    <path class="cls-1" d="m289.12,331.49c-21.25,12.99-43.96,19.72-68.88,20.16-4.45.08-5.91-2.23-6.19-5.53-.47-.03,0,0,0,0-.27-3.3,1.24-6.22,5.39-6.28,23.24-.33,44.37-6.55,64-18.98,3.5-2.22,6.43-.36,7.92,2.5.31-.23,0,0,0,0,1.48,2.86,1.56,5.81-2.23,8.13Z"/>
    <path class="cls-1" d="m297.17,353.47c-20.33,12.72-42.13,19.2-66.13,19.37-4.28.03-5.72-2.28-6.02-5.58-.45-.03,0,0,0,0-.3-3.29,1.13-6.19,5.12-6.21,22.38-.08,42.66-6.06,61.44-18.24,3.35-2.17,6.19-.29,7.65,2.58.3-.22,0,0,0,0,1.46,2.87,1.56,5.81-2.06,8.08Z"/>
    <ellipse class="cls-1" cx="476.54" cy="399.88" rx="17" ry="5" transform="translate(-64.59 706.75) rotate(-69.56)"/>
    <path class="cls-1" d="m454.25,355.45c-42.57-50.72-35.19-84.51-34.43-141.03.22-16.49-.65-10.86-.24-22.13.24-6.57,0-.63.28-5.53-1.05-11.47-2.43-22.34-.37-34.64.65-3.86,1.35-7.96,1.51-11.95-2.74-.76-5.43-1.73-8.1-2.8-.22-.03-.44-.07-.66-.11-5.46-.93-10.65-2.86-15.86-4.71-10.04-3.58-20.2-7.12-30.01-11.29-2.73-1.16-5.32-2.44-7.83-3.8-2.92-.21-5.34-1.47-7.78-2.99-6.07-.95-11.48-5.56-15.95-9.6-3.41-1.77-6.62-3.72-9.3-5.94-5.69-3.21-8.96-8.15-12.93-13.21-.36-.46-.74-.9-1.11-1.35-2.93,1.15-8.32,3.41-10.61,4.5-14.99,7.16-28.43,13.95-41.31,23.77,0,0,0-.01,0-.01-.65.7-1.33,1.38-1.99,2.07-.17.18-.37.33-.59.46-17.11,23.82-24.9,27.72-11.93,60.69,24.34,61.89,43.13,48.69,52.3,134.47,11.92,111.5,257.82,165.38,156.9,45.14Z"/>
    <path class="cls-5" d="m460.88,340.6c-41.36-49.8-34.02-83.11-33.07-138.77.28-16.24-.59-10.7-.15-21.8.26-6.48,0-.62.29-5.45-.98-11.29-2.29-22-.23-34.11.46-2.72.94-5.56,1.25-8.4-1.4,1.1-3.29,1.54-5.42,1.55-2.6,1.48-5.44,1.93-8.33,1.81-.98,2.18-3.3,3.82-6.21,2.93-18.65-5.71-35.91-13.07-52.08-23.98-6.7-4.52-22.79-15.23-20-25.39-.24-.19-.5-.37-.73-.56-5.54-3.14-8.71-8-12.57-12.96-.35-.45-.72-.89-1.08-1.33-2.87,1.15-8.13,3.39-10.37,4.47-14.04,6.81-26.69,13.29-38.81,22.37-.86,1.09-1.95,1.91-3.31,2.56-.01,0-.02,0-.03.01-17.35,24.54-25.4,28-12.67,60.94,23.52,60.87,41.92,47.8,50.54,132.25,11.21,109.77,251.02,161.9,152.98,43.86Z"/>
    <path class="cls-6" d="m462.48,331.7c-39.25-47.96-32.06-80.22-30.86-134.08.36-15.73-.51-10.35-.02-21.1.11-2.42.14-3.06.15-3.2,0,0,.05-.25.16-2.07-.88-10.93-2.07-21.27-.05-33,.31-1.78.63-3.61.9-5.47-1.65.56-3.33,1.01-5.07,1.29-5.25.83-10.59.21-15.86,0-13.65-.54-26.45-4.4-38.86-10.04-11.49-5.23-21.99-12.63-28.95-23.35-1.79-2.75-3.53-5.55-5.2-8.38-5.02-6.67-8.86-14.26-11.35-22.65-1.83-2.05-3.67-4.08-5.4-6.21-4.44-2.48-7.56-4.74-12.49,8.47l-.99,1.14c-5.26,3.46-12.94,11.18-20.46,20.95-1.93,2.51-3.73,5-5.37,7.41h0c-17.64,25.63-26.1,28.32-13.79,60.97,22.15,58.77,39.79,46.03,47.59,127.69,10.14,106.14,238.97,155.33,145.92,41.63Z"/>
    <path class="cls-5" d="m432.86,135.71c-46.5.07-76.7-2.68-121.19-69.42,1.86-4.24,1.85-6.32,5.89-9.17,39.67,46.21,45.69,72.2,117.59,70.14-.46,4.1-2.5,4.75-2.29,8.45Z"/>
    <path class="cls-1" d="m433.01,199.25c-25.94,4.63-51.03,2.9-76.03-5.51-4.46-1.5-5.08-4.17-4.14-7.36-.46-.19,0,0,0,0,.94-3.19,3.52-5.38,7.67-3.97,23.28,7.91,46.62,9.57,70.73,4.89,4.3-.84,6.54,1.94,6.97,5.14.39-.1,0,0,0,0,.43,3.2-.58,5.99-5.2,6.82Z"/>
    <path class="cls-1" d="m432.59,223.21c-25.94,4.63-51.03,2.9-76.03-5.51-4.46-1.5-5.08-4.17-4.14-7.36-.46-.19,0,0,0,0,.94-3.19,3.52-5.38,7.67-3.97,23.28,7.91,46.62,9.57,70.73,4.89,4.3-.84,6.54,1.94,6.97,5.14.39-.1,0,0,0,0,.43,3.2-.58,5.99-5.2,6.82Z"/>
    <path class="cls-1" d="m432.12,245.78c-24.45,4.75-48.08,3.13-71.59-5.17-4.19-1.48-4.76-4.15-3.87-7.34-.43-.19,0,0,0,0,.9-3.19,3.34-5.4,7.24-4.01,21.89,7.81,43.86,9.36,66.6,4.57,4.06-.86,6.16,1.91,6.54,5.11.37-.1,0,0,0,0,.39,3.2-.57,5.99-4.93,6.84Z"/>
    <path class="cls-1" d="m431.98,269.19c-23.49,4.82-46.18,3.28-68.73-4.95-4.02-1.47-4.56-4.14-3.69-7.33-.41-.19,0,0,0,0,.87-3.19,3.22-5.41,6.97-4.03,21,7.74,42.09,9.22,63.94,4.36,3.9-.87,5.91,1.89,6.27,5.09.36-.1,0,0,0,0,.36,3.2-.57,5.99-4.76,6.85Z"/>
  </g>
</svg>