<?xml version="1.0" encoding="UTF-8"?>
<svg xmlns="http://www.w3.org/2000/svg" xmlns:xlink="http://www.w3.org/1999/xlink" viewBox="0 0 1920 1080">
  <defs>
    <style>
      .cls-1 {
        fill: url(#radial-gradient-30);
      }

      .cls-1, .cls-2, .cls-3, .cls-4, .cls-5, .cls-6, .cls-7, .cls-8, .cls-9, .cls-10, .cls-11, .cls-12, .cls-13, .cls-14, .cls-15, .cls-16, .cls-17, .cls-18, .cls-19, .cls-20, .cls-21, .cls-22, .cls-23, .cls-24, .cls-25, .cls-26, .cls-27, .cls-28, .cls-29, .cls-30, .cls-31, .cls-32, .cls-33, .cls-34, .cls-35, .cls-36, .cls-37, .cls-38, .cls-39, .cls-40, .cls-41, .cls-42, .cls-43, .cls-44 {
        stroke-width: 0px;
      }

      .cls-2 {
        fill: url(#radial-gradient-16);
      }

      .cls-3 {
        fill: url(#linear-gradient);
      }

      .cls-4 {
        fill: url(#radial-gradient-40);
      }

      .cls-5 {
        fill: #badae9;
      }

      .cls-6 {
        fill: url(#radial-gradient-39);
      }

      .cls-7 {
        fill: url(#radial-gradient-8);
      }

      .cls-8 {
        fill: url(#radial-gradient-13);
      }

      .cls-9 {
        fill: url(#radial-gradient-12);
      }

      .cls-10 {
        fill: url(#radial-gradient-35);
      }

      .cls-11 {
        fill: url(#radial-gradient-27);
      }

      .cls-12 {
        fill: url(#radial-gradient-29);
      }

      .cls-13 {
        fill: #b3b3b3;
      }

      .cls-14 {
        fill: url(#radial-gradient-38);
      }

      .cls-15 {
        fill: url(#radial-gradient-22);
      }

      .cls-16 {
        fill: url(#radial-gradient-19);
      }

      .cls-17 {
        fill: url(#radial-gradient-20);
      }

      .cls-18 {
        fill: url(#radial-gradient-25);
      }

      .cls-19 {
        fill: url(#linear-gradient-2);
      }

      .cls-20 {
        fill: url(#radial-gradient-33);
      }

      .cls-21 {
        fill: url(#radial-gradient-17);
      }

      .cls-22 {
        fill: url(#radial-gradient-32);
      }

      .cls-23 {
        fill: url(#radial-gradient-21);
      }

      .cls-24 {
        fill: url(#radial-gradient-2);
      }

      .cls-25 {
        fill: url(#radial-gradient-7);
      }

      .cls-26 {
        fill: url(#radial-gradient-34);
      }

      .cls-27 {
        fill: url(#radial-gradient-26);
      }

      .cls-28 {
        fill: url(#radial-gradient-24);
      }

      .cls-29 {
        fill: url(#radial-gradient);
      }

      .cls-30 {
        fill: url(#radial-gradient-37);
      }

      .cls-31 {
        fill: url(#radial-gradient-31);
      }

      .cls-32 {
        fill: url(#radial-gradient-5);
        filter: url(#drop-shadow-1);
      }

      .cls-33 {
        fill: url(#radial-gradient-14);
      }

      .cls-34 {
        fill: url(#radial-gradient-18);
      }

      .cls-35 {
        fill: url(#radial-gradient-10);
      }

      .cls-36 {
        fill: url(#radial-gradient-28);
      }

      .cls-37 {
        fill: url(#radial-gradient-6);
      }

      .cls-38 {
        fill: url(#radial-gradient-15);
      }

      .cls-39 {
        fill: url(#radial-gradient-9);
      }

      .cls-40 {
        fill: url(#radial-gradient-3);
      }

      .cls-41 {
        fill: url(#radial-gradient-11);
      }

      .cls-42 {
        fill: url(#radial-gradient-36);
      }

      .cls-43 {
        fill: url(#radial-gradient-4);
      }

      .cls-44 {
        fill: url(#radial-gradient-23);
      }
    </style>
    <radialGradient id="radial-gradient" cx="960" cy="542" fx="960" fy="542" r="779.54" gradientUnits="userSpaceOnUse">
      <stop offset=".87" stop-color="#de85ad"/>
      <stop offset="1" stop-color="#e66ca2"/>
    </radialGradient>
    <radialGradient id="radial-gradient-2" cx="1180" cy="167" fx="1180" fy="167" r="47.63" gradientUnits="userSpaceOnUse">
      <stop offset=".72" stop-color="#b391ac"/>
      <stop offset="1" stop-color="#b378a8"/>
    </radialGradient>
    <radialGradient id="radial-gradient-3" cx="1189" cy="161.5" fx="1189" fy="161.5" r="53.77" gradientUnits="userSpaceOnUse">
      <stop offset=".87" stop-color="#de7ea9"/>
      <stop offset="1" stop-color="#e66ca2"/>
    </radialGradient>
    <radialGradient id="radial-gradient-4" cx="1134" cy="131" fx="1134" fy="131" r="21.02" xlink:href="#radial-gradient"/>
    <radialGradient id="radial-gradient-5" cx="966.89" cy="474.93" fx="966.89" fy="474.93" r="532.77" gradientUnits="userSpaceOnUse">
      <stop offset=".42" stop-color="#f7f7f7"/>
      <stop offset="1" stop-color="#cfcfcf"/>
    </radialGradient>
    <filter id="drop-shadow-1" filterUnits="userSpaceOnUse">
      <feOffset dx="15" dy="15"/>
      <feGaussianBlur result="blur" stdDeviation="40"/>
      <feFlood flood-color="#000" flood-opacity=".6"/>
      <feComposite in2="blur" operator="in"/>
      <feComposite in="SourceGraphic"/>
    </filter>
    <linearGradient id="linear-gradient" x1="401.61" y1="474.47" x2="1533.09" y2="474.47" gradientUnits="userSpaceOnUse">
      <stop offset=".12" stop-color="#dde9f0"/>
      <stop offset="1" stop-color="#cfe5f0"/>
    </linearGradient>
    <linearGradient id="linear-gradient-2" x1="401.19" y1="245.59" x2="590.34" y2="245.59" gradientUnits="userSpaceOnUse">
      <stop offset="0" stop-color="#c8dfe9"/>
      <stop offset=".53" stop-color="#bbd6e1"/>
      <stop offset="1" stop-color="#acccd9"/>
    </linearGradient>
    <radialGradient id="radial-gradient-6" cx="1260.59" cy="169.21" fx="1260.59" fy="169.21" r="8.97" gradientTransform="translate(0 -.79)" gradientUnits="userSpaceOnUse">
      <stop offset=".61" stop-color="#bddbe9"/>
      <stop offset="1" stop-color="#b6d0db"/>
    </radialGradient>
    <radialGradient id="radial-gradient-7" cx="839.15" cy="475.28" fx="839.15" fy="475.28" r="377.34" gradientTransform="translate(-5.96 8.71) rotate(-.72)" xlink:href="#radial-gradient-6"/>
    <radialGradient id="radial-gradient-8" cx="362.8" cy="120.41" fx="362.8" fy="120.41" r="58.41" gradientUnits="userSpaceOnUse">
      <stop offset="0" stop-color="#ffffed"/>
      <stop offset="1" stop-color="#ffe9b0" stop-opacity="0"/>
    </radialGradient>
    <radialGradient id="radial-gradient-9" cx="362.8" cy="120.41" fx="362.8" fy="120.41" r="34.65" gradientUnits="userSpaceOnUse">
      <stop offset="0" stop-color="#ffffed"/>
      <stop offset="1" stop-color="#ffe9b0"/>
    </radialGradient>
    <radialGradient id="radial-gradient-10" cx="1567.95" cy="120.93" fx="1567.95" fy="120.93" r="58.41" xlink:href="#radial-gradient-8"/>
    <radialGradient id="radial-gradient-11" cx="1567.95" cy="120.93" fx="1567.95" fy="120.93" r="34.65" xlink:href="#radial-gradient-9"/>
    <radialGradient id="radial-gradient-12" cx="1571.56" cy="826.59" fx="1571.56" fy="826.59" r="58.41" xlink:href="#radial-gradient-8"/>
    <radialGradient id="radial-gradient-13" cx="1571.56" cy="826.59" fx="1571.56" fy="826.59" r="34.65" xlink:href="#radial-gradient-9"/>
    <radialGradient id="radial-gradient-14" cx="363.21" cy="826.5" fx="363.21" fy="826.5" r="58.41" xlink:href="#radial-gradient-8"/>
    <radialGradient id="radial-gradient-15" cx="363.21" cy="826.5" fx="363.21" fy="826.5" xlink:href="#radial-gradient-9"/>
    <radialGradient id="radial-gradient-16" cx="996.22" cy="826.52" fx="996.22" fy="826.52" r="58.41" xlink:href="#radial-gradient-8"/>
    <radialGradient id="radial-gradient-17" cx="996.22" cy="826.52" fx="996.22" fy="826.52" r="34.65" xlink:href="#radial-gradient-9"/>
    <radialGradient id="radial-gradient-18" cx="995.11" cy="120.89" fx="995.11" fy="120.89" xlink:href="#radial-gradient-8"/>
    <radialGradient id="radial-gradient-19" cx="995.11" cy="120.89" fx="995.11" fy="120.89" r="34.65" xlink:href="#radial-gradient-9"/>
    <radialGradient id="radial-gradient-20" cx="680.23" cy="826.44" fx="680.23" fy="826.44" xlink:href="#radial-gradient-8"/>
    <radialGradient id="radial-gradient-21" cx="680.23" cy="826.44" fx="680.23" fy="826.44" r="34.65" xlink:href="#radial-gradient-9"/>
    <radialGradient id="radial-gradient-22" cx="1295.53" cy="826.44" fx="1295.53" fy="826.44" r="58.41" xlink:href="#radial-gradient-8"/>
    <radialGradient id="radial-gradient-23" cx="1295.53" cy="826.44" fx="1295.53" fy="826.44" r="34.65" xlink:href="#radial-gradient-9"/>
    <radialGradient id="radial-gradient-24" cx="680.23" cy="120.88" fx="680.23" fy="120.88" r="58.41" xlink:href="#radial-gradient-8"/>
    <radialGradient id="radial-gradient-25" cx="680.23" cy="120.88" fx="680.23" fy="120.88" r="34.65" xlink:href="#radial-gradient-9"/>
    <radialGradient id="radial-gradient-26" cx="1295.53" cy="120.91" fx="1295.53" fy="120.91" r="58.41" xlink:href="#radial-gradient-8"/>
    <radialGradient id="radial-gradient-27" cx="1295.53" cy="120.91" fx="1295.53" fy="120.91" r="34.65" xlink:href="#radial-gradient-9"/>
    <radialGradient id="radial-gradient-28" cx="362.86" cy="336.18" fx="362.86" fy="336.18" r="58.41" xlink:href="#radial-gradient-8"/>
    <radialGradient id="radial-gradient-29" cx="362.86" cy="336.18" fx="362.86" fy="336.18" r="34.65" xlink:href="#radial-gradient-9"/>
    <radialGradient id="radial-gradient-30" cx="362.86" cy="593.2" fx="362.86" fy="593.2" r="58.41" xlink:href="#radial-gradient-8"/>
    <radialGradient id="radial-gradient-31" cx="362.86" cy="593.2" fx="362.86" fy="593.2" r="34.65" xlink:href="#radial-gradient-9"/>
    <radialGradient id="radial-gradient-32" cx="1567.82" cy="336.3" fx="1567.82" fy="336.3" r="58.41" xlink:href="#radial-gradient-8"/>
    <radialGradient id="radial-gradient-33" cx="1567.82" cy="593.33" fx="1567.82" fy="593.33" r="58.41" xlink:href="#radial-gradient-8"/>
    <radialGradient id="radial-gradient-34" cx="1571.21" cy="336.18" fx="1571.21" fy="336.18" r="34.65" xlink:href="#radial-gradient-9"/>
    <radialGradient id="radial-gradient-35" cx="1571.21" cy="593.2" fx="1571.21" fy="593.2" r="34.65" xlink:href="#radial-gradient-9"/>
    <radialGradient id="radial-gradient-36" cx="1102.05" cy="474.96" fx="1102.05" fy="474.96" r="364.35" gradientUnits="userSpaceOnUse">
      <stop offset=".72" stop-color="#bfdce9"/>
      <stop offset="1" stop-color="#b4d1db"/>
    </radialGradient>
    <radialGradient id="radial-gradient-37" cx="1224.81" cy="160.8" fx="1224.81" fy="160.8" r=".43" gradientTransform="matrix(1,0,0,1,0,0)" xlink:href="#radial-gradient-6"/>
    <radialGradient id="radial-gradient-38" cx="1180.5" cy="160.32" fx="1180.5" fy="160.32" r="47.73" gradientTransform="matrix(1,0,0,1,0,0)" xlink:href="#radial-gradient-6"/>
    <radialGradient id="radial-gradient-39" cx="1246.7" cy="180.61" fx="1246.7" fy="180.61" r="4.02" gradientTransform="matrix(1,0,0,1,0,0)" xlink:href="#radial-gradient-6"/>
    <radialGradient id="radial-gradient-40" cx="1249.55" cy="160.22" fx="1249.55" fy="160.22" r="14.78" gradientTransform="matrix(1,0,0,1,0,0)" xlink:href="#radial-gradient-6"/>
  </defs>
  <g id="Wall_table" data-name="Wall &amp;amp; table">
    <rect class="cls-29" width="1920" height="1084"/>
    <rect class="cls-24" x="1113" y="160" width="134" height="14"/>
    <rect class="cls-40" x="1113" y="159" width="152" height="5"/>
    <rect class="cls-43" x="1106" y="121" width="56" height="20"/>
  </g>
  <g id="Mirror">
    <path class="cls-13" d="m1538.99,811.77H365c-6.6,0-12-5.4-12-12V149.97c0-6.6,5.4-12,12-12h1173.99c6.6,0,12,5.4,12,12v649.8c0,6.6-5.4,12-12,12Z"/>
    <rect class="cls-32" x="321.55" y="86.06" width="1290.69" height="777.75" rx="12" ry="12"/>
    <rect class="cls-13" x="391.65" y="151.7" width="1149.38" height="646.46" rx="12" ry="12"/>
    <rect class="cls-3" x="401.61" y="159.53" width="1131.48" height="629.88" rx="12" ry="12"/>
    <path class="cls-19" d="m432,305l-30.81,26.26v-159.35c0-6.6,5.4-12,12-12h177.15s-40.34,38.09-40.34,38.09c-88,83-32,31-118,107Z"/>
    <path class="cls-37" d="m1269.69,160.29l-18.69,16.6,19.18-16.61h-.49Z"/>
    <path class="cls-25" d="m1248,160.67l-8.98.16v-.55h-125.45l-.25-.28-.32.29L502.02,711.84l.13.14-41.05,34.36-52.49,44.22,72.47-.62,89.45.07.32-1.77.47.52L1182.62,236.92l-.34-.38v.6h-.73l.7-.63.03-.03,10.23-9.24,48.47-41.67,1.43-1.24,8.59-7.44,18.69-16.6-21.69.38Zm-23.13-.14l.48.53h-1.08s.6-.53.6-.53Zm-13.66,22.94l-.53-.91h.53v.91Z"/>
    <polygon class="cls-5" points="1182.28 237.09 1182.28 237.69 1181.55 237.69 1182.25 237.06 1182.28 237.09"/>
    <polygon class="cls-5" points="1431.72 194.41 1422.61 194.41 1422.61 187.73 1425.69 187.73 1431.72 194.41"/>
    <polygon class="cls-5" points="1447.64 212.06 1427.16 229.21 1438.79 206.65 1440.23 203.85 1442.76 206.65 1447.64 212.06"/>
    <polygon class="cls-5" points="1182.28 237.03 1182.28 237.69 1181.55 237.69 1182.25 237.06 1182.28 237.03"/>
    <polygon class="cls-5" points="1211.21 183.17 1211.21 184.08 1210.68 183.17 1211.21 183.17"/>
    <polygon class="cls-5" points="1225.35 161.69 1224.27 161.7 1224.87 161.16 1225.35 161.69"/>
    <polygon class="cls-5" points="1225.35 161.69 1224.27 161.7 1224.87 161.16 1225.35 161.69"/>
    <polygon class="cls-5" points="1211.21 183.17 1211.21 184.08 1210.68 183.17 1211.21 183.17"/>
    <polygon class="cls-5" points="1211.21 183.17 1211.21 184.08 1210.68 183.17 1211.21 183.17"/>
    <polygon class="cls-5" points="1447.64 212.06 1427.16 229.21 1438.79 206.65 1440.23 203.85 1445.1 194.41 1445.98 192.69 1445.98 206.65 1442.76 206.65 1447.64 212.06"/>
    <polygon class="cls-5" points="1425.69 187.73 1431.72 194.41 1422.61 194.41 1422.61 187.73 1425.69 187.73"/>
    <polygon class="cls-5" points="1445.98 192.69 1445.98 194.41 1445.1 194.41 1445.98 192.69"/>
    <polygon class="cls-5" points="1425.69 187.73 1431.72 194.41 1422.61 194.41 1422.61 187.73 1425.69 187.73"/>
    <polygon class="cls-5" points="1445.98 192.69 1445.98 206.65 1438.79 206.65 1440.23 203.85 1445.1 194.41 1445.98 192.69"/>
    <circle class="cls-7" cx="362.8" cy="120.41" r="58.41"/>
    <circle class="cls-39" cx="362.8" cy="120.41" r="34.65"/>
    <circle class="cls-35" cx="1567.95" cy="120.93" r="58.41"/>
    <circle class="cls-41" cx="1567.95" cy="120.93" r="34.65"/>
    <circle class="cls-9" cx="1571.56" cy="826.59" r="58.41"/>
    <circle class="cls-8" cx="1571.56" cy="826.59" r="34.65"/>
    <circle class="cls-33" cx="363.21" cy="826.5" r="58.41"/>
    <circle class="cls-38" cx="363.21" cy="826.5" r="34.65"/>
    <circle class="cls-2" cx="996.22" cy="826.52" r="58.41"/>
    <circle class="cls-21" cx="996.22" cy="826.52" r="34.65"/>
    <circle class="cls-34" cx="995.11" cy="120.89" r="58.41"/>
    <circle class="cls-16" cx="995.11" cy="120.89" r="34.65"/>
    <circle class="cls-17" cx="680.23" cy="826.44" r="58.41"/>
    <circle class="cls-23" cx="680.23" cy="826.44" r="34.65"/>
    <circle class="cls-15" cx="1295.53" cy="826.44" r="58.41"/>
    <circle class="cls-44" cx="1295.53" cy="826.44" r="34.65"/>
    <circle class="cls-28" cx="680.23" cy="120.88" r="58.41"/>
    <circle class="cls-18" cx="680.23" cy="120.88" r="34.65"/>
    <circle class="cls-27" cx="1295.53" cy="120.91" r="58.41"/>
    <circle class="cls-11" cx="1295.53" cy="120.91" r="34.65"/>
    <circle class="cls-36" cx="362.86" cy="336.18" r="58.41"/>
    <circle class="cls-12" cx="362.86" cy="336.18" r="34.65"/>
    <circle class="cls-1" cx="362.86" cy="593.2" r="58.41"/>
    <circle class="cls-31" cx="362.86" cy="593.2" r="34.65"/>
    <circle class="cls-22" cx="1567.82" cy="336.3" r="58.41"/>
    <circle class="cls-20" cx="1567.82" cy="593.33" r="58.41"/>
    <circle class="cls-26" cx="1571.21" cy="336.18" r="34.65"/>
    <circle class="cls-10" cx="1571.21" cy="593.2" r="34.65"/>
    <polygon class="cls-42" points="1479.58 185.3 1447.64 212.06 1447.88 212.33 812.07 785.72 809.54 789.68 744.07 789.83 694.44 790.18 730.35 760.01 792.94 707.77 793.08 707.9 1400.36 160.24 1400.36 159.91 1434.57 159.91 1434.47 159.74 1464.13 159.99 1509.65 159.95 1479.58 185.3"/>
    <polygon class="cls-30" points="1224.87 160.53 1225.35 161.06 1224.27 161.07 1224.87 160.53"/>
    <polygon class="cls-14" points="1248 159.81 1248 160.67 1239.02 160.83 1239.02 160.28 1113.57 160.28 1113.32 160 1113 160.29 1113 159.81 1248 159.81"/>
    <polygon class="cls-6" points="1242.41 184.33 1251 176.89 1243 184 1242.41 184.33"/>
    <polygon class="cls-4" points="1270.45 159.61 1269.69 160.29 1248 160.67 1239.02 160.83 1239.02 160.28 1228.73 160.28 1228.65 160.14 1248 159.89 1249.55 159.87 1270.45 159.61"/>
  </g>
</svg>