<?xml version="1.0" encoding="UTF-8"?>
<svg id="Layer_1" data-name="Layer 1" xmlns="http://www.w3.org/2000/svg" xmlns:xlink="http://www.w3.org/1999/xlink" viewBox="0 0 584 584">
  <defs>
    <style>
      .cls-1 {
        fill: #ffc7df;
        opacity: .7;
      }

      .cls-1, .cls-2, .cls-3, .cls-4, .cls-5, .cls-6, .cls-7, .cls-8, .cls-9 {
        stroke-width: 0px;
      }

      .cls-2 {
        fill: #22b573;
      }

      .cls-3 {
        fill: url(#linear-gradient);
      }

      .cls-4 {
        fill: #00ad45;
      }

      .cls-5 {
        fill: url(#linear-gradient-6);
      }

      .cls-6 {
        fill: url(#linear-gradient-5);
      }

      .cls-7 {
        fill: url(#linear-gradient-2);
      }

      .cls-8 {
        fill: url(#linear-gradient-3);
      }

      .cls-9 {
        fill: url(#linear-gradient-4);
      }
    </style>
    <linearGradient id="linear-gradient" x1="382.05" y1="434.22" x2="524.83" y2="434.22" gradientUnits="userSpaceOnUse">
      <stop offset="0" stop-color="#c227bd"/>
      <stop offset=".86" stop-color="#662d91"/>
    </linearGradient>
    <linearGradient id="linear-gradient-2" x1="292.41" y1="387.37" x2="333.97" y2="387.37" xlink:href="#linear-gradient"/>
    <linearGradient id="linear-gradient-3" x1="294.89" y1="268.66" x2="529.58" y2="268.66" gradientUnits="userSpaceOnUse">
      <stop offset="0" stop-color="#ff6eae"/>
      <stop offset=".57" stop-color="#d12689"/>
    </linearGradient>
    <linearGradient id="linear-gradient-4" x1="114.05" y1="320.98" x2="256.83" y2="320.98" gradientTransform="translate(82.35 69.24) rotate(11.33)" xlink:href="#linear-gradient"/>
    <linearGradient id="linear-gradient-5" x1="24.41" y1="274.12" x2="65.97" y2="274.12" gradientTransform="translate(82.35 69.24) rotate(11.33)" xlink:href="#linear-gradient"/>
    <linearGradient id="linear-gradient-6" x1="26.89" y1="155.42" x2="261.57" y2="155.42" gradientTransform="translate(82.35 69.24) rotate(11.33)" gradientUnits="userSpaceOnUse">
      <stop offset="0" stop-color="#ff6eae"/>
      <stop offset=".6" stop-color="#d12689"/>
    </linearGradient>
  </defs>
  <circle class="cls-4" cx="292" cy="292" r="292"/>
  <circle class="cls-2" cx="292.71" cy="291.79" r="260.64"/>
  <path class="cls-3" d="m391.19,472.39c50.63,9.35,73.5,11.23,124.21-.03,8.31-1.85,8.3-3.17,8.38-10.77.21-21.6,1.52-41.68.88-62.96-.22-7.49-62.54,4.56-69.26,5.7-40.99,6.95-21.85-8.81-62.87-15.75-6.73-1.14-10.15,1.44-10.37,8.93-.61,21.29,1.67,42.59.91,64.15-.27,7.59-.17,9.19,8.13,10.73Z"/>
  <path class="cls-7" d="m333.86,469.09c-18.34,1.96-24.25,1.36-41.44,0,2.47-54.64,3.52-110.01,3.56-164.69,11.85,0,23.7,0,35.54,0-.05,54.88,3.09,109.82,2.34,164.69Z"/>
  <path class="cls-8" d="m493.56,375.77c-44-23.29-55.73-56.86-73.6-87.13-5.22-8.84-7.1-13.08-7.46-15.22-1.27-3.57-2.05-7.37-1.93-11.09-.72-3.96-1.08-8-.65-11.87,0-5.15.04-10.25.49-15.36-.08-3.76-.1-7.77,0-12.34,5.1-31.49,11-84.7,16.2-110.42,5.21-25.72-.75,5.12,2.61-11.2-37.31.39-74.37-.72-111.49.75,3.25,23.6,7.86,45.66,9.36,69.84-1.15,16.9-.07,33.6.82,50.46.07.32.08.67.05,1.05.02.36.04.71.06,1.07-.08.24-.17.49-.26.74-.33,2.58-.76,5.1-1.6,7.5-.77,2.53-1.97,4.98-3.25,7.22-.2.35-.46.64-.74.89-1.43,2.17-3.86,5.82-4.95,7.49-7.09,10.9-14.4,20.99-18.79,32.97,0,.02-.18-.07-.19-.05-5.53,20.83-5.86,37.85,11.93,54.39,32,29.77,50.45-4.02,70.16,54.02,26.38,77.69,230.43,48.33,113.24-13.7Z"/>
  <path class="cls-9" d="m132.6,445.59c47.81,19.11,69.86,25.45,121.79,24.37,8.52-.18,8.76-1.48,10.33-8.92,4.45-21.14,9.67-40.57,13.23-61.56,1.25-7.39-62.22-7.81-69.04-8.01-41.56-1.24-19.69-12.93-58.55-27.8-6.37-2.44-10.24-.58-11.92,6.72-4.78,20.75-6.73,42.09-11.71,63.08-1.75,7.39-1.97,8.98,5.87,12.11Z"/>
  <path class="cls-6" d="m77.03,431.09c-18.36-1.68-24.05-3.43-40.64-8.14,13.16-53.09,25.06-107.18,35.84-160.79,11.62,2.32,23.23,4.65,34.85,6.98-10.83,53.8-18.54,108.29-30.05,161.95Z"/>
  <path class="cls-5" d="m251.95,370.96c-38.57-31.48-43.47-66.7-55.05-99.89-3.38-9.69-4.39-14.22-4.33-16.39-.54-3.75-.57-7.63.29-11.25.07-4.02.51-8.05,1.69-11.77,1.01-5.05,2.06-10.05,3.5-14.97.66-3.7,1.43-7.64,2.43-12.1,11.19-29.87,27.42-80.89,37.58-105.08,10.16-24.19-1.74,4.87,4.76-10.47-36.66-6.94-72.78-15.32-109.47-21.17-1.45,23.78-1.26,46.32-4.54,70.31-4.44,16.34-6.66,32.93-9.11,49.64,0,.32-.06.67-.15,1.04-.05.35-.1.71-.16,1.06-.13.22-.27.45-.4.67-.83,2.46-1.74,4.86-3.04,7.04-1.25,2.33-2.91,4.49-4.6,6.44-.26.3-.57.53-.9.72-1.83,1.85-4.92,4.95-6.32,6.38-9.1,9.29-18.24,17.75-24.9,28.64,0,.02-.17-.1-.17-.09-9.52,19.34-13.18,35.96,1.01,55.68,25.53,35.48,50.26,5.97,58.18,66.75,10.6,81.35,216.44,92.65,113.73,8.81Z"/>
  <rect class="cls-1" x="338.86" y="123.2" width="8.15" height="105.12" rx="4.07" ry="4.07"/>
  <rect class="cls-1" x="138.4" y="90.61" width="8.15" height="105.12" rx="4.07" ry="4.07" transform="translate(28.46 -23.55) rotate(10.49)"/>
</svg>