<?xml version="1.0" encoding="UTF-8"?>
<svg id="Layer_1" data-name="Layer 1" xmlns="http://www.w3.org/2000/svg" viewBox="0 0 584 584">
  <defs>
    <style>
      .cls-1 {
        fill: #22b573;
      }

      .cls-1, .cls-2, .cls-3, .cls-4, .cls-5, .cls-6, .cls-7, .cls-8, .cls-9 {
        stroke-width: 0px;
      }

      .cls-2 {
        fill: #00ad45;
      }

      .cls-3 {
        fill: #a67c52;
      }

      .cls-5 {
        fill: #f15a24;
      }

      .cls-6 {
        fill: #42210b;
      }

      .cls-7 {
        fill: #9e005d;
      }

      .cls-8 {
        fill: #fbb03b;
      }

      .cls-9 {
        fill: #c69c6d;
      }
    </style>
  </defs>
  <circle class="cls-2" cx="292" cy="292" r="292"/>
  <circle class="cls-1" cx="292.71" cy="291.79" r="260.64"/>
  <ellipse class="cls-4" cx="144.64" cy="465.27" rx="69.62" ry="61.69"/>
  <ellipse class="cls-4" cx="128.75" cy="325.09" rx="114.5" ry="90.5"/>
  <ellipse class="cls-4" cx="157.75" cy="230.09" rx="114.5" ry="90.5"/>
  <path class="cls-4" d="m20.25,403.09c-22,85.5,56.41,94.5,126,94.5s126-42.31,126-94.5-56.41-94.5-126-94.5-112.99,43.96-126,94.5Z"/>
  <ellipse class="cls-4" cx="427.14" cy="465.09" rx="69.62" ry="61.69"/>
  <ellipse class="cls-4" cx="443.02" cy="316.9" rx="114.5" ry="90.5"/>
  <ellipse class="cls-4" cx="414.02" cy="221.9" rx="114.5" ry="90.5"/>
  <ellipse class="cls-4" cx="293.52" cy="412.26" rx="194" ry="99.86"/>
  <path class="cls-4" d="m551.52,394.9c22,85.5-56.41,94.5-126,94.5s-126-42.31-126-94.5,56.41-94.5,126-94.5,112.99,43.96,126,94.5Z"/>
  <ellipse class="cls-4" cx="373.52" cy="155.4" rx="114" ry="128"/>
  <ellipse class="cls-4" cx="215.52" cy="155.4" rx="114" ry="128"/>
  <polygon class="cls-9" points="332.31 426.47 259.29 426.47 232.52 317.4 361.52 317.4 332.31 426.47"/>
  <path class="cls-9" d="m409.52,210.4c0,77.32-50.08,169-112.48,169s-113.52-91.68-113.52-169,50.59-140,113-140,113,62.68,113,140Z"/>
  <polygon class="cls-9" points="257.75 385.75 334.73 386.14 368.55 489.9 223.58 490.42 257.75 385.75"/>
  <polygon class="cls-9" points="442.02 508.98 152.52 509.4 250.52 438.4 343.52 438.4 442.02 508.98"/>
  <path class="cls-9" d="m441.52,510.4c-6.79,9.05-66.19,32-146,32s-137-22-143-32c-4.55-7.58,64.69-16,144.5-16s150.5,8,144.5,16Z"/>
  <path class="cls-3" d="m345.4,359.4c-2.56,2.54-21.06,22-46.42,22s-47.89-18.46-51.46-22c-7.06-7,25.09,10,50.45,10s49.45-12,47.43-10Z"/>
  <path class="cls-3" d="m442.52,509.4c-5,8-70.71,40-145,40s-132.68-29.55-143-37c-18-13,67.71,25,142,25s149.31-33.29,146-28Z"/>
  <path class="cls-3" d="m228.22,127.76h0c6.6.18-4.85,66.17-5.04,73l.4,21.42c-.19,6.82,8.4,78.73,1.8,78.54h0c-6.6-.18-27.04-70.33-24.52-88.99l.42-15.15c2.45-15.99,20.34-69,26.94-68.82Z"/>
  <path class="cls-4" d="m417.52,112.4c29,29-56,165-62,50-3.87-74.23-58.74-22.58-62-50-5-42,1.76-67,36-67s68.47,47.47,88,67Z"/>
  <path class="cls-4" d="m170.6,112.06c-29,29,56,165,62,50,3.87-74.23,58.74-22.58,62-50,5-42-1.76-67-36-67s-68.47,47.47-88,67Z"/>
  <path class="cls-4" d="m461.52,265.67c0,53.72,17.73,67.91,0,81.16-31.5,23.54-77.5-19.82-83-73.11-8-77.45,24.79-105.33,45.5-105.33s37.5,43.55,37.5,97.27Z"/>
  <path class="cls-4" d="m128.54,274.76c0,52.44-17.73,66.29,0,79.23,31.5,22.98,77.5-19.35,83-71.37,8-75.6-24.79-102.82-45.5-102.82s-37.5,42.51-37.5,94.96Z"/>
  <path class="cls-7" d="m444.47,135.13c-.03,1.42-.43,2.83-1.19,4.06-.44.71-.99,1.37-1.67,1.93l-1.12.93-4.97,4.16v-7.48c-.71-.9-1.25-1.94-1.58-3.06l-7.44-2.77,4.85-4.06c1.23-1.02,2.69-1.62,4.18-1.79.05,0,.11-.02.16-.02.26-.03.52-.04.78-.04,1.75,0,3.48.56,4.91,1.67.44.35.86.74,1.23,1.19.15.18.3.37.44.56.16.25.32.5.45.75.28.51.5,1.04.65,1.58.06.2.11.41.15.62.13.58.18,1.18.17,1.77Z"/>
  <path class="cls-7" d="m445.38,129.07c-.03.5-.12,1-.25,1.49h-.01c-.06.23-.13.45-.21.67-.2.54-.46,1.04-.76,1.51-.14.23-.3.45-.46.66-.15.18-.31.37-.48.53-.27.29-.56.55-.87.79-1.81,1.41-4.19,2.02-6.53,1.54-.4-.08-.8-.19-1.2-.34l-.67-.25-7.44-2.77,4.85-4.06c1.23-1.02,2.69-1.62,4.18-1.79.04-.05.08-.1.13-.15-.09-.49-.14-.99-.14-1.5v-6.22l4.69,1.75c1.36.51,2.49,1.35,3.35,2.4.03.03.06.06.08.09,1.26,1.57,1.91,3.6,1.74,5.65Z"/>
  <path class="cls-7" d="m460.28,133.29l-8.12,3.03c-.1.04-.2.07-.31.1-.12.3-.26.59-.41.88.05.36.08.73.08,1.1v8.42l-5.77-4.82-.58-.49c-.8-.67-1.43-1.45-1.89-2.32-.75-1.37-1.07-2.93-.94-4.47.03-.46.11-.93.23-1.38.02-.07.03-.14.06-.2.19-.69.48-1.35.87-1.98.15-.25.33-.5.52-.74.04-.06.09-.12.14-.18.37-.44.78-.84,1.22-1.17,1.43-1.12,3.18-1.69,4.93-1.69.15,0,.31,0,.46.02.16,0,.33.02.49.04,1.49.17,2.94.77,4.17,1.79l4.85,4.06Z"/>
  <path class="cls-7" d="m460.28,133.29l-8.12,3.03c-.1.04-.2.07-.31.1-.18.07-.36.12-.54.16-2.43.61-4.95.02-6.84-1.45-.46-.35-.88-.75-1.26-1.2-.15-.18-.29-.36-.43-.56-.05-.07-.1-.15-.15-.23-.3-.47-.56-.98-.76-1.52-.12-.32-.22-.65-.29-.98-.16-.66-.23-1.33-.2-1.98.04-1.95.8-3.82,2.1-5.25.03-.03.06-.05.08-.08.81-.86,1.83-1.56,3.01-2l4.95-1.85v5.92c0,.71-.09,1.39-.26,2.04,1.49.17,2.94.77,4.17,1.79l4.85,4.06Z"/>
  <path class="cls-7" d="m451.52,138.4v8.42l-5.77-4.82c-.86.26-1.78.4-2.73.4-.88,0-1.73-.12-2.53-.35l-4.97,4.16v-7.81c0-.74.1-1.46.29-2.14.5-1.78,1.6-3.31,3.06-4.36.8-.58,1.72-1.01,2.71-1.26.47-.12.96-.2,1.47-.23.15-.01.31-.01.47-.01.17,0,.34.01.5.02.37.02.74.07,1.1.14h.01c1.11.23,2.15.7,3.04,1.34.36.26.69.54,1,.85,1.04,1.04,1.79,2.36,2.14,3.83.05.23.1.47.13.72.05.36.08.73.08,1.1Z"/>
  <path class="cls-7" d="m451.52,119.48v5.92c0,.71-.09,1.39-.26,2.04-.05.16-.1.32-.15.47-.54,1.62-1.58,3.01-2.94,3.99-1.11.8-2.43,1.32-3.87,1.46-.2.02-.4.03-.61.04h-.17c-.25,0-.5-.01-.74-.03-.07-.01-.14-.02-.21-.03-1.37-.16-2.63-.67-3.7-1.44-1.6-1.15-2.77-2.88-3.18-4.87-.01-.04-.02-.09-.03-.13-.09-.49-.14-.99-.14-1.5v-6.22l4.69,1.75c1.36.51,2.49,1.35,3.35,2.4.81-.86,1.83-1.56,3.01-2l4.95-1.85Z"/>
  <path class="cls-7" d="m435.52,138.73v7.48l-2.35,1.96c-3.37,2.82-8.44,2.37-11.27-1-2.82-3.38-2.37-8.45,1.01-11.27l3.59-3,7.44,2.77c.33,1.12.87,2.16,1.58,3.06Z"/>
  <path class="cls-7" d="m431.35,128.84l-4.85,4.06-2.19-.82c-3.21-1.2-5.2-4.27-5.2-7.52,0-.92.16-1.86.5-2.77,1.54-4.13,6.17-6.24,10.29-4.7l5.62,2.09v6.22c0,.51.05,1.01.14,1.5-.05.05-.09.1-.13.15-1.49.17-2.95.77-4.18,1.79Z"/>
  <path class="cls-7" d="m440.21,120.93l-4.69-1.75v-4.78c0-4.4,3.6-8,8-8,2.2,0,4.2.9,5.65,2.35,1.45,1.45,2.35,3.45,2.35,5.65v5.08l-4.95,1.85c-1.18.44-2.2,1.14-3.01,2-.86-1.05-1.99-1.89-3.35-2.4Z"/>
  <path class="cls-7" d="m445.75,142l5.77,4.82v2.58c0,4.4-3.6,8-8,8s-8-3.6-8-8v-3.19l4.97-4.16c.8.23,1.65.35,2.53.35.95,0,1.87-.14,2.73-.4Z"/>
  <path class="cls-7" d="m464.88,147.56c-2.83,3.38-7.9,3.83-11.27,1.01l-2.09-1.75v-8.42c0-.37-.03-.74-.08-1.1.15-.29.29-.58.41-.88.11-.03.21-.06.31-.1l8.12-3.03,3.59,3c3.38,2.82,3.83,7.9,1.01,11.27Z"/>
  <path class="cls-7" d="m451.52,125.4v-5.92l5.36-2c4.12-1.54,8.75.58,10.29,4.7.34.91.5,1.85.5,2.77,0,3.25-1.99,6.32-5.2,7.52l-2.19.82-4.85-4.06c-1.23-1.02-2.68-1.62-4.17-1.79.17-.65.26-1.33.26-2.04Z"/>
  <path class="cls-8" d="m452.52,132.9c0,1.24-.24,2.43-.67,3.52-.12.3-.26.59-.41.88-1.17,2.24-3.22,3.96-5.69,4.7-.86.26-1.78.4-2.73.4-.88,0-1.73-.12-2.53-.35-2-.54-3.74-1.73-4.97-3.32-.71-.9-1.25-1.94-1.58-3.06-.28-.87-.42-1.81-.42-2.77,0-2.2.75-4.24,2.01-5.85.04-.05.08-.1.13-.15,1.74-2.14,4.39-3.5,7.36-3.5.15,0,.31,0,.46.01.05,0,.11,0,.16,0,2.94.19,5.52,1.72,7.13,3.98.12.17.23.34.34.51.89,1.45,1.41,3.16,1.41,4.99Z"/>
  <path class="cls-7" d="m189.56,160.26c-.03,1.42-.43,2.83-1.19,4.06-.44.71-.99,1.37-1.67,1.93l-1.12.93-4.97,4.16v-7.48c-.71-.9-1.25-1.94-1.58-3.06l-7.44-2.77,4.85-4.06c1.23-1.02,2.69-1.62,4.18-1.79.05,0,.11-.02.16-.02.26-.03.52-.04.78-.04,1.75,0,3.48.56,4.91,1.67.44.35.86.74,1.23,1.19.15.18.3.37.44.56.16.25.32.5.45.75.28.51.5,1.04.65,1.58.06.2.11.41.15.62.13.58.18,1.18.17,1.77Z"/>
  <path class="cls-7" d="m190.47,154.2c-.03.5-.12,1-.25,1.49h-.01c-.06.23-.13.45-.21.67-.2.54-.46,1.04-.76,1.51-.14.23-.3.45-.46.66-.15.18-.31.37-.48.53-.27.29-.56.55-.87.79-1.81,1.41-4.19,2.02-6.53,1.54-.4-.08-.8-.19-1.2-.34l-.67-.25-7.44-2.77,4.85-4.06c1.23-1.02,2.69-1.62,4.18-1.79.04-.05.08-.1.13-.15-.09-.49-.14-.99-.14-1.5v-6.22l4.69,1.75c1.36.51,2.49,1.35,3.35,2.4.03.03.06.06.08.09,1.26,1.57,1.91,3.6,1.74,5.65Z"/>
  <path class="cls-7" d="m205.37,158.42l-8.12,3.03c-.1.04-.2.07-.31.1-.12.3-.26.59-.41.88.05.36.08.73.08,1.1v8.42l-5.77-4.82-.58-.49c-.8-.67-1.43-1.45-1.89-2.32-.75-1.37-1.07-2.93-.94-4.47.03-.46.11-.93.23-1.38.02-.07.03-.14.06-.2.19-.69.48-1.35.87-1.98.15-.25.33-.5.52-.74.04-.06.09-.12.14-.18.37-.44.78-.84,1.22-1.17,1.43-1.12,3.18-1.69,4.93-1.69.15,0,.31,0,.46.02.16,0,.33.02.49.04,1.49.17,2.94.77,4.17,1.79l4.85,4.06Z"/>
  <path class="cls-7" d="m205.37,158.42l-8.12,3.03c-.1.04-.2.07-.31.1-.18.07-.36.12-.54.16-2.43.61-4.95.02-6.84-1.45-.46-.35-.88-.75-1.26-1.2-.15-.18-.29-.36-.43-.56-.05-.07-.1-.15-.15-.23-.3-.47-.56-.98-.76-1.52-.12-.32-.22-.65-.29-.98-.16-.66-.23-1.33-.2-1.98.04-1.95.8-3.82,2.1-5.25.03-.03.06-.05.08-.08.81-.86,1.83-1.56,3.01-2l4.95-1.85v5.92c0,.71-.09,1.39-.26,2.04,1.49.17,2.94.77,4.17,1.79l4.85,4.06Z"/>
  <path class="cls-7" d="m196.61,163.53v8.42l-5.77-4.82c-.86.26-1.78.4-2.73.4-.88,0-1.73-.12-2.53-.35l-4.97,4.16v-7.81c0-.74.1-1.46.29-2.14.5-1.78,1.6-3.31,3.06-4.36.8-.58,1.72-1.01,2.71-1.26.47-.12.96-.2,1.47-.23.15-.01.31-.01.47-.01.17,0,.34.01.5.02.37.02.74.07,1.1.14h.01c1.11.23,2.15.7,3.04,1.34.36.26.69.54,1,.85,1.04,1.04,1.79,2.36,2.14,3.83.05.23.1.47.13.72.05.36.08.73.08,1.1Z"/>
  <path class="cls-7" d="m196.61,144.61v5.92c0,.71-.09,1.39-.26,2.04-.05.16-.1.32-.15.47-.54,1.62-1.58,3.01-2.94,3.99-1.11.8-2.43,1.32-3.87,1.46-.2.02-.4.03-.61.04h-.17c-.25,0-.5-.01-.74-.03-.07-.01-.14-.02-.21-.03-1.37-.16-2.63-.67-3.7-1.44-1.6-1.15-2.77-2.88-3.18-4.87-.01-.04-.02-.09-.03-.13-.09-.49-.14-.99-.14-1.5v-6.22l4.69,1.75c1.36.51,2.49,1.35,3.35,2.4.81-.86,1.83-1.56,3.01-2l4.95-1.85Z"/>
  <path class="cls-7" d="m180.61,163.86v7.48l-2.35,1.96c-3.37,2.82-8.44,2.37-11.27-1-2.82-3.38-2.37-8.45,1.01-11.27l3.59-3,7.44,2.77c.33,1.12.87,2.16,1.58,3.06Z"/>
  <path class="cls-7" d="m176.44,153.97l-4.85,4.06-2.19-.82c-3.21-1.2-5.2-4.27-5.2-7.52,0-.92.16-1.86.5-2.77,1.54-4.13,6.17-6.24,10.29-4.7l5.62,2.09v6.22c0,.51.05,1.01.14,1.5-.05.05-.09.1-.13.15-1.49.17-2.95.77-4.18,1.79Z"/>
  <path class="cls-7" d="m185.3,146.06l-4.69-1.75v-4.78c0-4.4,3.6-8,8-8,2.2,0,4.2.9,5.65,2.35,1.45,1.45,2.35,3.45,2.35,5.65v5.08l-4.95,1.85c-1.18.44-2.2,1.14-3.01,2-.86-1.05-1.99-1.89-3.35-2.4Z"/>
  <path class="cls-7" d="m190.84,167.13l5.77,4.82v2.58c0,4.4-3.6,8-8,8s-8-3.6-8-8v-3.19l4.97-4.16c.8.23,1.65.35,2.53.35.95,0,1.87-.14,2.73-.4Z"/>
  <path class="cls-8" d="m197.61,158.03c0,1.24-.24,2.43-.67,3.52-.12.3-.26.59-.41.88-1.17,2.24-3.22,3.96-5.69,4.7-.86.26-1.78.4-2.73.4-.88,0-1.73-.12-2.53-.35-2-.54-3.74-1.73-4.97-3.32-.71-.9-1.25-1.94-1.58-3.06-.28-.87-.42-1.81-.42-2.77,0-2.2.75-4.24,2.01-5.85.04-.05.08-.1.13-.15,1.74-2.14,4.39-3.5,7.36-3.5.15,0,.31,0,.46.01.05,0,.11,0,.16,0,2.94.19,5.52,1.72,7.13,3.98.12.17.23.34.34.51.89,1.45,1.41,3.16,1.41,4.99Z"/>
  <path class="cls-7" d="m512.56,304.26c-.03,1.42-.43,2.83-1.19,4.06-.44.71-.99,1.37-1.67,1.93l-1.12.93-4.97,4.16v-7.48c-.71-.9-1.25-1.94-1.58-3.06l-7.44-2.77,4.85-4.06c1.23-1.02,2.69-1.62,4.18-1.79.05,0,.11-.02.16-.02.26-.03.52-.04.78-.04,1.75,0,3.48.56,4.91,1.67.44.35.86.74,1.23,1.19.15.18.3.37.44.56.16.25.32.5.45.75.28.51.5,1.04.65,1.58.06.2.11.41.15.62.13.58.18,1.18.17,1.77Z"/>
  <path class="cls-7" d="m513.47,298.2c-.03.5-.12,1-.25,1.49h-.01c-.06.23-.13.45-.21.67-.2.54-.46,1.04-.76,1.51-.14.23-.3.45-.46.66-.15.18-.31.37-.48.53-.27.29-.56.55-.87.79-1.81,1.41-4.19,2.02-6.53,1.54-.4-.08-.8-.19-1.2-.34l-.67-.25-7.44-2.77,4.85-4.06c1.23-1.02,2.69-1.62,4.18-1.79.04-.05.08-.1.13-.15-.09-.49-.14-.99-.14-1.5v-6.22l4.69,1.75c1.36.51,2.49,1.35,3.35,2.4.03.03.06.06.08.09,1.26,1.57,1.91,3.6,1.74,5.65Z"/>
  <path class="cls-7" d="m528.37,302.42l-8.12,3.03c-.1.04-.2.07-.31.1-.12.3-.26.59-.41.88.05.36.08.73.08,1.1v8.42l-5.77-4.82-.58-.49c-.8-.67-1.43-1.45-1.89-2.32-.75-1.37-1.07-2.93-.94-4.47.03-.46.11-.93.23-1.38.02-.07.03-.14.06-.2.19-.69.48-1.35.87-1.98.15-.25.33-.5.52-.74.04-.06.09-.12.14-.18.37-.44.78-.84,1.22-1.17,1.43-1.12,3.18-1.69,4.93-1.69.15,0,.31,0,.46.02.16,0,.33.02.49.04,1.49.17,2.94.77,4.17,1.79l4.85,4.06Z"/>
  <path class="cls-7" d="m528.37,302.42l-8.12,3.03c-.1.04-.2.07-.31.1-.18.07-.36.12-.54.16-2.43.61-4.95.02-6.84-1.45-.46-.35-.88-.75-1.26-1.2-.15-.18-.29-.36-.43-.56-.05-.07-.1-.15-.15-.23-.3-.47-.56-.98-.76-1.52-.12-.32-.22-.65-.29-.98-.16-.66-.23-1.33-.2-1.98.04-1.95.8-3.82,2.1-5.25.03-.03.06-.05.08-.08.81-.86,1.83-1.56,3.01-2l4.95-1.85v5.92c0,.71-.09,1.39-.26,2.04,1.49.17,2.94.77,4.17,1.79l4.85,4.06Z"/>
  <path class="cls-7" d="m519.61,307.53v8.42l-5.77-4.82c-.86.26-1.78.4-2.73.4-.88,0-1.73-.12-2.53-.35l-4.97,4.16v-7.81c0-.74.1-1.46.29-2.14.5-1.78,1.6-3.31,3.06-4.36.8-.58,1.72-1.01,2.71-1.26.47-.12.96-.2,1.47-.23.15-.01.31-.01.47-.01.17,0,.34.01.5.02.37.02.74.07,1.1.14h.01c1.11.23,2.15.7,3.04,1.34.36.26.69.54,1,.85,1.04,1.04,1.79,2.36,2.14,3.83.05.23.1.47.13.72.05.36.08.73.08,1.1Z"/>
  <path class="cls-7" d="m519.61,288.61v5.92c0,.71-.09,1.39-.26,2.04-.05.16-.1.32-.15.47-.54,1.62-1.58,3.01-2.94,3.99-1.11.8-2.43,1.32-3.87,1.46-.2.02-.4.03-.61.04h-.17c-.25,0-.5-.01-.74-.03-.07-.01-.14-.02-.21-.03-1.37-.16-2.63-.67-3.7-1.44-1.6-1.15-2.77-2.88-3.18-4.87-.01-.04-.02-.09-.03-.13-.09-.49-.14-.99-.14-1.5v-6.22l4.69,1.75c1.36.51,2.49,1.35,3.35,2.4.81-.86,1.83-1.56,3.01-2l4.95-1.85Z"/>
  <path class="cls-7" d="m503.61,307.86v7.48l-2.35,1.96c-3.37,2.82-8.44,2.37-11.27-1-2.82-3.38-2.37-8.45,1.01-11.27l3.59-3,7.44,2.77c.33,1.12.87,2.16,1.58,3.06Z"/>
  <path class="cls-7" d="m499.44,297.97l-4.85,4.06-2.19-.82c-3.21-1.2-5.2-4.27-5.2-7.52,0-.92.16-1.86.5-2.77,1.54-4.13,6.17-6.24,10.29-4.7l5.62,2.09v6.22c0,.51.05,1.01.14,1.5-.05.05-.09.1-.13.15-1.49.17-2.95.77-4.18,1.79Z"/>
  <path class="cls-7" d="m508.3,290.06l-4.69-1.75v-4.78c0-4.4,3.6-8,8-8,2.2,0,4.2.9,5.65,2.35,1.45,1.45,2.35,3.45,2.35,5.65v5.08l-4.95,1.85c-1.18.44-2.2,1.14-3.01,2-.86-1.05-1.99-1.89-3.35-2.4Z"/>
  <path class="cls-7" d="m513.84,311.13l5.77,4.82v2.58c0,4.4-3.6,8-8,8s-8-3.6-8-8v-3.19l4.97-4.16c.8.23,1.65.35,2.53.35.95,0,1.87-.14,2.73-.4Z"/>
  <path class="cls-7" d="m532.97,316.69c-2.83,3.38-7.9,3.83-11.27,1.01l-2.09-1.75v-8.42c0-.37-.03-.74-.08-1.1.15-.29.29-.58.41-.88.11-.03.21-.06.31-.1l8.12-3.03,3.59,3c3.38,2.82,3.83,7.9,1.01,11.27Z"/>
  <path class="cls-7" d="m519.61,294.53v-5.92l5.36-2c4.12-1.54,8.75.58,10.29,4.7.34.91.5,1.85.5,2.77,0,3.25-1.99,6.32-5.2,7.52l-2.19.82-4.85-4.06c-1.23-1.02-2.68-1.62-4.17-1.79.17-.65.26-1.33.26-2.04Z"/>
  <path class="cls-8" d="m520.61,302.03c0,1.24-.24,2.43-.67,3.52-.12.3-.26.59-.41.88-1.17,2.24-3.22,3.96-5.69,4.7-.86.26-1.78.4-2.73.4-.88,0-1.73-.12-2.53-.35-2-.54-3.74-1.73-4.97-3.32-.71-.9-1.25-1.94-1.58-3.06-.28-.87-.42-1.81-.42-2.77,0-2.2.75-4.24,2.01-5.85.04-.05.08-.1.13-.15,1.74-2.14,4.39-3.5,7.36-3.5.15,0,.31,0,.46.01.05,0,.11,0,.16,0,2.94.19,5.52,1.72,7.13,3.98.12.17.23.34.34.51.89,1.45,1.41,3.16,1.41,4.99Z"/>
  <path class="cls-7" d="m405.56,398.26c-.03,1.42-.43,2.83-1.19,4.06-.44.71-.99,1.37-1.67,1.93l-1.12.93-4.97,4.16v-7.48c-.71-.9-1.25-1.94-1.58-3.06l-7.44-2.77,4.85-4.06c1.23-1.02,2.69-1.62,4.18-1.79.05,0,.11-.02.16-.02.26-.03.52-.04.78-.04,1.75,0,3.48.56,4.91,1.67.44.35.86.74,1.23,1.19.15.18.3.37.44.56.16.25.32.5.45.75.28.51.5,1.04.65,1.58.06.2.11.41.15.62.13.58.18,1.18.17,1.77Z"/>
  <path class="cls-7" d="m406.47,392.2c-.03.5-.12,1-.25,1.49h-.01c-.06.23-.13.45-.21.67-.2.54-.46,1.04-.76,1.51-.14.23-.3.45-.46.66-.15.18-.31.37-.48.53-.27.29-.56.55-.87.79-1.81,1.41-4.19,2.02-6.53,1.54-.4-.08-.8-.19-1.2-.34l-.67-.25-7.44-2.77,4.85-4.06c1.23-1.02,2.69-1.62,4.18-1.79.04-.05.08-.1.13-.15-.09-.49-.14-.99-.14-1.5v-6.22l4.69,1.75c1.36.51,2.49,1.35,3.35,2.4.03.03.06.06.08.09,1.26,1.57,1.91,3.6,1.74,5.65Z"/>
  <path class="cls-7" d="m421.37,396.42l-8.12,3.03c-.1.04-.2.07-.31.1-.12.3-.26.59-.41.88.05.36.08.73.08,1.1v8.42l-5.77-4.82-.58-.49c-.8-.67-1.43-1.45-1.89-2.32-.75-1.37-1.07-2.93-.94-4.47.03-.46.11-.93.23-1.38.02-.07.03-.14.06-.2.19-.69.48-1.35.87-1.98.15-.25.33-.5.52-.74.04-.06.09-.12.14-.18.37-.44.78-.84,1.22-1.17,1.43-1.12,3.18-1.69,4.93-1.69.15,0,.31,0,.46.02.16,0,.33.02.49.04,1.49.17,2.94.77,4.17,1.79l4.85,4.06Z"/>
  <path class="cls-7" d="m421.37,396.42l-8.12,3.03c-.1.04-.2.07-.31.1-.18.07-.36.12-.54.16-2.43.61-4.95.02-6.84-1.45-.46-.35-.88-.75-1.26-1.2-.15-.18-.29-.36-.43-.56-.05-.07-.1-.15-.15-.23-.3-.47-.56-.98-.76-1.52-.12-.32-.22-.65-.29-.98-.16-.66-.23-1.33-.2-1.98.04-1.95.8-3.82,2.1-5.25.03-.03.06-.05.08-.08.81-.86,1.83-1.56,3.01-2l4.95-1.85v5.92c0,.71-.09,1.39-.26,2.04,1.49.17,2.94.77,4.17,1.79l4.85,4.06Z"/>
  <path class="cls-7" d="m412.61,401.53v8.42l-5.77-4.82c-.86.26-1.78.4-2.73.4-.88,0-1.73-.12-2.53-.35l-4.97,4.16v-7.81c0-.74.1-1.46.29-2.14.5-1.78,1.6-3.31,3.06-4.36.8-.58,1.72-1.01,2.71-1.26.47-.12.96-.2,1.47-.23.15-.01.31-.01.47-.01.17,0,.34.01.5.02.37.02.74.07,1.1.14h.01c1.11.23,2.15.7,3.04,1.34.36.26.69.54,1,.85,1.04,1.04,1.79,2.36,2.14,3.83.05.23.1.47.13.72.05.36.08.73.08,1.1Z"/>
  <path class="cls-7" d="m412.61,382.61v5.92c0,.71-.09,1.39-.26,2.04-.05.16-.1.32-.15.47-.54,1.62-1.58,3.01-2.94,3.99-1.11.8-2.43,1.32-3.87,1.46-.2.02-.4.03-.61.04h-.17c-.25,0-.5-.01-.74-.03-.07-.01-.14-.02-.21-.03-1.37-.16-2.63-.67-3.7-1.44-1.6-1.15-2.77-2.88-3.18-4.87-.01-.04-.02-.09-.03-.13-.09-.49-.14-.99-.14-1.5v-6.22l4.69,1.75c1.36.51,2.49,1.35,3.35,2.4.81-.86,1.83-1.56,3.01-2l4.95-1.85Z"/>
  <path class="cls-7" d="m396.61,401.86v7.48l-2.35,1.96c-3.37,2.82-8.44,2.37-11.27-1-2.82-3.38-2.37-8.45,1.01-11.27l3.59-3,7.44,2.77c.33,1.12.87,2.16,1.58,3.06Z"/>
  <path class="cls-7" d="m392.44,391.97l-4.85,4.06-2.19-.82c-3.21-1.2-5.2-4.27-5.2-7.52,0-.92.16-1.86.5-2.77,1.54-4.13,6.17-6.24,10.29-4.7l5.62,2.09v6.22c0,.51.05,1.01.14,1.5-.05.05-.09.1-.13.15-1.49.17-2.95.77-4.18,1.79Z"/>
  <path class="cls-7" d="m401.3,384.06l-4.69-1.75v-4.78c0-4.4,3.6-8,8-8,2.2,0,4.2.9,5.65,2.35,1.45,1.45,2.35,3.45,2.35,5.65v5.08l-4.95,1.85c-1.18.44-2.2,1.14-3.01,2-.86-1.05-1.99-1.89-3.35-2.4Z"/>
  <path class="cls-7" d="m406.84,405.13l5.77,4.82v2.58c0,4.4-3.6,8-8,8s-8-3.6-8-8v-3.19l4.97-4.16c.8.23,1.65.35,2.53.35.95,0,1.87-.14,2.73-.4Z"/>
  <path class="cls-7" d="m425.97,410.69c-2.83,3.38-7.9,3.83-11.27,1.01l-2.09-1.75v-8.42c0-.37-.03-.74-.08-1.1.15-.29.29-.58.41-.88.11-.03.21-.06.31-.1l8.12-3.03,3.59,3c3.38,2.82,3.83,7.9,1.01,11.27Z"/>
  <path class="cls-7" d="m412.61,388.53v-5.92l5.36-2c4.12-1.54,8.75.58,10.29,4.7.34.91.5,1.85.5,2.77,0,3.25-1.99,6.32-5.2,7.52l-2.19.82-4.85-4.06c-1.23-1.02-2.68-1.62-4.17-1.79.17-.65.26-1.33.26-2.04Z"/>
  <path class="cls-8" d="m413.61,396.03c0,1.24-.24,2.43-.67,3.52-.12.3-.26.59-.41.88-1.17,2.24-3.22,3.96-5.69,4.7-.86.26-1.78.4-2.73.4-.88,0-1.73-.12-2.53-.35-2-.54-3.74-1.73-4.97-3.32-.71-.9-1.25-1.94-1.58-3.06-.28-.87-.42-1.81-.42-2.77,0-2.2.75-4.24,2.01-5.85.04-.05.08-.1.13-.15,1.74-2.14,4.39-3.5,7.36-3.5.15,0,.31,0,.46.01.05,0,.11,0,.16,0,2.94.19,5.52,1.72,7.13,3.98.12.17.23.34.34.51.89,1.45,1.41,3.16,1.41,4.99Z"/>
  <path class="cls-7" d="m100.56,224.26c-.03,1.42-.43,2.83-1.19,4.06-.44.71-.99,1.37-1.67,1.93l-1.12.93-4.97,4.16v-7.48c-.71-.9-1.25-1.94-1.58-3.06l-7.44-2.77,4.85-4.06c1.23-1.02,2.69-1.62,4.18-1.79.05,0,.11-.02.16-.02.26-.03.52-.04.78-.04,1.75,0,3.48.56,4.91,1.67.44.35.86.74,1.23,1.19.15.18.3.37.44.56.16.25.32.5.45.75.28.51.5,1.04.65,1.58.06.2.11.41.15.62.13.58.18,1.18.17,1.77Z"/>
  <path class="cls-5" d="m101.47,218.2c-.03.5-.12,1-.25,1.49h-.01c-.06.23-.13.45-.21.67-.2.54-.46,1.04-.76,1.51-.14.23-.3.45-.46.66-.15.18-.31.37-.48.53-.27.29-.56.55-.87.79-1.81,1.41-4.19,2.02-6.53,1.54-.4-.08-.8-.19-1.2-.34l-.67-.25-7.44-2.77,4.85-4.06c1.23-1.02,2.69-1.62,4.18-1.79.04-.05.08-.1.13-.15-.09-.49-.14-.99-.14-1.5v-6.22l4.69,1.75c1.36.51,2.49,1.35,3.35,2.4.03.03.06.06.08.09,1.26,1.57,1.91,3.6,1.74,5.65Z"/>
  <path class="cls-7" d="m116.37,222.42l-8.12,3.03c-.1.04-.2.07-.31.1-.12.3-.26.59-.41.88.05.36.08.73.08,1.1v8.42l-5.77-4.82-.58-.49c-.8-.67-1.43-1.45-1.89-2.32-.75-1.37-1.07-2.93-.94-4.47.03-.46.11-.93.23-1.38.02-.07.03-.14.06-.2.19-.69.48-1.35.87-1.98.15-.25.33-.5.52-.74.04-.06.09-.12.14-.18.37-.44.78-.84,1.22-1.17,1.43-1.12,3.18-1.69,4.93-1.69.15,0,.31,0,.46.02.16,0,.33.02.49.04,1.49.17,2.94.77,4.17,1.79l4.85,4.06Z"/>
  <path class="cls-5" d="m116.37,222.42l-8.12,3.03c-.1.04-.2.07-.31.1-.18.07-.36.12-.54.16-2.43.61-4.95.02-6.84-1.45-.46-.35-.88-.75-1.26-1.2-.15-.18-.29-.36-.43-.56-.05-.07-.1-.15-.15-.23-.3-.47-.56-.98-.76-1.52-.12-.32-.22-.65-.29-.98-.16-.66-.23-1.33-.2-1.98.04-1.95.8-3.82,2.1-5.25.03-.03.06-.05.08-.08.81-.86,1.83-1.56,3.01-2l4.95-1.85v5.92c0,.71-.09,1.39-.26,2.04,1.49.17,2.94.77,4.17,1.79l4.85,4.06Z"/>
  <path class="cls-5" d="m107.61,227.53v8.42l-5.77-4.82c-.86.26-1.78.4-2.73.4-.88,0-1.73-.12-2.53-.35l-4.97,4.16v-7.81c0-.74.1-1.46.29-2.14.5-1.78,1.6-3.31,3.06-4.36.8-.58,1.72-1.01,2.71-1.26.47-.12.96-.2,1.47-.23.15-.01.31-.01.47-.01.17,0,.34.01.5.02.37.02.74.07,1.1.14h.01c1.11.23,2.15.7,3.04,1.34.36.26.69.54,1,.85,1.04,1.04,1.79,2.36,2.14,3.83.05.23.1.47.13.72.05.36.08.73.08,1.1Z"/>
  <path class="cls-5" d="m107.61,208.61v5.92c0,.71-.09,1.39-.26,2.04-.05.16-.1.32-.15.47-.54,1.62-1.58,3.01-2.94,3.99-1.11.8-2.43,1.32-3.87,1.46-.2.02-.4.03-.61.04h-.17c-.25,0-.5-.01-.74-.03-.07-.01-.14-.02-.21-.03-1.37-.16-2.63-.67-3.7-1.44-1.6-1.15-2.77-2.88-3.18-4.87-.01-.04-.02-.09-.03-.13-.09-.49-.14-.99-.14-1.5v-6.22l4.69,1.75c1.36.51,2.49,1.35,3.35,2.4.81-.86,1.83-1.56,3.01-2l4.95-1.85Z"/>
  <path class="cls-5" d="m91.61,227.86v7.48l-2.35,1.96c-3.37,2.82-8.44,2.37-11.27-1-2.82-3.38-2.37-8.45,1.01-11.27l3.59-3,7.44,2.77c.33,1.12.87,2.16,1.58,3.06Z"/>
  <path class="cls-5" d="m87.44,217.97l-4.85,4.06-2.19-.82c-3.21-1.2-5.2-4.27-5.2-7.52,0-.92.16-1.86.5-2.77,1.54-4.13,6.17-6.24,10.29-4.7l5.62,2.09v6.22c0,.51.05,1.01.14,1.5-.05.05-.09.1-.13.15-1.49.17-2.95.77-4.18,1.79Z"/>
  <path class="cls-5" d="m96.3,210.06l-4.69-1.75v-4.78c0-4.4,3.6-8,8-8,2.2,0,4.2.9,5.65,2.35,1.45,1.45,2.35,3.45,2.35,5.65v5.08l-4.95,1.85c-1.18.44-2.2,1.14-3.01,2-.86-1.05-1.99-1.89-3.35-2.4Z"/>
  <path class="cls-5" d="m101.84,231.13l5.77,4.82v2.58c0,4.4-3.6,8-8,8s-8-3.6-8-8v-3.19l4.97-4.16c.8.23,1.65.35,2.53.35.95,0,1.87-.14,2.73-.4Z"/>
  <path class="cls-5" d="m120.97,236.69c-2.83,3.38-7.9,3.83-11.27,1.01l-2.09-1.75v-8.42c0-.37-.03-.74-.08-1.1.15-.29.29-.58.41-.88.11-.03.21-.06.31-.1l8.12-3.03,3.59,3c3.38,2.82,3.83,7.9,1.01,11.27Z"/>
  <path class="cls-5" d="m107.61,214.53v-5.92l5.36-2c4.12-1.54,8.75.58,10.29,4.7.34.91.5,1.85.5,2.77,0,3.25-1.99,6.32-5.2,7.52l-2.19.82-4.85-4.06c-1.23-1.02-2.68-1.62-4.17-1.79.17-.65.26-1.33.26-2.04Z"/>
  <path class="cls-8" d="m108.61,222.03c0,1.24-.24,2.43-.67,3.52-.12.3-.26.59-.41.88-1.17,2.24-3.22,3.96-5.69,4.7-.86.26-1.78.4-2.73.4-.88,0-1.73-.12-2.53-.35-2-.54-3.74-1.73-4.97-3.32-.71-.9-1.25-1.94-1.58-3.06-.28-.87-.42-1.81-.42-2.77,0-2.2.75-4.24,2.01-5.85.04-.05.08-.1.13-.15,1.74-2.14,4.39-3.5,7.36-3.5.15,0,.31,0,.46.01.05,0,.11,0,.16,0,2.94.19,5.52,1.72,7.13,3.98.12.17.23.34.34.51.89,1.45,1.41,3.16,1.41,4.99Z"/>
  <path class="cls-7" d="m153.56,328.26c-.03,1.42-.43,2.83-1.19,4.06-.44.71-.99,1.37-1.67,1.93l-1.12.93-4.97,4.16v-7.48c-.71-.9-1.25-1.94-1.58-3.06l-7.44-2.77,4.85-4.06c1.23-1.02,2.69-1.62,4.18-1.79.05,0,.11-.02.16-.02.26-.03.52-.04.78-.04,1.75,0,3.48.56,4.91,1.67.44.35.86.74,1.23,1.19.15.18.3.37.44.56.16.25.32.5.45.75.28.51.5,1.04.65,1.58.06.2.11.41.15.62.13.58.18,1.18.17,1.77Z"/>
  <path class="cls-7" d="m154.47,322.2c-.03.5-.12,1-.25,1.49h-.01c-.06.23-.13.45-.21.67-.2.54-.46,1.04-.76,1.51-.14.23-.3.45-.46.66-.15.18-.31.37-.48.53-.27.29-.56.55-.87.79-1.81,1.41-4.19,2.02-6.53,1.54-.4-.08-.8-.19-1.2-.34l-.67-.25-7.44-2.77,4.85-4.06c1.23-1.02,2.69-1.62,4.18-1.79.04-.05.08-.1.13-.15-.09-.49-.14-.99-.14-1.5v-6.22l4.69,1.75c1.36.51,2.49,1.35,3.35,2.4.03.03.06.06.08.09,1.26,1.57,1.91,3.6,1.74,5.65Z"/>
  <path class="cls-7" d="m169.37,326.42l-8.12,3.03c-.1.04-.2.07-.31.1-.12.3-.26.59-.41.88.05.36.08.73.08,1.1v8.42l-5.77-4.82-.58-.49c-.8-.67-1.43-1.45-1.89-2.32-.75-1.37-1.07-2.93-.94-4.47.03-.46.11-.93.23-1.38.02-.07.03-.14.06-.2.19-.69.48-1.35.87-1.98.15-.25.33-.5.52-.74.04-.06.09-.12.14-.18.37-.44.78-.84,1.22-1.17,1.43-1.12,3.18-1.69,4.93-1.69.15,0,.31,0,.46.02.16,0,.33.02.49.04,1.49.17,2.94.77,4.17,1.79l4.85,4.06Z"/>
  <path class="cls-7" d="m169.37,326.42l-8.12,3.03c-.1.04-.2.07-.31.1-.18.07-.36.12-.54.16-2.43.61-4.95.02-6.84-1.45-.46-.35-.88-.75-1.26-1.2-.15-.18-.29-.36-.43-.56-.05-.07-.1-.15-.15-.23-.3-.47-.56-.98-.76-1.52-.12-.32-.22-.65-.29-.98-.16-.66-.23-1.33-.2-1.98.04-1.95.8-3.82,2.1-5.25.03-.03.06-.05.08-.08.81-.86,1.83-1.56,3.01-2l4.95-1.85v5.92c0,.71-.09,1.39-.26,2.04,1.49.17,2.94.77,4.17,1.79l4.85,4.06Z"/>
  <path class="cls-7" d="m160.61,331.53v8.42l-5.77-4.82c-.86.26-1.78.4-2.73.4-.88,0-1.73-.12-2.53-.35l-4.97,4.16v-7.81c0-.74.1-1.46.29-2.14.5-1.78,1.6-3.31,3.06-4.36.8-.58,1.72-1.01,2.71-1.26.47-.12.96-.2,1.47-.23.15-.01.31-.01.47-.01.17,0,.34.01.5.02.37.02.74.07,1.1.14h.01c1.11.23,2.15.7,3.04,1.34.36.26.69.54,1,.85,1.04,1.04,1.79,2.36,2.14,3.83.05.23.1.47.13.72.05.36.08.73.08,1.1Z"/>
  <path class="cls-7" d="m160.61,312.61v5.92c0,.71-.09,1.39-.26,2.04-.05.16-.1.32-.15.47-.54,1.62-1.58,3.01-2.94,3.99-1.11.8-2.43,1.32-3.87,1.46-.2.02-.4.03-.61.04h-.17c-.25,0-.5-.01-.74-.03-.07-.01-.14-.02-.21-.03-1.37-.16-2.63-.67-3.7-1.44-1.6-1.15-2.77-2.88-3.18-4.87-.01-.04-.02-.09-.03-.13-.09-.49-.14-.99-.14-1.5v-6.22l4.69,1.75c1.36.51,2.49,1.35,3.35,2.4.81-.86,1.83-1.56,3.01-2l4.95-1.85Z"/>
  <path class="cls-7" d="m144.61,331.86v7.48l-2.35,1.96c-3.37,2.82-8.44,2.37-11.27-1-2.82-3.38-2.37-8.45,1.01-11.27l3.59-3,7.44,2.77c.33,1.12.87,2.16,1.58,3.06Z"/>
  <path class="cls-7" d="m140.44,321.97l-4.85,4.06-2.19-.82c-3.21-1.2-5.2-4.27-5.2-7.52,0-.92.16-1.86.5-2.77,1.54-4.13,6.17-6.24,10.29-4.7l5.62,2.09v6.22c0,.51.05,1.01.14,1.5-.05.05-.09.1-.13.15-1.49.17-2.95.77-4.18,1.79Z"/>
  <path class="cls-7" d="m149.3,314.06l-4.69-1.75v-4.78c0-4.4,3.6-8,8-8,2.2,0,4.2.9,5.65,2.35,1.45,1.45,2.35,3.45,2.35,5.65v5.08l-4.95,1.85c-1.18.44-2.2,1.14-3.01,2-.86-1.05-1.99-1.89-3.35-2.4Z"/>
  <path class="cls-7" d="m154.84,335.13l5.77,4.82v2.58c0,4.4-3.6,8-8,8s-8-3.6-8-8v-3.19l4.97-4.16c.8.23,1.65.35,2.53.35.95,0,1.87-.14,2.73-.4Z"/>
  <path class="cls-7" d="m173.97,340.69c-2.83,3.38-7.9,3.83-11.27,1.01l-2.09-1.75v-8.42c0-.37-.03-.74-.08-1.1.15-.29.29-.58.41-.88.11-.03.21-.06.31-.1l8.12-3.03,3.59,3c3.38,2.82,3.83,7.9,1.01,11.27Z"/>
  <path class="cls-7" d="m160.61,318.53v-5.92l5.36-2c4.12-1.54,8.75.58,10.29,4.7.34.91.5,1.85.5,2.77,0,3.25-1.99,6.32-5.2,7.52l-2.19.82-4.85-4.06c-1.23-1.02-2.68-1.62-4.17-1.79.17-.65.26-1.33.26-2.04Z"/>
  <path class="cls-8" d="m161.61,326.03c0,1.24-.24,2.43-.67,3.52-.12.3-.26.59-.41.88-1.17,2.24-3.22,3.96-5.69,4.7-.86.26-1.78.4-2.73.4-.88,0-1.73-.12-2.53-.35-2-.54-3.74-1.73-4.97-3.32-.71-.9-1.25-1.94-1.58-3.06-.28-.87-.42-1.81-.42-2.77,0-2.2.75-4.24,2.01-5.85.04-.05.08-.1.13-.15,1.74-2.14,4.39-3.5,7.36-3.5.15,0,.31,0,.46.01.05,0,.11,0,.16,0,2.94.19,5.52,1.72,7.13,3.98.12.17.23.34.34.51.89,1.45,1.41,3.16,1.41,4.99Z"/>
  <path class="cls-7" d="m90.56,434.26c-.03,1.42-.43,2.83-1.19,4.06-.44.71-.99,1.37-1.67,1.93l-1.12.93-4.97,4.16v-7.48c-.71-.9-1.25-1.94-1.58-3.06l-7.44-2.77,4.85-4.06c1.23-1.02,2.69-1.62,4.18-1.79.05,0,.11-.02.16-.02.26-.03.52-.04.78-.04,1.75,0,3.48.56,4.91,1.67.44.35.86.74,1.23,1.19.15.18.3.37.44.56.16.25.32.5.45.75.28.51.5,1.04.65,1.58.06.2.11.41.15.62.13.58.18,1.18.17,1.77Z"/>
  <path class="cls-7" d="m91.47,428.2c-.03.5-.12,1-.25,1.49h-.01c-.06.23-.13.45-.21.67-.2.54-.46,1.04-.76,1.51-.14.23-.3.45-.46.66-.15.18-.31.37-.48.53-.27.29-.56.55-.87.79-1.81,1.41-4.19,2.02-6.53,1.54-.4-.08-.8-.19-1.2-.34l-.67-.25-7.44-2.77,4.85-4.06c1.23-1.02,2.69-1.62,4.18-1.79.04-.05.08-.1.13-.15-.09-.49-.14-.99-.14-1.5v-6.22l4.69,1.75c1.36.51,2.49,1.35,3.35,2.4.03.03.06.06.08.09,1.26,1.57,1.91,3.6,1.74,5.65Z"/>
  <path class="cls-7" d="m106.37,432.42l-8.12,3.03c-.1.04-.2.07-.31.1-.12.3-.26.59-.41.88.05.36.08.73.08,1.1v8.42l-5.77-4.82-.58-.49c-.8-.67-1.43-1.45-1.89-2.32-.75-1.37-1.07-2.93-.94-4.47.03-.46.11-.93.23-1.38.02-.07.03-.14.06-.2.19-.69.48-1.35.87-1.98.15-.25.33-.5.52-.74.04-.06.09-.12.14-.18.37-.44.78-.84,1.22-1.17,1.43-1.12,3.18-1.69,4.93-1.69.15,0,.31,0,.46.02.16,0,.33.02.49.04,1.49.17,2.94.77,4.17,1.79l4.85,4.06Z"/>
  <path class="cls-7" d="m106.37,432.42l-8.12,3.03c-.1.04-.2.07-.31.1-.18.07-.36.12-.54.16-2.43.61-4.95.02-6.84-1.45-.46-.35-.88-.75-1.26-1.2-.15-.18-.29-.36-.43-.56-.05-.07-.1-.15-.15-.23-.3-.47-.56-.98-.76-1.52-.12-.32-.22-.65-.29-.98-.16-.66-.23-1.33-.2-1.98.04-1.95.8-3.82,2.1-5.25.03-.03.06-.05.08-.08.81-.86,1.83-1.56,3.01-2l4.95-1.85v5.92c0,.71-.09,1.39-.26,2.04,1.49.17,2.94.77,4.17,1.79l4.85,4.06Z"/>
  <path class="cls-7" d="m97.61,437.53v8.42l-5.77-4.82c-.86.26-1.78.4-2.73.4-.88,0-1.73-.12-2.53-.35l-4.97,4.16v-7.81c0-.74.1-1.46.29-2.14.5-1.78,1.6-3.31,3.06-4.36.8-.58,1.72-1.01,2.71-1.26.47-.12.96-.2,1.47-.23.15-.01.31-.01.47-.01.17,0,.34.01.5.02.37.02.74.07,1.1.14h.01c1.11.23,2.15.7,3.04,1.34.36.26.69.54,1,.85,1.04,1.04,1.79,2.36,2.14,3.83.05.23.1.47.13.72.05.36.08.73.08,1.1Z"/>
  <path class="cls-7" d="m97.61,418.61v5.92c0,.71-.09,1.39-.26,2.04-.05.16-.1.32-.15.47-.54,1.62-1.58,3.01-2.94,3.99-1.11.8-2.43,1.32-3.87,1.46-.2.02-.4.03-.61.04h-.17c-.25,0-.5-.01-.74-.03-.07-.01-.14-.02-.21-.03-1.37-.16-2.63-.67-3.7-1.44-1.6-1.15-2.77-2.88-3.18-4.87-.01-.04-.02-.09-.03-.13-.09-.49-.14-.99-.14-1.5v-6.22l4.69,1.75c1.36.51,2.49,1.35,3.35,2.4.81-.86,1.83-1.56,3.01-2l4.95-1.85Z"/>
  <path class="cls-7" d="m81.61,437.86v7.48l-2.35,1.96c-3.37,2.82-8.44,2.37-11.27-1-2.82-3.38-2.37-8.45,1.01-11.27l3.59-3,7.44,2.77c.33,1.12.87,2.16,1.58,3.06Z"/>
  <path class="cls-7" d="m77.44,427.97l-4.85,4.06-2.19-.82c-3.21-1.2-5.2-4.27-5.2-7.52,0-.92.16-1.86.5-2.77,1.54-4.13,6.17-6.24,10.29-4.7l5.62,2.09v6.22c0,.51.05,1.01.14,1.5-.05.05-.09.1-.13.15-1.49.17-2.95.77-4.18,1.79Z"/>
  <path class="cls-7" d="m86.3,420.06l-4.69-1.75v-4.78c0-4.4,3.6-8,8-8,2.2,0,4.2.9,5.65,2.35,1.45,1.45,2.35,3.45,2.35,5.65v5.08l-4.95,1.85c-1.18.44-2.2,1.14-3.01,2-.86-1.05-1.99-1.89-3.35-2.4Z"/>
  <path class="cls-7" d="m91.84,441.13l5.77,4.82v2.58c0,4.4-3.6,8-8,8s-8-3.6-8-8v-3.19l4.97-4.16c.8.23,1.65.35,2.53.35.95,0,1.87-.14,2.73-.4Z"/>
  <path class="cls-7" d="m110.97,446.69c-2.83,3.38-7.9,3.83-11.27,1.01l-2.09-1.75v-8.42c0-.37-.03-.74-.08-1.1.15-.29.29-.58.41-.88.11-.03.21-.06.31-.1l8.12-3.03,3.59,3c3.38,2.82,3.83,7.9,1.01,11.27Z"/>
  <path class="cls-7" d="m97.61,424.53v-5.92l5.36-2c4.12-1.54,8.75.58,10.29,4.7.34.91.5,1.85.5,2.77,0,3.25-1.99,6.32-5.2,7.52l-2.19.82-4.85-4.06c-1.23-1.02-2.68-1.62-4.17-1.79.17-.65.26-1.33.26-2.04Z"/>
  <path class="cls-8" d="m98.61,432.03c0,1.24-.24,2.43-.67,3.52-.12.3-.26.59-.41.88-1.17,2.24-3.22,3.96-5.69,4.7-.86.26-1.78.4-2.73.4-.88,0-1.73-.12-2.53-.35-2-.54-3.74-1.73-4.97-3.32-.71-.9-1.25-1.94-1.58-3.06-.28-.87-.42-1.81-.42-2.77,0-2.2.75-4.24,2.01-5.85.04-.05.08-.1.13-.15,1.74-2.14,4.39-3.5,7.36-3.5.15,0,.31,0,.46.01.05,0,.11,0,.16,0,2.94.19,5.52,1.72,7.13,3.98.12.17.23.34.34.51.89,1.45,1.41,3.16,1.41,4.99Z"/>
  <path class="cls-7" d="m508.56,430.26c-.03,1.42-.43,2.83-1.19,4.06-.44.71-.99,1.37-1.67,1.93l-1.12.93-4.97,4.16v-7.48c-.71-.9-1.25-1.94-1.58-3.06l-7.44-2.77,4.85-4.06c1.23-1.02,2.69-1.62,4.18-1.79.05,0,.11-.02.16-.02.26-.03.52-.04.78-.04,1.75,0,3.48.56,4.91,1.67.44.35.86.74,1.23,1.19.15.18.3.37.44.56.16.25.32.5.45.75.28.51.5,1.04.65,1.58.06.2.11.41.15.62.13.58.18,1.18.17,1.77Z"/>
  <path class="cls-7" d="m509.47,424.2c-.03.5-.12,1-.25,1.49h-.01c-.06.23-.13.45-.21.67-.2.54-.46,1.04-.76,1.51-.14.23-.3.45-.46.66-.15.18-.31.37-.48.53-.27.29-.56.55-.87.79-1.81,1.41-4.19,2.02-6.53,1.54-.4-.08-.8-.19-1.2-.34l-.67-.25-7.44-2.77,4.85-4.06c1.23-1.02,2.69-1.62,4.18-1.79.04-.05.08-.1.13-.15-.09-.49-.14-.99-.14-1.5v-6.22l4.69,1.75c1.36.51,2.49,1.35,3.35,2.4.03.03.06.06.08.09,1.26,1.57,1.91,3.6,1.74,5.65Z"/>
  <path class="cls-7" d="m524.37,428.42l-8.12,3.03c-.1.04-.2.07-.31.1-.12.3-.26.59-.41.88.05.36.08.73.08,1.1v8.42l-5.77-4.82-.58-.49c-.8-.67-1.43-1.45-1.89-2.32-.75-1.37-1.07-2.93-.94-4.47.03-.46.11-.93.23-1.38.02-.07.03-.14.06-.2.19-.69.48-1.35.87-1.98.15-.25.33-.5.52-.74.04-.06.09-.12.14-.18.37-.44.78-.84,1.22-1.17,1.43-1.12,3.18-1.69,4.93-1.69.15,0,.31,0,.46.02.16,0,.33.02.49.04,1.49.17,2.94.77,4.17,1.79l4.85,4.06Z"/>
  <path class="cls-7" d="m524.37,428.42l-8.12,3.03c-.1.04-.2.07-.31.1-.18.07-.36.12-.54.16-2.43.61-4.95.02-6.84-1.45-.46-.35-.88-.75-1.26-1.2-.15-.18-.29-.36-.43-.56-.05-.07-.1-.15-.15-.23-.3-.47-.56-.98-.76-1.52-.12-.32-.22-.65-.29-.98-.16-.66-.23-1.33-.2-1.98.04-1.95.8-3.82,2.1-5.25.03-.03.06-.05.08-.08.81-.86,1.83-1.56,3.01-2l4.95-1.85v5.92c0,.71-.09,1.39-.26,2.04,1.49.17,2.94.77,4.17,1.79l4.85,4.06Z"/>
  <path class="cls-7" d="m515.61,433.53v8.42l-5.77-4.82c-.86.26-1.78.4-2.73.4-.88,0-1.73-.12-2.53-.35l-4.97,4.16v-7.81c0-.74.1-1.46.29-2.14.5-1.78,1.6-3.31,3.06-4.36.8-.58,1.72-1.01,2.71-1.26.47-.12.96-.2,1.47-.23.15-.01.31-.01.47-.01.17,0,.34.01.5.02.37.02.74.07,1.1.14h.01c1.11.23,2.15.7,3.04,1.34.36.26.69.54,1,.85,1.04,1.04,1.79,2.36,2.14,3.83.05.23.1.47.13.72.05.36.08.73.08,1.1Z"/>
  <path class="cls-7" d="m515.61,414.61v5.92c0,.71-.09,1.39-.26,2.04-.05.16-.1.32-.15.47-.54,1.62-1.58,3.01-2.94,3.99-1.11.8-2.43,1.32-3.87,1.46-.2.02-.4.03-.61.04h-.17c-.25,0-.5-.01-.74-.03-.07-.01-.14-.02-.21-.03-1.37-.16-2.63-.67-3.7-1.44-1.6-1.15-2.77-2.88-3.18-4.87-.01-.04-.02-.09-.03-.13-.09-.49-.14-.99-.14-1.5v-6.22l4.69,1.75c1.36.51,2.49,1.35,3.35,2.4.81-.86,1.83-1.56,3.01-2l4.95-1.85Z"/>
  <path class="cls-7" d="m499.61,433.86v7.48l-2.35,1.96c-3.37,2.82-8.44,2.37-11.27-1-2.82-3.38-2.37-8.45,1.01-11.27l3.59-3,7.44,2.77c.33,1.12.87,2.16,1.58,3.06Z"/>
  <path class="cls-7" d="m495.44,423.97l-4.85,4.06-2.19-.82c-3.21-1.2-5.2-4.27-5.2-7.52,0-.92.16-1.86.5-2.77,1.54-4.13,6.17-6.24,10.29-4.7l5.62,2.09v6.22c0,.51.05,1.01.14,1.5-.05.05-.09.1-.13.15-1.49.17-2.95.77-4.18,1.79Z"/>
  <path class="cls-7" d="m504.3,416.06l-4.69-1.75v-4.78c0-4.4,3.6-8,8-8,2.2,0,4.2.9,5.65,2.35,1.45,1.45,2.35,3.45,2.35,5.65v5.08l-4.95,1.85c-1.18.44-2.2,1.14-3.01,2-.86-1.05-1.99-1.89-3.35-2.4Z"/>
  <path class="cls-7" d="m509.84,437.13l5.77,4.82v2.58c0,4.4-3.6,8-8,8s-8-3.6-8-8v-3.19l4.97-4.16c.8.23,1.65.35,2.53.35.95,0,1.87-.14,2.73-.4Z"/>
  <path class="cls-7" d="m528.97,442.69c-2.83,3.38-7.9,3.83-11.27,1.01l-2.09-1.75v-8.42c0-.37-.03-.74-.08-1.1.15-.29.29-.58.41-.88.11-.03.21-.06.31-.1l8.12-3.03,3.59,3c3.38,2.82,3.83,7.9,1.01,11.27Z"/>
  <path class="cls-7" d="m515.61,420.53v-5.92l5.36-2c4.12-1.54,8.75.58,10.29,4.7.34.91.5,1.85.5,2.77,0,3.25-1.99,6.32-5.2,7.52l-2.19.82-4.85-4.06c-1.23-1.02-2.68-1.62-4.17-1.79.17-.65.26-1.33.26-2.04Z"/>
  <path class="cls-8" d="m516.61,428.03c0,1.24-.24,2.43-.67,3.52-.12.3-.26.59-.41.88-1.17,2.24-3.22,3.96-5.69,4.7-.86.26-1.78.4-2.73.4-.88,0-1.73-.12-2.53-.35-2-.54-3.74-1.73-4.97-3.32-.71-.9-1.25-1.94-1.58-3.06-.28-.87-.42-1.81-.42-2.77,0-2.2.75-4.24,2.01-5.85.04-.05.08-.1.13-.15,1.74-2.14,4.39-3.5,7.36-3.5.15,0,.31,0,.46.01.05,0,.11,0,.16,0,2.94.19,5.52,1.72,7.13,3.98.12.17.23.34.34.51.89,1.45,1.41,3.16,1.41,4.99Z"/>
  <ellipse class="cls-6" cx="398.02" cy="302.4" rx=".5" ry="2"/>
  <path class="cls-6" d="m386.52,182.4c16,25-31,52-33-19-2.09-74.3-56.8-23.06-60.06-50.48-5-42,57.49-22.93,75.06-6.52,30,28,3.11,52.74,18,76Z"/>
  <path class="cls-6" d="m361.7,163.89c7.05-3.45,23.3,13.17,29.82,24.51,10.28,17.89-25,97-18,43,1.67-12.89-8.21-23.32-13.68-36.04-4.9-11.37-5.13-28.05,1.87-31.47Z"/>
  <g>
    <path class="cls-5" d="m395.9,223.93c.4.15.8.26,1.2.34-.19.68-.29,1.4-.29,2.14v.33c-.71-.9-1.25-1.94-1.58-3.06l.67.25Z"/>
    <path class="cls-5" d="m404.34,218.42c-.51.03-1,.11-1.47.23-.16-.66-.23-1.33-.2-1.98.44.35.86.74,1.23,1.19.15.18.3.37.44.56Z"/>
    <path class="cls-5" d="m405.76,223.14c-.03,1.42-.43,2.83-1.19,4.06-.75-1.37-1.07-2.93-.94-4.47.03-.46.11-.93.23-1.38.02-.07.03-.14.06-.2.05.08.1.16.15.23.14.2.28.38.43.56.38.45.8.85,1.26,1.2Z"/>
    <path class="cls-5" d="m405.59,221.37c-.2.02-.4.03-.61.04.16-.21.32-.43.46-.66.06.2.11.41.15.62Z"/>
    <path class="cls-5" d="m396.95,214.91s.02.09.03.13c-.05,0-.11.01-.16.02.04-.05.08-.1.13-.15Z"/>
    <path class="cls-5" d="m404.07,221.38c.14.2.28.38.43.56-.27.29-.56.55-.87.79.03-.46.11-.93.23-1.38.02-.07.03-.14.06-.2.05.08.1.16.15.23Z"/>
    <path class="cls-5" d="m406.67,217.08c-.03.5-.12,1-.25,1.49h-.01c-.06.23-.13.45-.21.67-.2.54-.46,1.04-.76,1.51-.15-.54-.37-1.07-.65-1.58-.13-.25-.29-.5-.45-.75-.51.03-1,.11-1.47.23-.16-.66-.23-1.33-.2-1.98.04-1.95.8-3.82,2.1-5.25.03-.03.06-.05.08-.08.03.03.06.06.08.09,1.26,1.57,1.91,3.6,1.74,5.65Z"/>
    <path class="cls-5" d="m405.76,223.14c-.03,1.42-.43,2.83-1.19,4.06-.75-1.37-1.07-2.93-.94-4.47.03-.46.11-.93.23-1.38.02-.07.03-.14.06-.2.05.08.1.16.15.23.14.2.28.38.43.56.38.45.8.85,1.26,1.2Z"/>
    <path class="cls-5" d="m404.98,221.41c.16-.21.32-.43.46-.66.06.2.11.41.15.62-.2.02-.4.03-.61.04Z"/>
    <path class="cls-5" d="m406.67,217.08c-.03.5-.12,1-.25,1.49h-.01c-.06.23-.13.45-.21.67-.2.54-.46,1.04-.76,1.51-.15-.54-.37-1.07-.65-1.58.15-.25.33-.5.52-.74.04-.06.09-.12.14-.18.37-.44.78-.84,1.22-1.17Z"/>
    <path class="cls-5" d="m413.14,224.43c-.12.3-.26.59-.41.88-.03-.25-.08-.49-.13-.72.18-.04.36-.09.54-.16Z"/>
    <path class="cls-5" d="m404.98,221.41c.16-.21.32-.43.46-.66.06.2.11.41.15.62-.2.02-.4.03-.61.04Z"/>
    <path class="cls-5" d="m406.67,217.08c-.03.5-.12,1-.25,1.49h-.01c-.06.23-.13.45-.21.67-.2.54-.46,1.04-.76,1.51-.15-.54-.37-1.07-.65-1.58-.13-.25-.29-.5-.45-.75-.51.03-1,.11-1.47.23-.16-.66-.23-1.33-.2-1.98.04-1.95.8-3.82,2.1-5.25.03-.03.06-.05.08-.08.03.03.06.06.08.09,1.26,1.57,1.91,3.6,1.74,5.65Z"/>
    <path class="cls-5" d="m405.76,223.14c-.03,1.42-.43,2.83-1.19,4.06-.75-1.37-1.07-2.93-.94-4.47.03-.46.11-.93.23-1.38.02-.07.03-.14.06-.2.05.08.1.16.15.23.14.2.28.38.43.56.38.45.8.85,1.26,1.2Z"/>
    <path class="cls-5" d="m404.98,221.41c.16-.21.32-.43.46-.66.06.2.11.41.15.62-.2.02-.4.03-.61.04Z"/>
    <path class="cls-5" d="m406.41,218.57c-.06.23-.13.45-.21.67-.2.54-.46,1.04-.76,1.51-.15-.54-.37-1.07-.65-1.58-.13-.25-.29-.5-.45-.75.15-.01.31-.01.47-.01.17,0,.34.01.5.02.37.02.74.07,1.1.14Z"/>
    <path class="cls-5" d="m403.92,221.15c.05.08.1.16.15.23-.07-.01-.14-.02-.21-.03.02-.07.03-.14.06-.2Z"/>
    <path class="cls-5" d="m404.98,221.41c.16-.21.32-.43.46-.66.06.2.11.41.15.62-.2.02-.4.03-.61.04Z"/>
    <path class="cls-5" d="m406.67,217.08c-.03.5-.12,1-.25,1.49h-.01c-.06.23-.13.45-.21.67-.2.54-.46,1.04-.76,1.51-.15-.54-.37-1.07-.65-1.58-.13-.25-.29-.5-.45-.75-.51.03-1,.11-1.47.23-.16-.66-.23-1.33-.2-1.98.04-1.95.8-3.82,2.1-5.25.03-.03.06-.05.08-.08.03.03.06.06.08.09,1.26,1.57,1.91,3.6,1.74,5.65Z"/>
    <path class="cls-5" d="m425.16,224.3l-3.59-3,2.19-.82c3.21-1.2,5.2-4.27,5.2-7.52,0-.92-.16-1.86-.5-2.77-1.54-4.12-6.17-6.24-10.29-4.7l-5.36,2v-5.08c0-2.2-.9-4.2-2.35-5.65-1.45-1.45-3.45-2.35-5.65-2.35-4.4,0-8,3.6-8,8v4.78l-5.62-2.09c-4.12-1.54-8.75.57-10.29,4.7-.34.91-.5,1.85-.5,2.77,0,3.25,1.99,6.32,5.2,7.52l2.19.82-3.59,3c-3.38,2.82-3.83,7.89-1.01,11.27,2.83,3.37,7.9,3.82,11.27,1l2.35-1.96v3.19c0,4.4,3.6,8,8,8s8-3.6,8-8v-2.58l2.09,1.75c3.37,2.82,8.44,2.37,11.27-1.01,2.82-3.37,2.37-8.45-1.01-11.27Zm-20.59,2.9c-.75-1.37-1.07-2.93-.94-4.47.03-.46.11-.93.23-1.38.02-.07.03-.14.06-.2.05.08.1.16.15.23.14.2.28.38.43.56.38.45.8.85,1.26,1.2-.03,1.42-.43,2.83-1.19,4.06Zm-7.62-12.29s.02.09.03.13c-.05,0-.11.01-.16.02.04-.05.08-.1.13-.15Zm7.98-3.48c1.26,1.57,1.91,3.6,1.74,5.65-.03.5-.12,1-.25,1.49h-.01c-.06.23-.13.45-.21.67-.2.54-.46,1.04-.76,1.51.06.2.11.41.15.62-.2.02-.4.03-.61.04.16-.21.32-.43.46-.66-.15-.54-.37-1.07-.65-1.58-.13-.25-.29-.5-.45-.75-.51.03-1,.11-1.47.23-.16-.66-.23-1.33-.2-1.98.04-1.95.8-3.82,2.1-5.25.03-.03.06-.05.08-.08.03.03.06.06.08.09Zm-9.7,12.25l.67.25c.4.15.8.26,1.2.34-.19.68-.29,1.4-.29,2.14v.33c-.71-.9-1.25-1.94-1.58-3.06Zm17.5,1.63c-.03-.25-.08-.49-.13-.72.18-.04.36-.09.54-.16-.12.3-.26.59-.41.88Z"/>
  </g>
  <path class="cls-8" d="m413.82,220.91c0,1.24-.24,2.43-.67,3.52-.12.3-.26.59-.41.88-1.17,2.24-3.22,3.96-5.69,4.7-.86.26-1.78.4-2.73.4-.88,0-1.73-.12-2.53-.35-2-.54-3.74-1.73-4.97-3.32-.71-.9-1.25-1.94-1.58-3.06-.28-.87-.42-1.81-.42-2.77,0-2.2.75-4.24,2.01-5.85.04-.05.08-.1.13-.15,1.74-2.14,4.39-3.5,7.36-3.5.15,0,.31,0,.46.01.05,0,.11,0,.16,0,2.94.19,5.52,1.72,7.13,3.98.12.17.23.34.34.51.89,1.45,1.41,3.16,1.41,4.99Z"/>
  <g>
    <path class="cls-5" d="m498.36,431.1c.4.15.8.26,1.2.34-.19.68-.29,1.4-.29,2.14v.33c-.71-.9-1.25-1.94-1.58-3.06l.67.25Z"/>
    <path class="cls-5" d="m506.8,425.59c-.51.03-1,.11-1.47.23-.16-.66-.23-1.33-.2-1.98.44.35.86.74,1.23,1.19.15.18.3.37.44.56Z"/>
    <path class="cls-5" d="m508.22,430.31c-.03,1.42-.43,2.83-1.19,4.06-.75-1.37-1.07-2.93-.94-4.47.03-.46.11-.93.23-1.38.02-.07.03-.14.06-.2.05.08.1.16.15.23.14.2.28.38.43.56.38.45.8.85,1.26,1.2Z"/>
    <path class="cls-5" d="m508.05,428.54c-.2.02-.4.03-.61.04.16-.21.32-.43.46-.66.06.2.11.41.15.62Z"/>
    <path class="cls-5" d="m499.41,422.08s.02.09.03.13c-.05,0-.11.01-.16.02.04-.05.08-.1.13-.15Z"/>
    <path class="cls-5" d="m506.53,428.55c.14.2.28.38.43.56-.27.29-.56.55-.87.79.03-.46.11-.93.23-1.38.02-.07.03-.14.06-.2.05.08.1.16.15.23Z"/>
    <path class="cls-5" d="m509.13,424.25c-.03.5-.12,1-.25,1.49h-.01c-.06.23-.13.45-.21.67-.2.54-.46,1.04-.76,1.51-.15-.54-.37-1.07-.65-1.58-.13-.25-.29-.5-.45-.75-.51.03-1,.11-1.47.23-.16-.66-.23-1.33-.2-1.98.04-1.95.8-3.82,2.1-5.25.03-.03.06-.05.08-.08.03.03.06.06.08.09,1.26,1.57,1.91,3.6,1.74,5.65Z"/>
    <path class="cls-5" d="m508.22,430.31c-.03,1.42-.43,2.83-1.19,4.06-.75-1.37-1.07-2.93-.94-4.47.03-.46.11-.93.23-1.38.02-.07.03-.14.06-.2.05.08.1.16.15.23.14.2.28.38.43.56.38.45.8.85,1.26,1.2Z"/>
    <path class="cls-5" d="m507.44,428.58c.16-.21.32-.43.46-.66.06.2.11.41.15.62-.2.02-.4.03-.61.04Z"/>
    <path class="cls-5" d="m509.13,424.25c-.03.5-.12,1-.25,1.49h-.01c-.06.23-.13.45-.21.67-.2.54-.46,1.04-.76,1.51-.15-.54-.37-1.07-.65-1.58.15-.25.33-.5.52-.74.04-.06.09-.12.14-.18.37-.44.78-.84,1.22-1.17Z"/>
    <path class="cls-5" d="m515.6,431.6c-.12.3-.26.59-.41.88-.03-.25-.08-.49-.13-.72.18-.04.36-.09.54-.16Z"/>
    <path class="cls-5" d="m507.44,428.58c.16-.21.32-.43.46-.66.06.2.11.41.15.62-.2.02-.4.03-.61.04Z"/>
    <path class="cls-5" d="m509.13,424.25c-.03.5-.12,1-.25,1.49h-.01c-.06.23-.13.45-.21.67-.2.54-.46,1.04-.76,1.51-.15-.54-.37-1.07-.65-1.58-.13-.25-.29-.5-.45-.75-.51.03-1,.11-1.47.23-.16-.66-.23-1.33-.2-1.98.04-1.95.8-3.82,2.1-5.25.03-.03.06-.05.08-.08.03.03.06.06.08.09,1.26,1.57,1.91,3.6,1.74,5.65Z"/>
    <path class="cls-5" d="m508.22,430.31c-.03,1.42-.43,2.83-1.19,4.06-.75-1.37-1.07-2.93-.94-4.47.03-.46.11-.93.23-1.38.02-.07.03-.14.06-.2.05.08.1.16.15.23.14.2.28.38.43.56.38.45.8.85,1.26,1.2Z"/>
    <path class="cls-5" d="m507.44,428.58c.16-.21.32-.43.46-.66.06.2.11.41.15.62-.2.02-.4.03-.61.04Z"/>
    <path class="cls-5" d="m508.87,425.74c-.06.23-.13.45-.21.67-.2.54-.46,1.04-.76,1.51-.15-.54-.37-1.07-.65-1.58-.13-.25-.29-.5-.45-.75.15-.01.31-.01.47-.01.17,0,.34.01.5.02.37.02.74.07,1.1.14Z"/>
    <path class="cls-5" d="m506.38,428.32c.05.08.1.16.15.23-.07-.01-.14-.02-.21-.03.02-.07.03-.14.06-.2Z"/>
    <path class="cls-5" d="m507.44,428.58c.16-.21.32-.43.46-.66.06.2.11.41.15.62-.2.02-.4.03-.61.04Z"/>
    <path class="cls-5" d="m509.13,424.25c-.03.5-.12,1-.25,1.49h-.01c-.06.23-.13.45-.21.67-.2.54-.46,1.04-.76,1.51-.15-.54-.37-1.07-.65-1.58-.13-.25-.29-.5-.45-.75-.51.03-1,.11-1.47.23-.16-.66-.23-1.33-.2-1.98.04-1.95.8-3.82,2.1-5.25.03-.03.06-.05.08-.08.03.03.06.06.08.09,1.26,1.57,1.91,3.6,1.74,5.65Z"/>
    <path class="cls-5" d="m527.62,431.47l-3.59-3,2.19-.82c3.21-1.2,5.2-4.27,5.2-7.52,0-.92-.16-1.86-.5-2.77-1.54-4.12-6.17-6.24-10.29-4.7l-5.36,2v-5.08c0-2.2-.9-4.2-2.35-5.65-1.45-1.45-3.45-2.35-5.65-2.35-4.4,0-8,3.6-8,8v4.78l-5.62-2.09c-4.12-1.54-8.75.57-10.29,4.7-.34.91-.5,1.85-.5,2.77,0,3.25,1.99,6.32,5.2,7.52l2.19.82-3.59,3c-3.38,2.82-3.83,7.89-1.01,11.27,2.83,3.37,7.9,3.82,11.27,1l2.35-1.96v3.19c0,4.4,3.6,8,8,8s8-3.6,8-8v-2.58l2.09,1.75c3.37,2.82,8.44,2.37,11.27-1.01,2.82-3.37,2.37-8.45-1.01-11.27Zm-20.59,2.9c-.75-1.37-1.07-2.93-.94-4.47.03-.46.11-.93.23-1.38.02-.07.03-.14.06-.2.05.08.1.16.15.23.14.2.28.38.43.56.38.45.8.85,1.26,1.2-.03,1.42-.43,2.83-1.19,4.06Zm-7.62-12.29s.02.09.03.13c-.05,0-.11.01-.16.02.04-.05.08-.1.13-.15Zm7.98-3.48c1.26,1.57,1.91,3.6,1.74,5.65-.03.5-.12,1-.25,1.49h-.01c-.06.23-.13.45-.21.67-.2.54-.46,1.04-.76,1.51.06.2.11.41.15.62-.2.02-.4.03-.61.04.16-.21.32-.43.46-.66-.15-.54-.37-1.07-.65-1.58-.13-.25-.29-.5-.45-.75-.51.03-1,.11-1.47.23-.16-.66-.23-1.33-.2-1.98.04-1.95.8-3.82,2.1-5.25.03-.03.06-.05.08-.08.03.03.06.06.08.09Zm-9.7,12.25l.67.25c.4.15.8.26,1.2.34-.19.68-.29,1.4-.29,2.14v.33c-.71-.9-1.25-1.94-1.58-3.06Zm17.5,1.63c-.03-.25-.08-.49-.13-.72.18-.04.36-.09.54-.16-.12.3-.26.59-.41.88Z"/>
  </g>
  <path class="cls-8" d="m516.27,428.08c0,1.24-.24,2.43-.67,3.52-.12.3-.26.59-.41.88-1.17,2.24-3.22,3.96-5.69,4.7-.86.26-1.78.4-2.73.4-.88,0-1.73-.12-2.53-.35-2-.54-3.74-1.73-4.97-3.32-.71-.9-1.25-1.94-1.58-3.06-.28-.87-.42-1.81-.42-2.77,0-2.2.75-4.24,2.01-5.85.04-.05.08-.1.13-.15,1.74-2.14,4.39-3.5,7.36-3.5.15,0,.31,0,.46.01.05,0,.11,0,.16,0,2.94.19,5.52,1.72,7.13,3.98.12.17.23.34.34.51.89,1.45,1.41,3.16,1.41,4.99Z"/>
  <path class="cls-6" d="m199.6,181.97c-16,25,31,52,33-19,2.09-74.3,56.8-23.06,60.06-50.48,5-42-57.49-22.93-75.06-6.52-30,28-3.11,52.74-18,76Z"/>
  <path class="cls-6" d="m225.34,162.21c-7.05-3.45-23.3,13.17-29.82,24.51-10.28,17.89,25,97,18,43-1.67-12.89,8.21-23.32,13.68-36.04,4.9-11.37,5.13-28.05-1.87-31.47Z"/>
  <path class="cls-7" d="m196.61,150.53v-5.92l5.36-2c4.12-1.54,8.75.58,10.29,4.7.34.91.5,1.85.5,2.77,0,3.25-1.99,6.32-5.2,7.52l-2.19.82-4.85-4.06c-1.23-1.02-2.68-1.62-4.17-1.79.17-.65.26-1.33.26-2.04Z"/>
  <path class="cls-7" d="m209.97,172.69c-2.83,3.38-7.9,3.83-11.27,1.01l-2.09-1.75v-8.42c0-.37-.03-.74-.08-1.1.15-.29.29-.58.41-.88.11-.03.21-.06.31-.1l8.12-3.03,3.59,3c3.38,2.82,3.83,7.9,1.01,11.27Z"/>
</svg>