<?xml version="1.0" encoding="UTF-8"?>
<svg id="Layer_1" data-name="Layer 1" xmlns="http://www.w3.org/2000/svg" xmlns:xlink="http://www.w3.org/1999/xlink" viewBox="0 0 1920 1099.16">
  <defs>
    <style>
      .cls-1 {
        fill: url(#linear-gradient);
      }

      .cls-1, .cls-2, .cls-3, .cls-4, .cls-5, .cls-6, .cls-7, .cls-8, .cls-9, .cls-10, .cls-11, .cls-12, .cls-13, .cls-14, .cls-15, .cls-16, .cls-17, .cls-18, .cls-19, .cls-20, .cls-21, .cls-22, .cls-23, .cls-24, .cls-25, .cls-26, .cls-27, .cls-28, .cls-29, .cls-30, .cls-31, .cls-32, .cls-33, .cls-34 {
        stroke-width: 0px;
      }

      .cls-2 {
        opacity: .2;
      }

      .cls-2, .cls-4, .cls-5, .cls-11, .cls-18, .cls-19, .cls-29 {
        fill: #63290f;
      }

      .cls-3 {
        fill: url(#linear-gradient-6);
      }

      .cls-4 {
        opacity: .35;
      }

      .cls-5 {
        opacity: .3;
      }

      .cls-7 {
        fill: #481a6b;
      }

      .cls-8 {
        fill: url(#linear-gradient-11);
      }

      .cls-9 {
        fill: url(#linear-gradient-5);
      }

      .cls-10 {
        fill: none;
      }

      .cls-11 {
        opacity: .45;
      }

      .cls-12 {
        fill: #881300;
      }

      .cls-13 {
        fill: url(#linear-gradient-2);
      }

      .cls-14 {
        fill: #ffceff;
      }

      .cls-15 {
        fill: url(#linear-gradient-7);
      }

      .cls-16 {
        fill: url(#radial-gradient-2);
      }

      .cls-17 {
        fill: url(#linear-gradient-3);
      }

      .cls-19 {
        opacity: .5;
      }

      .cls-20 {
        fill: #4c236b;
      }

      .cls-21 {
        fill: #3e0000;
      }

      .cls-22 {
        fill: #e09e35;
      }

      .cls-23 {
        fill: url(#linear-gradient-9);
      }

      .cls-24 {
        fill: #894b36;
      }

      .cls-25 {
        fill: url(#radial-gradient);
      }

      .cls-26 {
        fill: #e5403b;
        opacity: .7;
      }

      .cls-27 {
        fill: url(#linear-gradient-8);
      }

      .cls-28 {
        fill: #fbdaa6;
      }

      .cls-29 {
        opacity: .25;
      }

      .cls-30 {
        fill: url(#linear-gradient-10);
      }

      .cls-31 {
        fill: #fbb03b;
      }

      .cls-32 {
        fill: url(#linear-gradient-4);
      }

      .cls-33 {
        fill: #9b62c7;
      }

      .cls-34 {
        fill: #001300;
      }
    </style>
    <linearGradient id="linear-gradient" x1="380.69" y1="480.73" x2="502.09" y2="480.73" gradientUnits="userSpaceOnUse">
      <stop offset=".27" stop-color="#6e2da1"/>
      <stop offset="1" stop-color="#4b1873"/>
    </linearGradient>
    <linearGradient id="linear-gradient-2" x1="336.88" y1="432.71" x2="388.4" y2="432.71" gradientUnits="userSpaceOnUse">
      <stop offset=".07" stop-color="#b7f28f"/>
      <stop offset="1" stop-color="#67ab39"/>
    </linearGradient>
    <linearGradient id="linear-gradient-3" x1="267.75" y1="422.84" x2="312.59" y2="422.84" gradientUnits="userSpaceOnUse">
      <stop offset="0" stop-color="#67ab39"/>
      <stop offset="1" stop-color="#a9e37f"/>
    </linearGradient>
    <linearGradient id="linear-gradient-4" x1="286.87" y1="502.95" x2="324.82" y2="502.95" gradientTransform="translate(34.69 -48.31) rotate(2.79)" gradientUnits="userSpaceOnUse">
      <stop offset="0" stop-color="#471b06"/>
      <stop offset=".92" stop-color="#5c260e"/>
    </linearGradient>
    <radialGradient id="radial-gradient" cx="588.79" cy="305.98" fx="588.79" fy="305.98" r="23.13" gradientTransform="translate(-480.57 347.56) rotate(-15.36) scale(1.35 1.16)" gradientUnits="userSpaceOnUse">
      <stop offset=".08" stop-color="#99364a" stop-opacity=".5"/>
      <stop offset="1" stop-color="#894b36"/>
    </radialGradient>
    <radialGradient id="radial-gradient-2" cx="-665.22" cy="428.58" fx="-665.22" fy="428.58" r="22.74" gradientTransform="translate(601.22 39.6) scale(.49 .99)" xlink:href="#radial-gradient"/>
    <linearGradient id="linear-gradient-5" x1="276.46" y1="348.01" x2="370.63" y2="348.01" xlink:href="#linear-gradient"/>
    <linearGradient id="linear-gradient-6" x1="294.2" y1="580.67" x2="331.71" y2="580.67" xlink:href="#linear-gradient"/>
    <linearGradient id="linear-gradient-7" x1="316.08" y1="606.65" x2="395.55" y2="606.65" xlink:href="#linear-gradient-4"/>
    <linearGradient id="linear-gradient-8" x1="112.95" y1="734.15" x2="281" y2="734.15" gradientUnits="userSpaceOnUse">
      <stop offset="0" stop-color="#1b1464"/>
      <stop offset="1" stop-color="#2b238a"/>
    </linearGradient>
    <linearGradient id="linear-gradient-9" x1="210.62" y1="885.61" x2="538.69" y2="885.61" gradientUnits="userSpaceOnUse">
      <stop offset=".06" stop-color="#e85897"/>
      <stop offset="1" stop-color="#9e083e"/>
    </linearGradient>
    <linearGradient id="linear-gradient-10" x1="404.61" y1="841.74" x2="698.57" y2="841.74" gradientTransform="translate(17.83 -9.77) rotate(1.05)" xlink:href="#linear-gradient-8"/>
    <linearGradient id="linear-gradient-11" x1="210.53" y1="1081.33" x2="538.58" y2="1081.33" xlink:href="#linear-gradient-9"/>
  </defs>
  <ellipse class="cls-24" cx="260" cy="736" rx="35" ry="125"/>
  <path class="cls-24" d="m202,660c0,27.34,13,118,52.5,50,11.51-19.82,41.5-22.16,41.5-49.5s-18.58-49.5-41.5-49.5-52.5,21.66-52.5,49Z"/>
  <rect class="cls-24" x="429.26" y="649.28" width="52.19" height="148.61" rx="12" ry="12" transform="translate(135.4 -69.23) rotate(10.2)"/>
  <path class="cls-24" d="m295.3,691.65c-4.32,16.65-26.32,16.75-39.45-6.23-20.74-36.29-4.5-68.93,10.43-77.46,18.04-10.31,44.96,8.86,21.34,40.48-10.44,13.98,11.25,29.5,7.69,43.21Z"/>
  <path class="cls-33" d="m276.37,344.08c12.64-13.99,23.46-8.23,13.35,20.83-8.77,25.22,10.42,19.17,1.36,36.73-7.71,14.94-45.3,35.79-45.52,13.66-.26-26.48,18.17-57.23,30.81-71.22Z"/>
  <rect class="cls-24" x="312.9" y="652.03" width="151.88" height="83.57" transform="translate(34.23 -18.1) rotate(2.79)"/>
  <path class="cls-18" d="m305.35,478.6c-.96.19-2.06.37-3.34.51-.06-.62-.16-1.32-.26-2.05.45.41.87.86,1.19,1.21.3.33,1.22.39,2.41.33Z"/>
  <path class="cls-33" d="m249,408.31c21.3-19.76,52.4,7.01,48.35,66.85-3.52,51.92,48.55,65.72,30.04,92.07-16.7,23.77-72.61,24.09-111.54-17.88-38.93-41.97,11.86-121.28,33.15-141.04Z"/>
  <path class="cls-1" d="m436.92,392.63c-24.36-15.83-50.44,15.85-36.23,74.12,12.32,50.56-36.62,73.04-13.89,95.84,20.51,20.58,75.65,11.35,106.85-36.64,31.2-48-32.37-117.48-56.73-133.31Z"/>
  <rect class="cls-24" x="332.65" y="484.41" width="74.85" height="170.56" rx="12" ry="12" transform="translate(3.7 -2.39) rotate(.37)"/>
  <path class="cls-24" d="m263.48,464.84c-1.17-14.66,9.03-44.17,13.91-44.56s4.67,36.98,5.84,51.64c1.17,14.66-3.48,45.56-5.25,40.79-3.86-10.37-13.33-33.21-14.5-47.87Z"/>
  <path class="cls-24" d="m423.47,455.04c-10.05,58.71-49.8,86.8-96.34,94.26-51.04,8.18-48.29-25.48-56.27-85.55-7.81-58.84,18.2-130.2,76.83-127.34,83.47,4.07,85.83,59.93,75.78,118.64Z"/>
  <path class="cls-13" d="m339.41,444.21c-6.33,12.1-.03-13,10.88-19.6,19.55-11.83,33.69-5.44,37.21.56,4.25,7.24-7.07,20.24-21.01,11.46-6.16-3.88-22.96-.28-27.08,7.58Z"/>
  <circle class="cls-6" cx="360.57" cy="444.98" r="8.41"/>
  <path class="cls-6" d="m337.07,447.74s14.15-10.67,26.42-5.42c26.43,11.31,32.47-10.98,32.47-10.98-5.96,3.38-6.12,7.01-31.34,1.57-7.97-1.72-22.75,1.13-27.54,14.83Z"/>
  <path class="cls-6" d="m341.28,451.56s1.58-2.84,15.28-.08c5.69,1.15,11.04-1.45,13.4-1.46.66,0,1.16,1.35.42,1.25-2.66-.37-6.59,4.75-13.1,4.56-3.81-.12-16-4.27-16-4.27Z"/>
  <polygon class="cls-14" points="360.4 444.93 362.3 443.92 363.36 442.04 364.37 443.94 366.25 445 364.34 446.01 363.29 447.89 362.28 445.99 360.4 444.93"/>
  <path class="cls-6" d="m365.96,452.61c-.87-1.88,1.38-2.12,3-2.05,1.45.06,1.03-.88,1.45.06,1.33,2.97,10.01,4.06,10.01,4.06-4.42,1.27-8.11,2.08-10.75.77-.96-.47-3.23-1.81-3.71-2.84Z"/>
  <path class="cls-6" d="m364.12,454.04c1.21.5-.56-1.67.68-1.35,1.12.28.88-.47,1.12.28,1.07,3.3,7.5,4.56,7.5,4.56-3.5.18-7.35.02-9.34-1.31-1-.67-3.45-3.62.04-2.18Z"/>
  <path class="cls-6" d="m357.94,453.79c.97.53-.13-1.58.91-1.21.94.33.89-.38.94.33.22,3.11,5.59,5.67,5.59,5.67-3.16-.05-7.03-1.44-8.51-2.79-.75-.68-1.71-3.54,1.08-2Z"/>
  <path class="cls-17" d="m310.68,438.58c2.67,13.39,3.69-12.46-4.91-21.87-15.42-16.87-30.79-14.72-35.86-9.96-6.12,5.75,1.07,21.41,16.93,16.92,7.01-1.99,22.11,6.21,23.84,14.91Z"/>
  <circle class="cls-6" cx="296.53" cy="434.8" r="8.41"/>
  <path class="cls-6" d="m306.82,445.11s-.71-3.17-14.64-4.38c-5.78-.5-10.18-4.5-12.44-5.17-.63-.19-1.49.97-.76,1.08,2.66.4,4.98,6.42,11.28,8.07,3.69.96,16.55.41,16.55.41Z"/>
  <polygon class="cls-14" points="302.61 435.08 300.8 433.91 299.92 431.94 298.74 433.75 296.78 434.63 298.58 435.81 299.47 437.77 300.64 435.97 302.61 435.08"/>
  <path class="cls-6" d="m282.46,439.51c1.28-1.63-.85-2.39-2.43-2.7-1.43-.28-.79-1.1-1.43-.28-1.98,2.57-10.68,1.61-10.68,1.61,4,2.26,7.4,3.92,10.27,3.26,1.04-.24,3.56-1,4.27-1.9Z"/>
  <path class="cls-6" d="m289.52,444.16c-1.29.23.89-1.54-.4-1.5-1.16.03-.76-.67-1.16.03-1.72,3.05-8.3,2.88-8.3,2.88,3.4.95,7.22,1.65,9.45.76,1.12-.45,4.12-2.84.4-2.18Z"/>
  <path class="cls-6" d="m285.07,441.25c-1.08.24.57-1.47-.53-1.42-.99.05-.74-.62-.99.05-1.09,2.92-6.96,3.86-6.96,3.86,3.04.84,7.15.6,8.95-.28.91-.45,2.64-2.91-.47-2.22Z"/>
  <path class="cls-7" d="m340.24,419.95c-2.08-8.56-2.11-4.74,11.99-12.87,27.16-15.67,39.74,6.4,42.86,10.8,3.77,5.32-6.79-3.89-21.25-7.57-6.39-1.63-32.31,14.93-33.6,9.64Z"/>
  <path class="cls-12" d="m333.43,509.59c5.66-6.63,2.62,9.11-8,14.89-15.49,8.42-27.55,1.68-30.34-4.39-3.37-7.3,3.27-18.46,15.74-9.81,5.51,3.83,9.99-2.15,15.26-.96"/>
  <path class="cls-21" d="m341.07,505.78s-9.57.54-13.78-3.72c-5.05-5.12-8.73,1.4-8.73,1.4-.41,4.2,2.36,9.02,7.21,9.49,4.85.48,8.74-2.85,15.31-7.17Z"/>
  <path class="cls-21" d="m320.05,497.65c8.36,1.05,15.69,16.25,5.71,15.3-14.97-1.43-22.54,2.03-31.23-3.11-5.77-3.41-2.08-19.83,10.98-11.56,5.79,3.67,5.86-1.72,14.54-.63Z"/>
  <ellipse class="cls-21" cx="322.87" cy="511.11" rx="2.54" ry="7.99" transform="translate(-190.32 830.67) rotate(-89.63)"/>
  <path class="cls-21" d="m292.32,504.93c.12-2.37,3.64-3.69,6.94-3.52s5.88,2.22,5.76,4.59-3.19,4.46-6.49,4.3-6.33-2.99-6.22-5.36Z"/>
  <path class="cls-12" d="m324.31,513.67c2.9.75-7.28,1.41-9.67,1.39s-12.86-.81-7.04-2.23c2.1-.51,4.89-1.42,7.28-1.41s6.28,1.43,9.43,2.24Z"/>
  <path class="cls-12" d="m309.05,513.57c2.67.02-7.71,1.46-10.2,1.44s-3.62-.81-3.61-2.26c.01-2.06,1.16-2.17,3.65-2.16s7.12,2.95,10.15,2.97Z"/>
  <path class="cls-24" d="m442.51,475.92c-11.72,15.01-13.92,26.84-22.6,24.74-8.68-2.1-12.63-16.57-8.83-32.33,3.8-15.76,13.92-26.84,22.6-24.74,8.68,2.1,18.53,19.9,8.83,32.33Z"/>
  <path class="cls-32" d="m316.7,484.54c-2.49-.46-5.02-1.09-7.3-1.76-2.59.59-5.39.75-6.58.44-1.44-.36-3.12-1.38-4.05-2.78-2.8-2.41-3.16-9.16-.55-11.78,2.59-2.59,4.44-4.76,5.77-6.21,0-.01.02-.02.03-.03,3.09-4.23,8.39-9.44,8.39-9.44,0,0-2.53,9.31-5.38,13.55-1.05,1.56-2.52,3.08-3.88,4.32-.7.87-1.24,1.63-1.4,2.27-.23.93-.2,2.02-.09,3.08.17.47.32,1,.45,1.57.2.85,1.8.82,3.3.82,6.26-1.3,6.26-3.53,11.76-3.26,9.07.44,9.51,4.31,16.62,4.66,2.14.1-5.51,6.66-17.07,4.55Z"/>
  <path class="cls-6" d="m322.95,483.22c-.37,1.95-3.18,1.77-6.49.76-2.74-.83-5.42-.05-4.26-1.62,1.93-2.59,3.78-3.95,6.55-3.42s4.56,2.34,4.19,4.28Z"/>
  <path class="cls-20" d="m318.34,417.86c4.45-7.6,3.37-3.94-7.8-15.77-21.53-22.8-39.91-5.26-44.16-1.93-5.14,4.02,7.62-1.78,22.53-1.17,6.59.27,26.68,23.57,29.43,18.87Z"/>
  <path class="cls-26" d="m326.14,515.77c2.57.32.44,2.87-3.78,4.9-6.66,3.2-10.28,1.73-11.15-.07-1.05-2.18,1.26-4.46,6.22-3.5,3.03.59,6.59-1.58,8.71-1.32Z"/>
  <ellipse class="cls-31" cx="323.37" cy="474.93" rx="2.88" ry="3.02" transform="translate(-166.74 774.8) rotate(-87.21)"/>
  <ellipse class="cls-28" cx="324.71" cy="474.35" rx=".75" ry="1.22" transform="translate(-70.53 56.94) rotate(-9.04)"/>
  <path class="cls-24" d="m501.58,664.64c-58.17,6.49-145.7-6.92-198.45,18.44-15.41,7.41-25.76,5.24-38.54-6.18-4.39-3.92-7.19-6.21-10.41-15.6-9.38-27.37,14.64-70.54,35.31-70.95,63.66-1.25,124.41-3.83,183.74-10.27,33.82-3.67,44.8,23.27,52.8,46.57,5.1,14.85,3.73,50.3,5.13,50.46-.25,15.85-12.59-14.36-29.59-12.47Z"/>
  <rect class="cls-22" x="420.47" y="495.7" width="2.18" height="8.72" rx="1.09" ry="1.09" transform="translate(24.84 -19.93) rotate(2.79)"/>
  <circle class="cls-31" cx="422.27" cy="492.16" r="5.45"/>
  <ellipse class="cls-28" cx="425.77" cy="491.26" rx=".96" ry="1.41" transform="translate(-71.93 73.04) rotate(-9.04)"/>
  <ellipse class="cls-28" cx="429.7" cy="506.02" rx="1.64" ry="2.52" transform="translate(-141.77 168.21) rotate(-19.07)"/>
  <path class="cls-33" d="m213.41,389.7c-1.34,27.4,34.34,24.57,67.14-6.2,32.81-30.77,88.96-3.62,86.21-50.27-1.61-27.4-35.37-51.46-81.99-53.73-46.62-2.27-70.03,82.8-71.37,110.2Z"/>
  <path class="cls-33" d="m237.89,357.71c25.78-13.39,48.97,21.28,29.48,78.49-16.91,49.64,23.19,68.83,5.18,98.03-15.32,24.83-93.3,10.67-95.16-47.32-2.23-69.38,34.73-115.81,60.51-129.2Z"/>
  <path class="cls-6" d="m260.05,410.29c4.77,4.93,3.89,8.45,29.63,10.35,8.13.6,21.51,7.5,22.24,21.99,0,0-10.56-14.23-23.81-12.65-28.55,3.4-28.06-19.69-28.06-19.69"/>
  <path class="cls-33" d="m355.93,354.54c-10.1-40.47,30.24-48.25,53.35-23.69,36.5,38.79,106.17,25.98,89.64,111.81-19.96,103.67-58.47,60.36-84.23-29.51-11.37-39.68-50.45-25.28-58.77-58.61Z"/>
  <path class="cls-33" d="m373.83,350.83c-9.53-40.35,40.16-54.76,62.69-30.84,46.35,49.2,68.09,42.73,68.66,128.86.68,104-51.24,49.92-75.55-39.68-10.73-39.56-47.95-25.1-55.8-58.34Z"/>
  <path class="cls-33" d="m210.74,377.49c-3.49,24.61,38.66,13.16,77.49-10.91,38.83-24.08,99.48,6.83,99.82-35.63.2-24.94-35.07-59.06-87.52-57.87-76.47,1.74-86.31,79.8-89.8,104.41Z"/>
  <path class="cls-33" d="m252.55,341.11c-9.98,18.64,3.61,39.3,35.35,28.03,31.74-11.27,74,4.33,83.99-19.98,8.04-19.55-6.11-46.69-35.93-62.65-29.82-15.96-73.43,35.96-83.41,54.6Z"/>
  <path class="cls-31" d="m420.53,519.66s8.35-4.96,10.72-8.7l.52-.84c.41-.77.66-1.64.71-2.57.17-3.41-2.46-6.3-5.87-6.47-2.17-.11-4.13.93-5.31,2.57-1.02-1.75-2.87-2.97-5.04-3.07-3.41-.17-6.3,2.46-6.47,5.87-.05.93.12,1.82.45,2.62l.44.89c1.99,3.95,9.82,9.7,9.82,9.7h.02Z"/>
  <path class="cls-33" d="m192.05,487.95c8.12-22.53,46.44-12.75,71.58,34.57,21.82,41.05,71.21,33.63,68.53,60.25-2.42,24.02-51.37,51.58-95.86,23.95-49.98-31.05-52.36-96.24-44.25-118.76Z"/>
  <path class="cls-24" d="m224.87,721.84c3.33-34.03,28.89-43.69,64.15-62.35,33.81-17.9,59,30.04,57.83,64.39-1.17,34.35-39.54,49.31-70.32,47.49-27.51-1.62-55-15.5-51.67-49.53Z"/>
  <path class="cls-33" d="m255.73,391.03c-2.19,8.97.62,17.36,6.27,18.74s10.13,3.16,14.39-13.55c4.69-18.37-.8-17.55-6.45-18.93s-12.01,4.77-14.2,13.73Z"/>
  <ellipse class="cls-28" cx="425.69" cy="491.33" rx=".96" ry="1.41" transform="translate(-71.94 73.03) rotate(-9.04)"/>
  <path class="cls-25" d="m416,469.15c3.02,10.99-8.81,24.62-28.68,30.08-19.88,5.46-38.44.98-41.46-10.02-3.02-10.99,9.53-22.72,28.72-30.24,34.54-13.52,38.4-.82,41.42,10.17Z"/>
  <ellipse class="cls-28" cx="429.12" cy="505.87" rx="1.43" ry="2.31" transform="translate(-141.76 168.01) rotate(-19.07)"/>
  <path class="cls-33" d="m187.98,497.76c11.01-16.7,37.02-3.34,44.94,37.89,6.87,35.77,55.18,45.16,36.95,57.83-19.02,13.22-47.47,30.65-79.33,5.1-33.93-27.21-13.57-84.13-2.56-100.83Z"/>
  <path class="cls-33" d="m266.29,603.45c-.22,4.61.83,12.77-12.89,10.65-17.65-2.73-22.9-7.77-22.68-12.38s8.37-7.96,18.19-7.48c9.82.48,17.6,4.6,17.38,9.21Z"/>
  <path class="cls-33" d="m356.81,357.81c-9.57-39.44,28.83-47.08,50.8-23.16,34.69,37.78,101,25.21,85.18,108.9-19.11,101.1-99.86,47.87-79.24-40.68,9.12-39.15-48.86-12.58-56.74-45.07Z"/>
  <circle class="cls-2" cx="375.01" cy="477.42" r="1.45"/>
  <circle class="cls-29" cx="275.1" cy="467.46" r="1.45"/>
  <circle class="cls-2" cx="328.24" cy="451.86" r="1.45"/>
  <circle class="cls-2" cx="369.52" cy="470.61" r="1.45"/>
  <circle class="cls-29" cx="345.84" cy="478.91" r="1.45"/>
  <circle class="cls-11" cx="364.02" cy="479.07" r=".73"/>
  <circle class="cls-19" cx="322.83" cy="465.79" r="1.09"/>
  <circle class="cls-5" cx="358.4" cy="467.52" r="1.82"/>
  <circle class="cls-2" cx="354.03" cy="474.95" r="1.45"/>
  <circle class="cls-2" cx="268.71" cy="464.24" r=".73"/>
  <circle class="cls-4" cx="289.96" cy="468.55" r="1.82"/>
  <circle class="cls-11" cx="346.4" cy="467.3" r="1.45"/>
  <circle class="cls-5" cx="338.55" cy="471.65" r="1.09"/>
  <circle class="cls-2" cx="282.19" cy="463.81" r="1.09"/>
  <circle class="cls-11" cx="277.8" cy="456.68" r="1.45"/>
  <circle class="cls-29" cx="314.12" cy="465.36" r="1.09"/>
  <circle class="cls-2" cx="330.2" cy="463.96" r="1.09"/>
  <circle class="cls-5" cx="288.28" cy="458.28" r="1.09"/>
  <circle class="cls-2" cx="295.74" cy="461.92" r=".73"/>
  <circle class="cls-19" cx="301" cy="458.54" r="1.45"/>
  <circle class="cls-5" cx="320.63" cy="458.77" r="1.45"/>
  <path class="cls-16" d="m290.29,463.51c0,9.73-6.02,17.61-13.44,17.61s-9.81,4.74-11.99-17.06,4.57-18.17,11.99-18.17,13.44,7.89,13.44,17.61Z"/>
  <path class="cls-9" d="m280.11,373.95c-11.63,19.62,7.27,2.91,18.17-.73,43.41-14.47,60.81-2.46,69.04-23.25,12.17-30.78-11.09-42.84-39.24-34.88-33.43,9.45-40.14,45.67-47.96,58.86Z"/>
  <path class="cls-33" d="m305.99,305.05c-24.66.93-32.87,4.51-45.92,34.25-11.33,25.8-20.59,45.12,1.86,60.06,21.03,14,20.77-37.74,30.49-52.94,13.02-20.38,36.38-42.23,13.58-41.37Z"/>
  <path class="cls-3" d="m313.81,610.35l-6.62,1.78c-5.89,2.33-13.14-.34-12.98-5.8.09-3.15.44-6.29.44-8.23v-46.16c0-.29-.35-3.59,0-3.59l17.34,2.3c24.64-2.3,22.82-5.36,12.78,9.95l5.48,33.68c0,5.05-4.56,9.18-16.43,16.07Z"/>
  <path class="cls-15" d="m322.02,549.38c8.8-2.54,19.64-5.58,27.92-8.34,9.53-3.17,14.67-5.61,22.92-11.5,9.57-6.84,21.33-15.51,30.81-22.97-13.57,22.28-33.12,42.47-46.38,64.54-13.26,22.07-14.47,49.71-23.98,72.97-2.02-17.57-6.58-40.99-8.27-57.29-1.69-16.29-1.81-22.86-3.02-37.42Z"/>
  <path class="cls-33" d="m288.11,616.66c24.39.77,23.25-29.07,23.25-34.88,0-5.09,1.05-28.72-17.44-34.88-17.33-5.77-5.51,26.4-6.92,38.33-1.89,16-13.52,30.97,1.1,31.43Z"/>
  <rect class="cls-10" width="1920" height="1080"/>
  <path class="cls-24" d="m698.48,842.49l-25.61,22.88c-6.23,5.88-20.03,13-25.91,6.76l-173.06-195.11c-5.88-6.23-5.58-16.14.65-22.02l35.68-33.64c6.23-5.88,18.91-10.68,24.78-4.44l138.98,182.08c5.88,6.23,30.71,37.61,24.48,43.49Z"/>
  <path class="cls-24" d="m685.77,846.13c-11.19,7.74-45.72-22.79-77.14-68.18-31.42-45.4-57.94-100.11-46.75-107.85,11.19-7.74,55.84,38.16,86.92,83.79,40.37,59.28,48.16,84.5,36.97,92.24Z"/>
  <path class="cls-24" d="m585.64,852.58c-30.43,32.62-48.57,66.22-36,79.56s49.08-.65,81.54-31.25c32.46-30.6,82.9-59.24,36-79.56-16.82-7.29-45.78-7.08-81.54,31.25Z"/>
  <path class="cls-24" d="m553,646c4,24-28.25,25-52,25s-43-16.57-43-37,18.25-40,42-40,49.64,31.84,53,52Z"/>
  <path class="cls-33" d="m505.53,439.42c-6.93-33.25-83.44-17.11-66.54,47.09,13.27,50.42-47.79,60-34.5,94.65,11.99,31.26,61.98,52.71,105.8,18.34,59.17-46.41,2.64-124.58-4.76-160.09Z"/>
  <path class="cls-24" d="m628.7,832.62c-8.08,6.88-45.27-23.56-83.06-67.98s-73.37-97.47-65.29-104.35c8.08-6.88,57.61,38.58,95.15,83.21,48.77,57.97,61.28,82.24,53.19,89.12Z"/>
  <path class="cls-27" d="m281,795.5c0,46.69-25.02,101.48-41.56,112.51-4.93,4.43-10.2,6.95-14.87,6.95-9.64,0-24.42-14.12-33.34-32.5-13.75-15.97-28.86-43.82-39.28-77.52-12.25-39.63-18.74-64.45-21.32-80.24l-16.58-47.74c-1.97-5.65-1.28-18.27,2-26.51.16-1.35.52-2.69,1.12-3.99l5.29-11.58c.27-3.37.99-7.6,2.26-12.89,1.01-4.23,1.94-8.27,2.97-11.83h0c-.97-7.3-1-16.36.28-26.65,1.88-14.92,26.07-36.27,29.6-28.53,4.7,10.31-15.87,27.67-13.14,35.47,1.08,3.07,1.91,5.97,2.54,8.7-.12.29-.23.58-.34.87.12-.02.24-.02.37-.02.05,0,.11,0,.16.01-.06-.28-.12-.57-.19-.86,2.69-6.79,7.03-14.66,13.07-22.94,8.88-12.13,37.15-23.81,36.48-15.33-.9,11.3-25.92,19.58-27.31,27.74-.95,5.48-2.18,10.26-3.62,14.35,4.02-2.87,8.79-5.74,14.31-8.57,13.39-6.84,46.04-5.97,41.62,1.29-5.88,9.69-31.96,5.82-36.88,12.48-2.09,2.83-4.16,5.36-6.19,7.59,1.43-.77,2.89-1.53,4.42-2.27,13.5-6.6,43.96-3.76,39.41,3.43-6.06,9.58-32.06,5.25-37.1,11.81-1.79,2.33-3.55,4.46-5.3,6.37-.47.52-.95,1.03-1.41,1.52.19.44.33.99.4,1.66.34,3.51-1.2,10.33-6.19,23.7-1.72,4.63-3.88,8.78-6.23,12.12l16.3,57.02h0c5.01,8.77,9.99,18.73,14.73,29.62,7.03,6.75,15.83,18.11,23.6,30.01,1.19-49.39,16.31-89.75,31.42-89.75s28.5,42.31,28.5,94.5Z"/>
  <path class="cls-34" d="m185.89,755.02c-.36.86-.81,1.69-1.32,2.46.26-1.13.69-1.96,1.32-2.46Z"/>
  <path class="cls-23" d="m371.29,1096.72c.86,0,1.72-.04,2.57-.06,4.99-.83,9.96-2.63,14.87-3.53,6.12-1.12,12.3-2.06,18.51-2.52,8.49-.64,16.32.55,24.21,2.48,8.52-.54,17.03-1.28,25.51-2.31,13.9-1.68,28-3.55,41.71-6.41,10.52-2.2,21.33-5.91,32.21-4.76.56.06,1.07.2,1.54.37,1.89-.15,3.79-.24,5.69-.3,1.36-10.27.39-22.13-3.54-35.77-4.53-15.75-10.38-30.93-17.89-44.36-3.18-6.56-8.33-14.72-16.11-24.93-16.86-22.13-25.23-33.07-30.07-37.89-10.7-15.17-23.93-30.06-27.34-46.86,3.14-11.79,10.21-28.69,24.38-68.82,11.14-31.59,11.32-51.37,4.84-61.02-.31-.99-.71-1.97-1.2-2.93l-18.53-36.51c-.09-.18-.19-.36-.28-.53-4.22-13.48-10.94-24.75-18.72-31.13l-.05-.05c-12.83-11.63-30.7-14.3-46.61-14.73-15.29-.42-39.96,9.88-57.28,21.41-17.5-10.89-41.67-20.25-56.63-19.53-26.09,1.25-57.32,8.66-62.18,51.17-.3,2.62-.36,5.2-.18,7.7.41,28.09,15.69,43.17,35.66,61.56.49,4.1,1.36,9.01,2.66,14.86.98,4.43,1.97,8.7,3.02,12.61,5.2,31.74,43.56,63.72,15.74,97.14-.57.68-1.12,1.36-1.67,2.03-6.6,5.82-16.35,17.95-31.13,40.13-11.73,17.61-17.2,30.64-18.91,40.49-2.73,10.02-4.19,20.48-4.2,31.24-.58,2.44-.89,4.98-.89,7.59v29.37c0,.32.02.63.02.94,5.28.38,10.7,2.05,15.42,3.18,5.26,1.27,10.65,1.78,15.92,3.09,6.43,1.6,12.68,3.83,18.89,6.14,5.4,2.01,11.26,5.14,17.04,5.71,5.95.59,11.91-1.29,17.75-2.12,12.08-1.72,24.6-1.04,36.62.79,6.72,1.02,13.25,2.66,19.8,4.41,5.48,1.46,11.21,3.11,16.93,3.03.55-.22,1.18-.36,1.9-.36Z"/>
  <path class="cls-30" d="m697.91,845.73c-2.83,6.82-29.94,32.29-70.07,62.65-24.23,18.33-50.3,31.08-68.06,37.79-8.87,6-15.83,10.16-21.66,12.42-8.08,13.92-22.53,33.18-38.08,32.5-4.8-.2-8.79-1.02-12.12-2.28-4.86.62-10.28-.34-15.34-3.91-6.85-4.84-22.92,15.56-33.7,11.12-7.32-3,8.63-20.99,22.25-26.41-1.34-.59-2.67-1.35-3.98-2.27-6.87-4.85-22.92,15.55-33.7,11.13-8.08-3.33,12.14-24.88,26.36-27.67.15-.04.28-.06.43-.09-.34-.33-.66-.67-.99-1.03-5.25-5.7-28.22,9.78-37.97,5.15-7.31-3.48,21.14-23.23,34.7-22.85.07,0,.16,0,.23.01-.94-.46-1.9-.97-2.87-1.47-7.42-3.96-26.93,12.69-36.68,6.3-7.32-4.79,16.62-22.13,31.11-22.19,15.15-.06,27.46,2.77,35.1,6.79,3.84.54,8.84,1.5,15.28,2.97,5.59,1.27,9.63,2.29,12.53,3.18l14.88-10.37c8.08-7.81,19.83-16.23,32.13-26.61,2.58-2.19,5.08-4.22,7.5-6.1l11.4-13.06.08-.1c2.28-2.76,4.67-5.54,7.17-8.33.04-.05.08-.1.13-.15,4.67-5.7,9.8-11.48,15.31-17.21,5.98-6.22,11.77-11.45,17.34-15.81l-3.12-3.39c-9.56-7.29-20.88-17.47-32.37-29.39-15.52-16.1-27.88-31.79-34.41-43.01l-5.25-5.69c-4.18-5.39-12.28-7.46,2.65-17.79l55.35-43.21c5.39-4.19,8.5.66,12.68,6.05l11.93,16.83s.01,0,.01.01c10.31,10.16,22.21,24.46,33.79,41.1,10.2,14.66,18.61,28.92,24.52,41.14l22.15,31.25c6.53,8.4,9.03,15.37,3.36,21.98Z"/>
  <path class="cls-8" d="m538.58,1098.75c-109.34.35-218.71.78-328.05-.16.12-11.7.36-23.39.56-35.09,109.03,1.52,218.2.84,327.24.24.09,11.67.19,23.34.25,35.01Z"/>
</svg>