<?xml version="1.0" encoding="UTF-8"?>
<svg id="Layer_1" data-name="Layer 1" xmlns="http://www.w3.org/2000/svg" xmlns:xlink="http://www.w3.org/1999/xlink" viewBox="0 0 931.09 874.33">
  <defs>
    <style>
      .cls-1 {
        fill: #e19f35;
      }

      .cls-1, .cls-2, .cls-3, .cls-4, .cls-5, .cls-6, .cls-7, .cls-8, .cls-9, .cls-10, .cls-11, .cls-12, .cls-13, .cls-14, .cls-15, .cls-16, .cls-17, .cls-18, .cls-19, .cls-20, .cls-21, .cls-22, .cls-23, .cls-24, .cls-25, .cls-26, .cls-27, .cls-28, .cls-29, .cls-30, .cls-31, .cls-32, .cls-33, .cls-34, .cls-35, .cls-36, .cls-37 {
        stroke-width: 0px;
      }

      .cls-2 {
        fill: url(#linear-gradient-12);
      }

      .cls-3 {
        fill: url(#linear-gradient);
      }

      .cls-4 {
        fill: #fbb03c;
      }

      .cls-5 {
        opacity: .25;
      }

      .cls-5, .cls-8, .cls-15, .cls-16, .cls-22, .cls-30, .cls-35 {
        fill: #632b12;
      }

      .cls-6 {
        fill: #48266b;
      }

      .cls-7 {
        fill: url(#linear-gradient-6);
      }

      .cls-8 {
        opacity: .2;
      }

      .cls-9 {
        fill: #010101;
      }

      .cls-10 {
        fill: #efcfe3;
      }

      .cls-11 {
        fill: #e6413b;
        opacity: .7;
      }

      .cls-12 {
        fill: url(#linear-gradient-11);
      }

      .cls-13 {
        fill: url(#linear-gradient-5);
      }

      .cls-14 {
        fill: none;
      }

      .cls-15 {
        opacity: .3;
      }

      .cls-17 {
        fill: url(#linear-gradient-13);
      }

      .cls-18 {
        fill: #871a1a;
      }

      .cls-19 {
        fill: #0f1a0f;
      }

      .cls-20 {
        fill: url(#linear-gradient-14);
      }

      .cls-21 {
        fill: url(#linear-gradient-2);
      }

      .cls-22 {
        opacity: .5;
      }

      .cls-23 {
        fill: url(#linear-gradient-7);
      }

      .cls-24 {
        fill: url(#radial-gradient-2);
      }

      .cls-25 {
        fill: url(#linear-gradient-3);
      }

      .cls-26 {
        fill: #9164aa;
      }

      .cls-38 {
        clip-path: url(#clippath);
      }

      .cls-27 {
        fill: url(#linear-gradient-9);
      }

      .cls-28 {
        fill: url(#radial-gradient);
      }

      .cls-29 {
        fill: #4d276c;
      }

      .cls-30 {
        opacity: .35;
      }

      .cls-31 {
        fill: url(#linear-gradient-8);
      }

      .cls-32 {
        fill: #8a4c37;
      }

      .cls-33 {
        fill: #fbd9a6;
      }

      .cls-34 {
        fill: #381313;
      }

      .cls-35 {
        opacity: .45;
      }

      .cls-36 {
        fill: url(#linear-gradient-10);
      }

      .cls-37 {
        fill: url(#linear-gradient-4);
      }
    </style>
    <clipPath id="clippath">
      <rect class="cls-14" y="94.33" width="441.88" height="780"/>
    </clipPath>
    <linearGradient id="linear-gradient" x1="106.47" y1="690.97" x2="193.73" y2="690.97" gradientTransform="translate(43.72 83.82) rotate(2.79)" gradientUnits="userSpaceOnUse">
      <stop offset=".06" stop-color="#4e4e4e"/>
      <stop offset="1" stop-color="#1a1a1a"/>
    </linearGradient>
    <linearGradient id="linear-gradient-2" x1="106.53" y1="736.51" x2="107.08" y2="736.51" xlink:href="#linear-gradient"/>
    <linearGradient id="linear-gradient-3" x1="211.76" y1="799.14" x2="299.02" y2="799.14" gradientTransform="translate(-82.82 14) rotate(-6.09)" xlink:href="#linear-gradient"/>
    <linearGradient id="linear-gradient-4" x1="208" y1="833.04" x2="208.56" y2="833.04" gradientTransform="translate(-82.82 14) rotate(-6.09)" xlink:href="#linear-gradient"/>
    <linearGradient id="linear-gradient-5" x1="218.12" y1="222.66" x2="274.35" y2="222.66" gradientUnits="userSpaceOnUse">
      <stop offset=".27" stop-color="#6d3996"/>
      <stop offset="1" stop-color="#4c2872"/>
    </linearGradient>
    <linearGradient id="linear-gradient-6" x1="197.83" y1="200.42" x2="221.7" y2="200.42" gradientUnits="userSpaceOnUse">
      <stop offset=".07" stop-color="#bbda8d"/>
      <stop offset="1" stop-color="#67ab44"/>
    </linearGradient>
    <linearGradient id="linear-gradient-7" x1="165.81" y1="195.85" x2="186.58" y2="195.85" gradientUnits="userSpaceOnUse">
      <stop offset="0" stop-color="#67ab44"/>
      <stop offset="1" stop-color="#add480"/>
    </linearGradient>
    <linearGradient id="linear-gradient-8" x1="165.36" y1="222.72" x2="182.94" y2="222.72" gradientTransform="translate(24.91 -13.74) rotate(2.79)" gradientUnits="userSpaceOnUse">
      <stop offset="0" stop-color="#451f10"/>
      <stop offset=".92" stop-color="#5c2812"/>
    </linearGradient>
    <radialGradient id="radial-gradient" cx="282.34" cy="187.51" fx="282.34" fy="187.51" r="10.71" gradientTransform="translate(-207.41 113.24) rotate(-15.36) scale(1.35 1.16)" gradientUnits="userSpaceOnUse">
      <stop offset=".08" stop-color="#9a374b" stop-opacity=".5"/>
      <stop offset="1" stop-color="#8a4c37"/>
    </radialGradient>
    <radialGradient id="radial-gradient-2" cx="-131.83" cy="179" fx="-131.83" fy="179" r="10.53" gradientTransform="translate(234.45 37.64) scale(.49 .99)" xlink:href="#radial-gradient"/>
    <linearGradient id="linear-gradient-9" x1="169.85" y1="161.19" x2="213.46" y2="161.19" xlink:href="#linear-gradient-5"/>
    <linearGradient id="linear-gradient-10" x1="178.07" y1="268.95" x2="195.44" y2="268.95" xlink:href="#linear-gradient-5"/>
    <linearGradient id="linear-gradient-11" x1="178.9" y1="270.75" x2="215.71" y2="270.75" xlink:href="#linear-gradient-8"/>
    <linearGradient id="linear-gradient-12" x1="94.12" y1="340.04" x2="171.95" y2="340.04" gradientUnits="userSpaceOnUse">
      <stop offset="0" stop-color="#272361"/>
      <stop offset="1" stop-color="#2f2f86"/>
    </linearGradient>
    <linearGradient id="linear-gradient-13" x1="109.66" y1="569.08" x2="341.17" y2="569.08" gradientUnits="userSpaceOnUse">
      <stop offset=".06" stop-color="#e75997"/>
      <stop offset="1" stop-color="#9d1b41"/>
    </linearGradient>
    <linearGradient id="linear-gradient-14" x1="222.95" y1="381.46" x2="359.1" y2="381.46" gradientTransform="translate(14.37 3.24) rotate(1.05)" xlink:href="#linear-gradient-12"/>
  </defs>
  <g class="cls-38">
    <g>
      <path class="cls-3" d="m200.32,850.34c-6.47.19-8.7.31-15.54-.76.53-15.1,1.84-30.18,2.89-45.25-7.42,1.78-12.55-1.48-18.87,14.54-.26.66-.56,1.3-.89,1.91.04.32.06.68.05,1.06-.16,8-1.4,15.95-1.51,24.04-.04,2.85-.11,3.45-3.25,3.88-19.16,2.58-27.77,2.87-46.58-2.28-3.09-.84-3.06-1.34-2.95-4.19.2-5.11.23-10,.38-14.91.09-2.85.21-5.71.44-8.62.17-.22.37-.44.59-.66,2.23-2.34,5.95-4.84,11.5-7.44,16.93-7.93,21.94-20.3,29.19-31.33,2.12-3.22,2.9-4.78,3.08-5.57.54-1.32.9-2.73.92-4.13.35-1.47.56-2.98.46-4.44.09-1.93.17-3.85.1-5.77.1-1.41.18-2.91.22-4.62-1.33-11.9-2.57-31.97-4.06-41.71-.48-3.15-.63-4.06-.65-4.05,0,.16.51,3.9-.13-.19,13.99.83,27.9,1.09,41.8,2.32-1.65,8.79-3.79,16.98-4.79,26.02.12,6.35-.59,12.6-1.23,18.91-.03.12-.04.25-.04.39l-.04.4c.03.09.06.19.08.28.08.98.19,1.93.47,2.84.24.97.65,1.91,1.08,2.77.07.13.16.25.27.34.49.85,1.34,2.25,1.71,2.9,2.46,4.22,5.02,8.14,6.45,12.71.01,0,.07-.02.07-.02.93,4.33,1.29,8.19.29,11.78-.91,19.54-1.47,39.3-1.55,58.85Z"/>
      <path class="cls-21" d="m114.84,824.33c-.21.22-.41.44-.59.66v-.1c.02-.25.23-.43.59-.56Z"/>
    </g>
    <g>
      <path class="cls-25" d="m306.38,843.55c-6.36,1.19-8.55,1.65-15.47,1.65-1.81-15-2.84-30.1-4.13-45.15-7.06,2.9-12.63.48-16.4,17.28-.16.69-.35,1.37-.58,2.03.09.31.17.66.22,1.04,1.08,7.92,1.07,15.97,2.22,23.99.4,2.82.43,3.43-2.61,4.33-18.53,5.5-27,7.12-46.37,4.93-3.18-.35-3.23-.85-3.56-3.68-.59-5.08-1.32-9.91-1.93-14.78-.35-2.83-.67-5.68-.89-8.59.14-.24.3-.49.48-.74,1.84-2.66,5.13-5.7,10.21-9.13,15.5-10.45,18.54-23.45,24.01-35.46,1.6-3.51,2.13-5.17,2.18-5.98.33-1.39.47-2.84.27-4.22.12-1.51.09-3.03-.23-4.46-.21-1.92-.42-3.83-.79-5.72-.12-1.41-.27-2.91-.5-4.6-3.15-11.55-7.48-31.19-10.45-40.58-.96-3.04-1.25-3.91-1.26-3.9.02.16,1.11,3.78-.15-.17,13.95-1.34,27.74-3.23,41.66-4.16-.28,8.94-1.12,17.36-.71,26.45,1.1,6.26,1.36,12.54,1.7,18.87,0,.12,0,.26.02.39l.02.4c.05.09.09.18.13.26.23.95.49,1.88.9,2.73.39.92.93,1.78,1.5,2.57.09.12.2.22.32.3.61.76,1.67,2.02,2.14,2.6,3.08,3.79,6.22,7.26,8.33,11.56.01,0,.06-.03.06-.03,1.59,4.13,2.54,7.9,2.11,11.59,2.11,19.45,4.61,39.06,7.56,58.38Z"/>
      <path class="cls-37" d="m212.88,819.88c-.18.25-.34.5-.48.74v-.1c-.03-.25.14-.46.48-.64Z"/>
    </g>
    <ellipse class="cls-32" cx="162.22" cy="340.9" rx="16.21" ry="57.9"/>
    <path class="cls-32" d="m135.36,305.69c0,12.66,6.02,54.65,24.32,23.16,5.33-9.18,19.22-10.26,19.22-22.93s-8.61-22.93-19.22-22.93-24.32,10.03-24.32,22.7Z"/>
    <rect class="cls-32" x="240.62" y="300.73" width="24.17" height="68.83" rx="10.02" ry="10.02" transform="translate(63.38 -39.47) rotate(10.2)"/>
    <path class="cls-32" d="m178.57,320.35c-2,7.71-12.19,7.76-18.27-2.88-9.61-16.81-2.09-31.93,4.83-35.88,8.35-4.77,20.82,4.1,9.88,18.75-4.84,6.47,5.21,13.66,3.56,20.02Z"/>
    <path class="cls-26" d="m169.81,159.37c5.85-6.48,10.87-3.81,6.19,9.65-4.06,11.68,4.83,8.88.63,17.01-3.57,6.92-20.98,16.58-21.08,6.33-.12-12.27,8.42-26.51,14.27-32.99Z"/>
    <rect class="cls-32" x="186.73" y="302" width="70.35" height="38.71" transform="translate(15.91 -10.42) rotate(2.79)"/>
    <path class="cls-16" d="m183.23,221.68c-.44.09-.95.17-1.55.24-.03-.29-.07-.61-.12-.95.21.19.4.4.55.56.14.15.56.18,1.11.15Z"/>
    <path class="cls-26" d="m157.13,189.12c9.86-9.15,24.27,3.25,22.39,30.96-1.63,24.05,22.49,30.44,13.91,42.64-7.73,11.01-33.63,11.16-51.66-8.28-18.03-19.44,5.49-56.17,15.36-65.33Z"/>
    <path class="cls-13" d="m244.17,181.85c-11.28-7.33-23.36,7.34-16.78,34.33,5.71,23.42-16.96,33.83-6.43,44.39,9.5,9.53,35.04,5.26,49.49-16.97,14.45-22.23-14.99-54.41-26.28-61.75Z"/>
    <rect class="cls-32" x="195.88" y="224.37" width="34.67" height="79" rx="12" ry="12" transform="translate(1.71 -1.38) rotate(.37)"/>
    <path class="cls-32" d="m163.84,215.3c-.54-6.79,4.18-20.46,6.45-20.64s2.16,17.13,2.71,23.92c.54,6.79-1.61,21.1-2.43,18.89-1.79-4.8-6.17-15.38-6.72-22.17Z"/>
    <path class="cls-32" d="m237.94,210.76c-4.66,27.19-23.07,40.2-44.62,43.66-23.64,3.79-22.37-11.8-26.06-39.63-3.62-27.25,8.43-60.31,35.59-58.98,38.66,1.88,39.76,27.76,35.1,54.95Z"/>
    <path class="cls-7" d="m199,205.74c-2.93,5.6-.01-6.02,5.04-9.08,9.06-5.48,15.6-2.52,17.23.26,1.97,3.35-3.27,9.38-9.73,5.31-2.86-1.8-10.63-.13-12.54,3.51Z"/>
    <circle class="cls-9" cx="208.81" cy="206.1" r="3.9"/>
    <path class="cls-9" d="m197.92,207.38s6.55-4.94,12.23-2.51c12.24,5.24,15.04-5.09,15.04-5.09-2.76,1.57-2.83,3.25-14.52.73-3.69-.8-10.54.52-12.76,6.87Z"/>
    <path class="cls-9" d="m199.87,209.15s.73-1.32,7.08-.04c2.63.53,5.11-.67,6.2-.67.31,0,.54.62.2.58-1.23-.17-3.05,2.2-6.07,2.11-1.76-.05-7.41-1.98-7.41-1.98Z"/>
    <polygon class="cls-10" points="208.73 206.08 209.61 205.61 210.1 204.74 210.56 205.62 211.43 206.11 210.55 206.58 210.06 207.45 209.6 206.57 208.73 206.08"/>
    <path class="cls-9" d="m211.3,209.64c-.4-.87.64-.98,1.39-.95.67.03.48-.41.67.03.62,1.37,4.64,1.88,4.64,1.88-2.05.59-3.76.96-4.98.36-.44-.22-1.5-.84-1.72-1.32Z"/>
    <path class="cls-9" d="m210.45,210.3c.56.23-.26-.77.32-.63.52.13.41-.22.52.13.49,1.53,3.48,2.11,3.48,2.11-1.62.08-3.41.01-4.33-.61-.47-.31-1.6-1.67.02-1.01Z"/>
    <path class="cls-9" d="m207.59,210.18c.45.25-.06-.73.42-.56.43.15.41-.18.43.15.1,1.44,2.59,2.63,2.59,2.63-1.46-.02-3.26-.67-3.94-1.29-.35-.32-.79-1.64.5-.93Z"/>
    <path class="cls-23" d="m185.7,203.14c1.23,6.2,1.71-5.77-2.27-10.13-7.14-7.81-14.26-6.82-16.61-4.61-2.84,2.66.5,9.92,7.84,7.84,3.25-.92,10.24,2.88,11.04,6.91Z"/>
    <circle class="cls-9" cx="179.14" cy="201.39" r="3.9"/>
    <path class="cls-9" d="m183.91,206.16s-.33-1.47-6.78-2.03c-2.68-.23-4.72-2.08-5.76-2.4-.29-.09-.69.45-.35.5,1.23.18,2.31,2.97,5.23,3.74,1.71.45,7.67.19,7.67.19Z"/>
    <polygon class="cls-10" points="181.96 201.52 181.12 200.97 180.71 200.06 180.17 200.9 179.26 201.31 180.09 201.85 180.5 202.76 181.05 201.93 181.96 201.52"/>
    <path class="cls-9" d="m172.63,203.57c.59-.75-.39-1.11-1.13-1.25-.66-.13-.37-.51-.66-.13-.92,1.19-4.95.75-4.95.75,1.85,1.05,3.43,1.81,4.76,1.51.48-.11,1.65-.46,1.98-.88Z"/>
    <path class="cls-9" d="m175.9,205.72c-.6.11.41-.71-.18-.69-.54.02-.35-.31-.54.02-.79,1.41-3.84,1.33-3.84,1.33,1.58.44,3.35.76,4.38.35.52-.21,1.91-1.31.19-1.01Z"/>
    <path class="cls-9" d="m173.84,204.37c-.5.11.27-.68-.24-.66-.46.02-.34-.29-.46.02-.51,1.35-3.23,1.79-3.23,1.79,1.41.39,3.31.28,4.15-.13.42-.21,1.22-1.35-.22-1.03Z"/>
    <path class="cls-6" d="m199.39,194.51c-.97-3.96-.98-2.19,5.55-5.96,12.58-7.26,18.41,2.96,19.85,5,1.75,2.47-3.15-1.8-9.84-3.51-2.96-.75-14.97,6.92-15.56,4.47Z"/>
    <path class="cls-18" d="m196.23,236.03c2.62-3.07,1.22,4.22-3.71,6.9-7.18,3.9-12.76.78-14.05-2.03-1.56-3.38,1.51-8.55,7.29-4.54,2.55,1.77,4.63-.99,7.07-.44"/>
    <path class="cls-34" d="m199.78,234.26s-4.43.25-6.38-1.72c-2.34-2.37-4.04.65-4.04.65-.19,1.95,1.09,4.18,3.34,4.4,2.24.22,4.05-1.32,7.09-3.32Z"/>
    <path class="cls-34" d="m190.04,230.5c3.87.49,7.27,7.53,2.65,7.09-6.93-.66-10.44.94-14.46-1.44-2.67-1.58-.96-9.19,5.08-5.35,2.68,1.7,2.71-.8,6.73-.29Z"/>
    <ellipse class="cls-34" cx="191.35" cy="236.73" rx="1.18" ry="3.7" transform="translate(-46.62 426.54) rotate(-89.63)"/>
    <path class="cls-34" d="m177.19,233.87c.05-1.1,1.69-1.71,3.22-1.63s2.72,1.03,2.67,2.13-1.48,2.06-3.01,1.99-2.93-1.38-2.88-2.48Z"/>
    <path class="cls-18" d="m192.01,237.92c1.34.35-3.37.65-4.48.64s-5.96-.38-3.26-1.03c.97-.24,2.26-.66,3.37-.65s2.91.66,4.37,1.04Z"/>
    <path class="cls-18" d="m184.94,237.87c1.24,0-3.57.68-4.72.67s-1.67-.37-1.67-1.05c0-.95.54-1.01,1.69-1s3.3,1.37,4.7,1.38Z"/>
    <path class="cls-32" d="m246.76,220.44c-5.43,6.95-6.45,12.43-10.47,11.46-4.02-.97-5.85-7.67-4.09-14.97s6.45-12.43,10.47-11.46,8.58,9.22,4.09,14.97Z"/>
    <path class="cls-31" d="m188.49,224.43c-1.15-.21-2.32-.5-3.38-.82-1.2.28-2.5.35-3.05.21-.67-.17-1.44-.64-1.87-1.29-1.3-1.12-1.46-4.24-.26-5.46,1.2-1.2,2.06-2.2,2.67-2.88,0,0,0,0,.01-.01,1.43-1.96,3.89-4.37,3.89-4.37,0,0-1.17,4.31-2.49,6.28-.49.72-1.17,1.43-1.8,2-.32.4-.57.75-.65,1.05-.11.43-.09.94-.04,1.43.08.22.15.46.21.73.09.39.83.38,1.53.38,2.9-.6,2.9-1.63,5.45-1.51,4.2.2,4.4,2,7.7,2.16.99.05-2.55,3.08-7.91,2.11Z"/>
    <path class="cls-9" d="m191.38,223.82c-.17.9-1.47.82-3.01.35-1.27-.39-2.51-.02-1.97-.75.89-1.2,1.75-1.83,3.04-1.59s2.11,1.08,1.94,1.98Z"/>
    <path class="cls-29" d="m189.25,193.54c2.06-3.52,1.56-1.82-3.61-7.3-9.97-10.56-18.48-2.44-20.45-.9-2.38,1.86,3.53-.83,10.44-.54,3.05.13,12.36,10.92,13.63,8.74Z"/>
    <path class="cls-11" d="m192.86,238.89c1.19.15.2,1.33-1.75,2.27-3.09,1.48-4.76.8-5.16-.03-.49-1.01.58-2.07,2.88-1.62,1.4.27,3.05-.73,4.03-.61Z"/>
    <ellipse class="cls-4" cx="191.57" cy="219.98" rx="1.34" ry="1.4" transform="translate(-37.47 400.61) rotate(-87.21)"/>
    <ellipse class="cls-33" cx="192.2" cy="219.71" rx=".35" ry=".57" transform="translate(-32.15 32.94) rotate(-9.04)"/>
    <path class="cls-32" d="m274.12,307.84c-26.94,3-67.48-3.2-91.91,8.54-7.14,3.43-11.93,2.43-17.85-2.86-2.03-1.81-3.33-2.88-4.82-7.23-4.35-12.68,6.78-32.67,16.36-32.86,29.48-.58,57.62-1.77,85.1-4.76,15.67-1.7,20.75,10.78,24.46,21.57,2.36,6.88,1.73,23.3,2.38,23.37-.11,7.34-5.83-6.65-13.7-5.77Z"/>
    <rect class="cls-1" x="236.55" y="229.6" width="1.01" height="4.04" rx=".42" ry=".42" transform="translate(11.56 -11.26) rotate(2.79)"/>
    <circle class="cls-4" cx="237.38" cy="227.96" r="2.52"/>
    <ellipse class="cls-33" cx="239" cy="227.54" rx=".45" ry=".65" transform="translate(-32.8 40.4) rotate(-9.04)"/>
    <ellipse class="cls-33" cx="240.83" cy="234.37" rx=".76" ry="1.16" transform="translate(-63.37 91.57) rotate(-19.07)"/>
    <path class="cls-26" d="m140.64,180.5c-.62,12.69,15.91,11.38,31.1-2.87s41.2-1.68,39.93-23.28c-.75-12.69-16.38-23.83-37.98-24.89-21.59-1.05-32.44,38.35-33.06,51.04Z"/>
    <path class="cls-26" d="m151.98,165.68c11.94-6.2,22.68,9.86,13.65,36.35-7.83,22.99,10.74,31.88,2.4,45.41-7.09,11.5-43.22,4.94-44.08-21.92-1.03-32.13,16.08-53.64,28.02-59.84Z"/>
    <path class="cls-9" d="m162.25,190.03c2.21,2.28,1.8,3.92,13.72,4.79,3.77.28,9.96,3.47,10.3,10.19,0,0-4.89-6.59-11.03-5.86-13.22,1.57-13-9.12-13-9.12"/>
    <path class="cls-26" d="m206.66,164.21c-4.68-18.74,14.01-22.35,24.71-10.97,16.91,17.97,49.17,12.04,41.52,51.79-9.24,48.02-27.08,27.96-39.01-13.67-5.27-18.38-23.37-11.71-27.22-27.15Z"/>
    <path class="cls-26" d="m214.95,162.49c-4.41-18.69,18.6-25.36,29.04-14.29,21.47,22.79,31.54,19.79,31.8,59.69.31,48.17-23.73,23.12-34.99-18.38-4.97-18.32-22.21-11.63-25.84-27.02Z"/>
    <path class="cls-26" d="m139.41,174.84c-1.62,11.4,17.91,6.1,35.89-5.05,17.99-11.15,46.08,3.17,46.23-16.5.09-11.55-16.24-27.36-40.54-26.8-35.42.8-39.97,36.96-41.59,48.36Z"/>
    <path class="cls-26" d="m158.77,157.99c-4.62,8.63,1.67,18.2,16.37,12.98,14.7-5.22,34.27,2.01,38.9-9.25,3.72-9.05-2.83-21.63-16.64-29.02-13.81-7.39-34.01,16.65-38.63,25.29Z"/>
    <path class="cls-4" d="m236.58,240.69s3.87-2.3,4.97-4.03l.24-.39c.19-.36.31-.76.33-1.19.08-1.58-1.14-2.92-2.72-2.99-1.01-.05-1.91.43-2.46,1.19-.47-.81-1.33-1.37-2.33-1.42-1.58-.08-2.92,1.14-2.99,2.72-.02.43.06.84.21,1.22l.2.41c.92,1.83,4.55,4.49,4.55,4.49h0Z"/>
    <path class="cls-26" d="m130.75,226.01c3.76-10.43,21.51-5.9,33.15,16.01,10.1,19.01,32.98,15.58,31.74,27.91-1.12,11.12-23.79,23.89-44.4,11.09-23.15-14.38-24.25-44.57-20.49-55.01Z"/>
    <path class="cls-32" d="m145.95,334.34c1.54-15.76,13.38-20.24,29.71-28.88,15.66-8.29,27.33,13.91,26.79,29.82-.54,15.91-18.31,22.84-32.57,22-12.74-.75-25.47-7.18-23.93-22.94Z"/>
    <path class="cls-26" d="m160.25,181.12c-1.01,4.15.28,8.04,2.9,8.68s4.69,1.46,6.66-6.27c2.17-8.51-.37-8.13-2.99-8.77s-5.56,2.21-6.58,6.36Z"/>
    <ellipse class="cls-33" cx="238.97" cy="227.57" rx=".45" ry=".65" transform="translate(-32.8 40.39) rotate(-9.04)"/>
    <path class="cls-28" d="m234.48,217.3c1.4,5.09-4.08,11.4-13.29,13.93-9.21,2.53-17.8.45-19.2-4.64s4.41-10.52,13.3-14c16-6.26,17.79-.38,19.19,4.71Z"/>
    <ellipse class="cls-33" cx="240.56" cy="234.31" rx=".66" ry="1.07" transform="translate(-63.36 91.48) rotate(-19.07)"/>
    <path class="cls-26" d="m128.87,230.55c5.1-7.73,17.15-1.55,20.82,17.55,3.18,16.57,25.56,20.92,17.11,26.79-8.81,6.12-21.99,14.19-36.74,2.36-15.71-12.6-6.29-38.97-1.19-46.7Z"/>
    <path class="cls-26" d="m165.14,279.5c-.1,2.14.39,5.92-5.97,4.93-8.18-1.27-10.61-3.6-10.5-5.74s3.88-3.69,8.42-3.46,8.15,2.13,8.05,4.27Z"/>
    <path class="cls-26" d="m207.07,165.73c-4.43-18.27,13.36-21.8,23.53-10.73,16.07,17.5,46.78,11.68,39.45,50.44-8.85,46.82-46.25,22.17-36.7-18.84,4.22-18.13-22.63-5.83-26.28-20.87Z"/>
    <circle class="cls-8" cx="215.49" cy="221.13" r=".67"/>
    <circle class="cls-5" cx="169.22" cy="216.52" r=".67"/>
    <circle class="cls-8" cx="193.83" cy="209.29" r=".67"/>
    <circle class="cls-8" cx="212.95" cy="217.97" r=".67"/>
    <circle class="cls-5" cx="201.98" cy="221.82" r=".67"/>
    <circle class="cls-35" cx="210.4" cy="221.89" r=".34"/>
    <circle class="cls-22" cx="191.33" cy="215.74" r=".5"/>
    <circle class="cls-15" cx="207.8" cy="216.54" r=".84"/>
    <circle class="cls-8" cx="205.78" cy="219.98" r=".67"/>
    <circle class="cls-8" cx="166.26" cy="215.02" r=".34"/>
    <circle class="cls-30" cx="176.1" cy="217.02" r=".84"/>
    <circle class="cls-35" cx="202.24" cy="216.44" r=".67"/>
    <circle class="cls-15" cx="198.61" cy="218.45" r=".5"/>
    <circle class="cls-8" cx="172.5" cy="214.82" r=".5"/>
    <circle class="cls-35" cx="170.47" cy="211.52" r=".67"/>
    <circle class="cls-5" cx="187.29" cy="215.54" r=".5"/>
    <circle class="cls-8" cx="194.74" cy="214.9" r=".5"/>
    <circle class="cls-15" cx="175.32" cy="212.26" r=".5"/>
    <circle class="cls-8" cx="178.78" cy="213.95" r=".34"/>
    <circle class="cls-22" cx="181.21" cy="212.38" r=".67"/>
    <circle class="cls-15" cx="190.31" cy="212.49" r=".67"/>
    <path class="cls-24" d="m176.25,214.68c0,4.51-2.79,8.16-6.23,8.16s-4.54,2.2-5.55-7.9c-1.01-10.13,2.11-8.41,5.55-8.41s6.23,3.65,6.23,8.16Z"/>
    <path class="cls-27" d="m171.54,173.2c-5.39,9.09,3.37,1.35,8.41-.34,20.11-6.7,28.17-1.14,31.98-10.77,5.64-14.26-5.14-19.84-18.18-16.16-15.48,4.38-18.59,21.15-22.21,27.26Z"/>
    <path class="cls-26" d="m183.53,141.29c-11.42.43-15.22,2.09-21.27,15.86-5.25,11.95-9.54,20.9.86,27.82,9.74,6.48,9.62-17.48,14.12-24.52,6.03-9.44,16.85-19.56,6.29-19.16Z"/>
    <path class="cls-36" d="m187.15,282.7l-3.07.83c-2.73,1.08-6.09-.16-6.01-2.69.04-1.46.2-2.92.2-3.81v-21.38c0-.14-.16-1.66,0-1.66l8.03,1.06c11.41-1.06,10.57-2.48,5.92,4.61l2.54,15.6c0,2.34-2.11,4.25-7.61,7.44Z"/>
    <path class="cls-12" d="m190.95,254.46c4.08-1.18,9.1-2.59,12.93-3.86,4.42-1.47,6.8-2.6,10.62-5.33,4.43-3.17,9.88-7.19,14.27-10.64-6.28,10.32-15.34,19.67-21.48,29.89-6.14,10.22-6.7,23.02-11.11,33.8-.94-8.14-3.05-18.99-3.83-26.53-.78-7.55-.84-10.59-1.4-17.33Z"/>
    <path class="cls-26" d="m175.24,285.62c11.3.36,10.77-13.46,10.77-16.16,0-2.36.49-13.3-8.08-16.16-8.03-2.67-2.55,12.23-3.2,17.75-.88,7.41-6.26,14.34.51,14.56Z"/>
    <rect class="cls-14" x="41.8" width="889.29" height="500.23"/>
    <path class="cls-32" d="m365.32,390.22l-11.86,10.6c-2.89,2.72-9.28,6.02-12,3.13l-80.16-90.37c-2.72-2.89-2.59-7.48.3-10.2l16.53-15.58c2.89-2.72,8.76-4.95,11.48-2.06l64.37,84.33c2.72,2.89,14.22,17.42,11.34,20.14Z"/>
    <path class="cls-32" d="m359.43,391.91c-5.18,3.59-21.18-10.55-35.73-31.58-14.55-21.03-26.84-46.37-21.65-49.95s25.86,17.68,40.26,38.81c18.7,27.45,22.31,39.14,17.12,42.72Z"/>
    <path class="cls-32" d="m313.05,394.89c-14.09,15.11-22.5,30.67-16.67,36.85,5.82,6.18,22.73-.3,37.77-14.47,15.03-14.17,38.4-27.44,16.67-36.85-7.79-3.38-21.2-3.28-37.77,14.47Z"/>
    <path class="cls-32" d="m297.93,299.21c1.85,11.12-13.09,11.58-24.09,11.58s-19.92-7.67-19.92-17.14,8.45-18.53,19.45-18.53,22.99,14.75,24.55,24.09Z"/>
    <path class="cls-26" d="m275.95,203.53c-3.21-15.4-38.65-7.93-30.82,21.81,6.15,23.35-22.13,27.79-15.98,43.84,5.55,14.48,28.71,24.41,49,8.5,27.41-21.49,1.22-57.7-2.2-74.15Z"/>
    <path class="cls-32" d="m332.99,385.65c-3.74,3.19-20.97-10.91-38.47-31.49-17.5-20.57-33.98-45.15-30.24-48.33,3.74-3.19,26.68,17.87,44.07,38.54,22.59,26.85,28.38,38.09,24.64,41.28Z"/>
    <path class="cls-2" d="m171.95,368.45c0,21.63-11.59,47-19.25,52.11-2.28,2.05-4.72,3.22-6.89,3.22-4.46,0-11.31-6.54-15.44-15.05-6.37-7.4-13.37-20.3-18.19-35.91-5.67-18.36-8.68-29.85-9.87-37.17l-7.68-22.11c-.91-2.62-.59-8.46.93-12.28.07-.63.24-1.25.52-1.85l2.45-5.36c.13-1.56.46-3.52,1.05-5.97.47-1.96.9-3.83,1.38-5.48h0c-.45-3.38-.46-7.58.13-12.34.87-6.91,12.07-16.8,13.71-13.21,2.18,4.78-7.35,12.82-6.09,16.43.5,1.42.88,2.77,1.18,4.03-.06.13-.11.27-.16.4.06,0,.11,0,.17,0,.02,0,.05,0,.07,0-.03-.13-.06-.26-.09-.4,1.25-3.14,3.26-6.79,6.05-10.63,4.11-5.62,17.21-11.03,16.9-7.1-.42,5.23-12.01,9.07-12.65,12.85-.44,2.54-1.01,4.75-1.68,6.65,1.86-1.33,4.07-2.66,6.63-3.97,6.2-3.17,21.32-2.77,19.28.6-2.72,4.49-14.8,2.7-17.08,5.78-.97,1.31-1.93,2.48-2.87,3.52.66-.36,1.34-.71,2.05-1.05,6.25-3.06,20.36-1.74,18.25,1.59-2.81,4.44-14.85,2.43-17.18,5.47-.83,1.08-1.64,2.07-2.45,2.95-.22.24-.44.48-.65.7.09.2.15.46.19.77.16,1.63-.56,4.78-2.87,10.98-.8,2.14-1.8,4.07-2.89,5.61l7.55,26.41h0c2.32,4.06,4.63,8.68,6.82,13.72,3.26,3.13,7.33,8.39,10.93,13.9.55-22.88,7.55-41.57,14.55-41.57s13.2,19.6,13.2,43.77Z"/>
    <path class="cls-19" d="m127.9,349.71c-.17.4-.38.78-.61,1.14.12-.52.32-.91.61-1.14Z"/>
    <path class="cls-17" d="m341.17,804.41c-79.93,37.1-151.11,37.46-231.51,1.49,6.43-34.83,17.63-68.56,24.11-103.38.15.03.29.06.44.09,6.6-68.51,8.83-137.3,9.11-206.1.06.03.09.02.11.1.04-3.79.1-7.19.11-11.08,0-3.43-.1-7.52-.07-11,.01-1.41.15-2.61.31-3.91.6-4.83.72-9.87,2.06-14.52,1.83-6.34,4.73-12.64,7.99-18.14,4.11-6.93,9.02-12.77,13.67-18.97.47-.62.84-.78.91-1.17,3.36-19.18-.06-27.15-7.9-44.23-.87-1.9-1.12-3.77-1.63-5.62-.68-2.45-1.01-4.64-1.56-7.05-7.15-8.68-11.27-10.5-15.51-21.01-.38-.94-1.9-9.37-1.51-10.42,6.33-16.91,8.98-20.6,27.23-22.08,10.47-.85,18.08,4.61,27.82,6.77,7.82-3.33,16.28-7.94,24.75-8.52,8.81-.6,15.2,3.04,23.21,5.4,0,0-.11.06-.11.07,3.64,5.07,6.51,9.53,9.8,15.46.04.06.81,1.45,1.88,3.39,1.07,1.94,4.8,8.79,6.41,11.76.17.32.7,1.27.75,1.71,1.01,9.1.88,18.11-1.59,26.87-3.15,11.12-7.22,21.46-10.5,32.45,3.97,7.27,8.38,14.26,13.19,21.02,5.07,5.92,9.99,11.6,14.87,17.8,2.25,2.86,5.19,6.81,6.82,9.99,3.45,6.69,6.57,13.39,8.84,20.24,1.77,5.34,1.93,10.1,2.55,15.48.39,3.34.13,6.66.39,10.01-.19,0-.36,0-.55,0,.36,71.36-12.77,143.61,15.14,211.78-.01,0-.02,0-.03.01,14.03,30.45,19.08,63.81,30,95.34Z"/>
    <path class="cls-20" d="m365.05,391.72c-1.31,3.16-13.87,14.96-32.45,29.02-11.22,8.49-23.3,14.4-31.52,17.5-4.11,2.78-7.33,4.7-10.03,5.75-3.74,6.45-10.44,15.37-17.64,15.05-2.22-.09-4.07-.47-5.61-1.06-2.25.29-4.76-.16-7.1-1.81-3.17-2.24-10.62,7.21-15.61,5.15-3.39-1.39,4-9.72,10.31-12.23-.62-.27-1.24-.63-1.84-1.05-3.18-2.25-10.62,7.2-15.61,5.16-3.74-1.54,5.62-11.52,12.21-12.82.07-.02.13-.03.2-.04-.16-.15-.31-.31-.46-.48-2.43-2.64-13.07,4.53-17.59,2.39-3.39-1.61,9.79-10.76,16.07-10.58.03,0,.07,0,.11,0-.44-.21-.88-.45-1.33-.68-3.43-1.84-12.47,5.88-16.99,2.92-3.39-2.22,7.7-10.25,14.41-10.28,7.02-.03,12.72,1.28,16.26,3.15,1.78.25,4.09.69,7.08,1.37,2.59.59,4.46,1.06,5.8,1.47l6.89-4.8c3.74-3.62,9.19-7.52,14.88-12.32,1.2-1.01,2.35-1.95,3.47-2.83l5.28-6.05.04-.05c1.06-1.28,2.16-2.57,3.32-3.86.02-.02.04-.05.06-.07,2.16-2.64,4.54-5.32,7.09-7.97,2.77-2.88,5.45-5.3,8.03-7.32l-1.45-1.57c-4.43-3.38-9.67-8.09-15-13.61-7.19-7.46-12.92-14.72-15.94-19.92l-2.43-2.64c-1.94-2.5-5.69-3.46,1.23-8.24l25.64-20.01c2.5-1.94,3.94.31,5.87,2.8l5.53,7.79s0,0,0,0c4.78,4.71,10.29,11.33,15.65,19.04,4.72,6.79,8.62,13.39,11.36,19.05l10.26,14.47c3.02,3.89,4.18,7.12,1.56,10.18Z"/>
  </g>
</svg>