<?xml version="1.0" encoding="UTF-8"?>
<svg id="Layer_1" data-name="Layer 1" xmlns="http://www.w3.org/2000/svg" xmlns:xlink="http://www.w3.org/1999/xlink" viewBox="0 0 512 498">
  <defs>
    <style>
      .cls-1 {
        fill: url(#linear-gradient);
        filter: url(#drop-shadow-1);
      }

      .cls-1, .cls-2, .cls-3, .cls-4, .cls-5, .cls-6 {
        stroke-width: 0px;
      }

      .cls-2 {
        fill: url(#linear-gradient-6);
      }

      .cls-3 {
        fill: url(#linear-gradient-5);
      }

      .cls-4 {
        fill: url(#linear-gradient-2);
      }

      .cls-5 {
        fill: url(#linear-gradient-3);
      }

      .cls-6 {
        fill: url(#linear-gradient-4);
      }
    </style>
    <linearGradient id="linear-gradient" x1="25.22" y1="241.94" x2="477" y2="241.94" gradientUnits="userSpaceOnUse">
      <stop offset="0" stop-color="#da4e4e"/>
      <stop offset=".25" stop-color="#da3f3f"/>
      <stop offset=".7" stop-color="#da1b1b"/>
      <stop offset="1" stop-color="#da0000"/>
    </linearGradient>
    <filter id="drop-shadow-1" filterUnits="userSpaceOnUse">
      <feOffset dx="5" dy="7"/>
      <feGaussianBlur result="blur" stdDeviation="10"/>
      <feFlood flood-color="#000" flood-opacity=".5"/>
      <feComposite in2="blur" operator="in"/>
      <feComposite in="SourceGraphic"/>
    </filter>
    <linearGradient id="linear-gradient-2" x1="66.32" y1="241.36" x2="436.26" y2="241.36" gradientUnits="userSpaceOnUse">
      <stop offset="0" stop-color="#f6b35b"/>
      <stop offset=".22" stop-color="#f6ac4c"/>
      <stop offset=".62" stop-color="#f69c28"/>
      <stop offset="1" stop-color="#f68b00"/>
    </linearGradient>
    <linearGradient id="linear-gradient-3" x1="108.72" y1="241.16" x2="396.05" y2="241.16" gradientUnits="userSpaceOnUse">
      <stop offset="0" stop-color="#fcf588"/>
      <stop offset=".16" stop-color="#fcf479"/>
      <stop offset=".45" stop-color="#fcf154"/>
      <stop offset=".84" stop-color="#fcee19"/>
      <stop offset="1" stop-color="#fced00"/>
    </linearGradient>
    <linearGradient id="linear-gradient-4" x1="144.58" y1="242.29" x2="361.21" y2="242.29" gradientUnits="userSpaceOnUse">
      <stop offset="0" stop-color="#4d9e4d"/>
      <stop offset=".37" stop-color="#42953e"/>
      <stop offset="1" stop-color="#2a801e"/>
    </linearGradient>
    <linearGradient id="linear-gradient-5" x1="179.93" y1="241.66" x2="324.58" y2="241.66" gradientUnits="userSpaceOnUse">
      <stop offset="0" stop-color="#5978ff"/>
      <stop offset=".37" stop-color="#4a6cff"/>
      <stop offset="1" stop-color="#2950ff"/>
    </linearGradient>
    <linearGradient id="linear-gradient-6" x1="210.68" y1="241.67" x2="296.71" y2="241.67" gradientUnits="userSpaceOnUse">
      <stop offset="0" stop-color="#a143b5"/>
      <stop offset=".3" stop-color="#9934ae"/>
      <stop offset=".87" stop-color="#84109d"/>
      <stop offset="1" stop-color="#7f0799"/>
    </linearGradient>
  </defs>
  <path class="cls-1" d="m251.27,460.73s161.18-124.42,204.59-213.85l9.6-20.04c7.33-18.37,11.54-38.77,11.54-60.36,0-79.16-54.98-143.34-122.81-143.34-43.25,0-81.2,26.15-103.08,65.58-21.88-39.43-59.83-65.58-103.08-65.58-67.83,0-122.81,64.17-122.81,143.34,0,21.6,4.21,42,11.54,60.36l9.6,20.04c43.41,89.43,204.59,213.85,204.59,213.85h.31Z"/>
  <path class="cls-4" d="m251.42,420.52s131.99-101.88,167.53-175.11l7.86-16.41c6-15.04,9.45-31.74,9.45-49.43,0-64.82-45.02-117.37-100.56-117.37-35.41,0-66.49,21.41-84.4,53.7-17.92-32.29-48.99-53.7-84.4-53.7-55.54,0-100.56,52.55-100.56,117.37,0,17.68,3.45,34.39,9.45,49.43l7.86,16.41c35.55,73.23,167.53,175.11,167.53,175.11h.25Z"/>
  <path class="cls-5" d="m252.48,380.31s102.51-79.13,130.12-136.01l6.11-12.74c4.66-11.68,7.34-24.66,7.34-38.39,0-50.35-34.97-91.16-78.11-91.16-27.5,0-51.64,16.63-65.56,41.71-13.92-25.08-38.05-41.71-65.56-41.71-43.14,0-78.11,40.81-78.11,91.16,0,13.73,2.68,26.71,7.34,38.39l6.11,12.74c27.61,56.88,130.12,136.01,130.12,136.01h.2Z"/>
  <path class="cls-6" d="m252.97,347.2s77.29-59.66,98.1-102.54l4.6-9.61c3.51-8.81,5.53-18.59,5.53-28.94,0-37.96-26.37-68.73-58.89-68.73-20.74,0-38.93,12.54-49.43,31.44-10.49-18.91-28.69-31.44-49.43-31.44-32.52,0-58.89,30.77-58.89,68.73,0,10.36,2.02,20.14,5.53,28.94l4.6,9.61c20.81,42.88,98.1,102.54,98.1,102.54h.15Z"/>
  <path class="cls-3" d="m252.31,311.72s51.61-39.84,65.51-68.47l3.07-6.42c2.35-5.88,3.69-12.41,3.69-19.33,0-25.35-17.6-45.89-39.32-45.89-13.85,0-26,8.37-33,21-7.01-12.62-19.16-21-33-21-21.72,0-39.32,20.55-39.32,45.89,0,6.91,1.35,13.45,3.69,19.33l3.07,6.42c13.9,28.63,65.51,68.47,65.51,68.47h.1Z"/>
  <path class="cls-2" d="m253.72,283.33s30.69-23.69,38.96-40.72l1.83-3.82c1.4-3.5,2.2-7.38,2.2-11.49,0-15.07-10.47-27.29-23.38-27.29-8.23,0-15.46,4.98-19.63,12.49-4.17-7.51-11.39-12.49-19.63-12.49-12.92,0-23.38,12.22-23.38,27.29,0,4.11.8,8,2.2,11.49l1.83,3.82c8.27,17.03,38.96,40.72,38.96,40.72h.06Z"/>
</svg>