<?xml version="1.0" encoding="UTF-8"?>
<svg id="Layer_1" data-name="Layer 1" xmlns="http://www.w3.org/2000/svg" xmlns:xlink="http://www.w3.org/1999/xlink" viewBox="0 0 803.96 174.97">
  <defs>
    <style>
      .cls-1 {
        fill: url(#linear-gradient);
      }

      .cls-1, .cls-2, .cls-3 {
        stroke-width: 0px;
      }

      .cls-2 {
        fill: #ffebfe;
        opacity: .7;
      }

      .cls-3 {
        fill: #8a0b85;
      }
    </style>
    <linearGradient id="linear-gradient" x1="0" y1="87.49" x2="803.96" y2="87.49" gradientUnits="userSpaceOnUse">
      <stop offset="0" stop-color="#ffc9fa"/>
      <stop offset="1" stop-color="#f7a3f0"/>
    </linearGradient>
  </defs>
  <rect class="cls-1" width="803.96" height="174.97" rx="12" ry="12"/>
  <rect class="cls-2" x="772.15" y="37.11" width="13.26" height="50.37" rx="5" ry="5"/>
  <rect class="cls-2" x="772.15" y="94.11" width="13.26" height="27.84" rx="5" ry="5"/>
  <g>
    <path class="cls-3" d="m121.69,96.91v26.16h-22.41V51.08h30.74c7.66,0,13.49.88,17.48,2.64,3.99,1.76,7.15,4.45,9.49,8.07,2.34,3.62,3.51,7.68,3.51,12.18,0,6.86-2.39,12.39-7.17,16.61-4.78,4.22-11.16,6.33-19.14,6.33h-12.5Zm-.32-15.45h7.38c6.5,0,9.76-2.39,9.76-7.17,0-4.5-3.01-6.75-9.02-6.75h-8.12v13.92Z"/>
    <path class="cls-3" d="m219.19,105.4v17.67h-50.47V51.08h22.1v54.32h28.37Z"/>
    <path class="cls-3" d="m266.58,123.07l-4.07-14.19h-19.28l-4.32,14.19h-17.94l22.22-71.98h23.36l22.58,71.98h-22.55Zm-19.6-29.9h11.65l-5.82-20.88-5.82,20.88Z"/>
    <path class="cls-3" d="m349.46,51.08l-22.53,41.5v30.48h-21.46v-30.48l-24.22-41.5h24.18l12.62,23.73,12.1-23.73h19.32Z"/>
    <path class="cls-3" d="m420.25,123.07l-4.07-14.19h-19.28l-4.32,14.19h-17.94l22.22-71.98h23.36l22.58,71.98h-22.55Zm-19.59-29.9h11.65l-5.82-20.88-5.82,20.88Z"/>
    <path class="cls-3" d="m509.34,82.72v40.34h-10.81c-.88-2.99-1.85-5.5-2.9-7.54-4.46,5.77-11.07,8.65-19.83,8.65-9.28,0-16.91-3.24-22.89-9.73s-8.96-15.27-8.96-26.34,2.89-19.8,8.67-27.13c5.78-7.33,14.39-11,25.81-11,8.58,0,15.49,2.18,20.72,6.54,5.24,4.36,8.63,10.55,10.18,18.56l-21.41,2.11c-1.05-7.49-4.34-11.23-9.86-11.23-7.24,0-10.86,6.89-10.86,20.67,0,8.33,1.16,13.83,3.48,16.48,2.32,2.66,5.13,3.98,8.44,3.98,2.67,0,4.95-.81,6.83-2.43,1.88-1.62,2.84-3.83,2.87-6.64h-11.92v-15.29h32.43Z"/>
    <path class="cls-3" d="m560.68,123.07l-4.07-14.19h-19.28l-4.32,14.19h-17.94l22.22-71.98h23.36l22.58,71.98h-22.55Zm-19.59-29.9h11.65l-5.82-20.88-5.82,20.88Z"/>
    <path class="cls-3" d="m611.96,51.08v71.98h-22.1V51.08h22.1Z"/>
    <path class="cls-3" d="m686.05,123.07h-17.98l-19.71-31.8c-2.53-4.08-5.08-9.03-7.65-14.87,1.16,4.64,1.74,8.58,1.74,11.81v34.86h-17.93V51.08h20.88l16.77,26.37c3.34,5.24,5.87,9.84,7.59,13.82-1.12-6.15-1.69-12.45-1.69-18.88v-21.3h17.98v71.98Z"/>
  </g>
</svg>